%TF.GenerationSoftware,KiCad,Pcbnew,7.0.9*%
%TF.CreationDate,2024-03-07T22:07:38-08:00*%
%TF.ProjectId,stm32mc,73746d33-326d-4632-9e6b-696361645f70,rev?*%
%TF.SameCoordinates,PX2625a00PY510ff40*%
%TF.FileFunction,Legend,Top*%
%TF.FilePolarity,Positive*%
%FSLAX46Y46*%
G04 Gerber Fmt 4.6, Leading zero omitted, Abs format (unit mm)*
G04 Created by KiCad (PCBNEW 7.0.9) date 2024-03-07 22:07:38*
%MOMM*%
%LPD*%
G01*
G04 APERTURE LIST*
%ADD10C,0.250000*%
%ADD11C,0.187500*%
%ADD12C,0.300000*%
%ADD13C,0.150000*%
%ADD14C,0.200000*%
%ADD15C,0.120000*%
%ADD16C,0.100000*%
G04 APERTURE END LIST*
D10*
G36*
X8319190Y15723769D02*
G01*
X8329859Y15723562D01*
X8340069Y15723368D01*
X8354521Y15723103D01*
X8367938Y15722867D01*
X8380321Y15722662D01*
X8391669Y15722487D01*
X8401982Y15722341D01*
X8414124Y15722194D01*
X8424426Y15722101D01*
X8434717Y15722059D01*
X8446675Y15722101D01*
X8457744Y15722194D01*
X8470149Y15722341D01*
X8480329Y15722487D01*
X8491261Y15722662D01*
X8502944Y15722867D01*
X8515378Y15723103D01*
X8528563Y15723368D01*
X8542500Y15723664D01*
X8547313Y15723769D01*
X8514584Y15165430D01*
X8514013Y15155155D01*
X8513852Y15145402D01*
X8513950Y15134344D01*
X8514245Y15123641D01*
X8514736Y15113293D01*
X8515424Y15103300D01*
X8516824Y15088976D01*
X8518667Y15075451D01*
X8520952Y15062724D01*
X8523679Y15050796D01*
X8526848Y15039666D01*
X8530459Y15029335D01*
X8534513Y15019802D01*
X8539009Y15011068D01*
X8545729Y15000390D01*
X8553190Y14990460D01*
X8561391Y14981278D01*
X8570333Y14972844D01*
X8580015Y14965158D01*
X8590437Y14958220D01*
X8601600Y14952030D01*
X8610457Y14947878D01*
X8613503Y14946588D01*
X8622843Y14942965D01*
X8632453Y14939699D01*
X8642335Y14936789D01*
X8652486Y14934235D01*
X8662908Y14932037D01*
X8673601Y14930196D01*
X8684564Y14928711D01*
X8695797Y14927583D01*
X8707301Y14926811D01*
X8719076Y14926395D01*
X8727076Y14926316D01*
X8737269Y14926461D01*
X8747332Y14926896D01*
X8757266Y14927621D01*
X8767070Y14928636D01*
X8779143Y14930313D01*
X8791013Y14932443D01*
X8802680Y14935026D01*
X8804989Y14935597D01*
X8815974Y14938817D01*
X8826582Y14942432D01*
X8836811Y14946442D01*
X8846663Y14950847D01*
X8856137Y14955647D01*
X8859211Y14957335D01*
X8867633Y14962556D01*
X8876685Y14969009D01*
X8885126Y14975981D01*
X8892957Y14983473D01*
X8893893Y14984446D01*
X8901318Y14992966D01*
X8907255Y15000734D01*
X8912796Y15008931D01*
X8917942Y15017558D01*
X8922693Y15026614D01*
X8923447Y15028165D01*
X8927895Y15037556D01*
X8931896Y15047411D01*
X8935451Y15057729D01*
X8938559Y15068511D01*
X8941221Y15079757D01*
X8942009Y15083608D01*
X8944188Y15096694D01*
X8945798Y15107977D01*
X8947385Y15120517D01*
X8948952Y15134315D01*
X8949984Y15144212D01*
X8951007Y15154669D01*
X8952020Y15165685D01*
X8953024Y15177259D01*
X8954018Y15189393D01*
X8955003Y15202086D01*
X8955978Y15215338D01*
X8956943Y15229150D01*
X8957899Y15243520D01*
X8958374Y15250915D01*
X8972784Y15487830D01*
X8973387Y15500859D01*
X8973975Y15514117D01*
X8974547Y15527604D01*
X8975104Y15541319D01*
X8975646Y15555264D01*
X8976173Y15569438D01*
X8976684Y15583841D01*
X8977180Y15598472D01*
X8977661Y15613333D01*
X8978127Y15628423D01*
X8978577Y15643741D01*
X8979012Y15659289D01*
X8979432Y15675065D01*
X8979836Y15691071D01*
X8980226Y15707305D01*
X8980600Y15723769D01*
X8991069Y15723562D01*
X9001166Y15723368D01*
X9015613Y15723103D01*
X9029224Y15722867D01*
X9041997Y15722662D01*
X9053934Y15722487D01*
X9065033Y15722341D01*
X9075294Y15722226D01*
X9087674Y15722119D01*
X9098566Y15722066D01*
X9103454Y15722059D01*
X9212142Y15723769D01*
X9190404Y15384271D01*
X9176727Y15121466D01*
X9175935Y15110018D01*
X9175086Y15098938D01*
X9174179Y15088227D01*
X9173216Y15077884D01*
X9172195Y15067909D01*
X9170556Y15053637D01*
X9168789Y15040194D01*
X9166893Y15027580D01*
X9164868Y15015794D01*
X9162714Y15004836D01*
X9160431Y14994708D01*
X9157187Y14982492D01*
X9154233Y14972871D01*
X9150990Y14963426D01*
X9147456Y14954156D01*
X9143632Y14945062D01*
X9139518Y14936143D01*
X9135114Y14927400D01*
X9129201Y14916718D01*
X9125436Y14910440D01*
X9118992Y14901219D01*
X9112179Y14892332D01*
X9104996Y14883779D01*
X9097443Y14875559D01*
X9089521Y14867674D01*
X9081229Y14860122D01*
X9077808Y14857195D01*
X9068829Y14849757D01*
X9059475Y14842586D01*
X9049747Y14835683D01*
X9039645Y14829046D01*
X9029170Y14822677D01*
X9018320Y14816575D01*
X9007096Y14810739D01*
X8995498Y14805171D01*
X8985642Y14800710D01*
X8975675Y14796485D01*
X8965595Y14792495D01*
X8955404Y14788742D01*
X8945102Y14785225D01*
X8934688Y14781945D01*
X8924162Y14778900D01*
X8913524Y14776091D01*
X8902775Y14773519D01*
X8891915Y14771183D01*
X8884612Y14769756D01*
X8874549Y14767893D01*
X8864447Y14766150D01*
X8854307Y14764527D01*
X8844129Y14763024D01*
X8833913Y14761642D01*
X8823658Y14760380D01*
X8813366Y14759238D01*
X8803035Y14758216D01*
X8792666Y14757314D01*
X8782259Y14756533D01*
X8771814Y14755872D01*
X8761331Y14755331D01*
X8750809Y14754910D01*
X8740249Y14754609D01*
X8729652Y14754429D01*
X8719016Y14754369D01*
X8708129Y14754432D01*
X8697328Y14754621D01*
X8686612Y14754936D01*
X8675983Y14755376D01*
X8665440Y14755943D01*
X8654982Y14756636D01*
X8644610Y14757454D01*
X8634324Y14758399D01*
X8624124Y14759469D01*
X8614010Y14760666D01*
X8603982Y14761988D01*
X8594040Y14763436D01*
X8584183Y14765011D01*
X8574412Y14766711D01*
X8564728Y14768537D01*
X8555129Y14770489D01*
X8542904Y14773235D01*
X8530868Y14776251D01*
X8519022Y14779537D01*
X8507364Y14783094D01*
X8495895Y14786922D01*
X8484615Y14791020D01*
X8473524Y14795388D01*
X8462622Y14800027D01*
X8451908Y14804937D01*
X8441384Y14810116D01*
X8434473Y14813720D01*
X8424364Y14819282D01*
X8414646Y14824977D01*
X8405319Y14830805D01*
X8396382Y14836767D01*
X8387836Y14842861D01*
X8379681Y14849088D01*
X8371917Y14855449D01*
X8364543Y14861943D01*
X8355319Y14870808D01*
X8346789Y14879910D01*
X8340363Y14887645D01*
X8334272Y14895831D01*
X8328517Y14904468D01*
X8323098Y14913554D01*
X8318015Y14923091D01*
X8313267Y14933078D01*
X8308855Y14943516D01*
X8304780Y14954404D01*
X8301637Y14963753D01*
X8298803Y14973300D01*
X8296279Y14983045D01*
X8294064Y14992987D01*
X8292157Y15003126D01*
X8290560Y15013463D01*
X8289272Y15023997D01*
X8288293Y15034729D01*
X8287624Y15045659D01*
X8287263Y15056785D01*
X8287194Y15064313D01*
X8287271Y15075441D01*
X8287463Y15086406D01*
X8287720Y15096716D01*
X8288064Y15107867D01*
X8288415Y15117802D01*
X8288921Y15128489D01*
X8289522Y15140094D01*
X8290072Y15150040D01*
X8290682Y15160572D01*
X8291354Y15171693D01*
X8292087Y15183402D01*
X8292880Y15195698D01*
X8293300Y15202066D01*
X8299651Y15298786D01*
X8300517Y15310800D01*
X8301182Y15320672D01*
X8301859Y15331282D01*
X8302550Y15342631D01*
X8303253Y15354718D01*
X8303969Y15367543D01*
X8304699Y15381108D01*
X8305441Y15395410D01*
X8305942Y15405355D01*
X8306450Y15415629D01*
X8306963Y15426230D01*
X8307222Y15431654D01*
X8314061Y15580887D01*
X8314604Y15592477D01*
X8315134Y15604440D01*
X8315652Y15616777D01*
X8316156Y15629487D01*
X8316648Y15642571D01*
X8317126Y15656029D01*
X8317592Y15669860D01*
X8318045Y15684064D01*
X8318485Y15698642D01*
X8318771Y15708568D01*
X8319052Y15718660D01*
X8319190Y15723769D01*
G37*
G36*
X9308374Y14786853D02*
G01*
X9307651Y14801830D01*
X9306889Y14816536D01*
X9306087Y14830972D01*
X9305244Y14845136D01*
X9304362Y14859029D01*
X9303439Y14872651D01*
X9302476Y14886002D01*
X9301474Y14899083D01*
X9300431Y14911892D01*
X9299348Y14924431D01*
X9298225Y14936698D01*
X9297062Y14948695D01*
X9295859Y14960420D01*
X9294616Y14971875D01*
X9293333Y14983058D01*
X9292009Y14993971D01*
X9301086Y14989809D01*
X9310090Y14985779D01*
X9327879Y14978114D01*
X9345375Y14970979D01*
X9362580Y14964372D01*
X9379493Y14958294D01*
X9396114Y14952744D01*
X9412443Y14947722D01*
X9428480Y14943230D01*
X9444225Y14939266D01*
X9459678Y14935830D01*
X9474839Y14932923D01*
X9489709Y14930544D01*
X9504286Y14928694D01*
X9518571Y14927373D01*
X9532565Y14926580D01*
X9546266Y14926316D01*
X9556852Y14926503D01*
X9567240Y14927064D01*
X9577430Y14927999D01*
X9587421Y14929308D01*
X9597214Y14930991D01*
X9606808Y14933048D01*
X9618521Y14936145D01*
X9625401Y14938284D01*
X9636290Y14942315D01*
X9646214Y14946775D01*
X9655171Y14951665D01*
X9664645Y14958099D01*
X9672728Y14965151D01*
X9678401Y14971501D01*
X9684046Y14979549D01*
X9689155Y14989374D01*
X9692674Y14999665D01*
X9694604Y15010424D01*
X9695010Y15018395D01*
X9694537Y15028257D01*
X9692873Y15038694D01*
X9690012Y15048435D01*
X9687438Y15054543D01*
X9682475Y15063056D01*
X9676379Y15071740D01*
X9669149Y15080595D01*
X9662258Y15088106D01*
X9654580Y15095736D01*
X9647871Y15101927D01*
X9639901Y15109452D01*
X9630827Y15117832D01*
X9620649Y15127066D01*
X9613251Y15133697D01*
X9605363Y15140707D01*
X9596984Y15148098D01*
X9588115Y15155868D01*
X9578756Y15164017D01*
X9568906Y15172547D01*
X9558566Y15181456D01*
X9547735Y15190745D01*
X9536414Y15200413D01*
X9524603Y15210462D01*
X9512301Y15220890D01*
X9505966Y15226246D01*
X9497073Y15233869D01*
X9488713Y15241075D01*
X9480884Y15247865D01*
X9471275Y15256271D01*
X9462612Y15263936D01*
X9454895Y15270860D01*
X9446581Y15278475D01*
X9438555Y15286086D01*
X9430891Y15293438D01*
X9423563Y15300657D01*
X9416569Y15307743D01*
X9407765Y15316985D01*
X9399556Y15325989D01*
X9391942Y15334757D01*
X9384924Y15343288D01*
X9378501Y15351583D01*
X9374075Y15357649D01*
X9367357Y15367712D01*
X9361247Y15377751D01*
X9355746Y15387767D01*
X9350853Y15397758D01*
X9346568Y15407726D01*
X9342891Y15417670D01*
X9341591Y15421640D01*
X9338706Y15431746D01*
X9336310Y15442067D01*
X9334403Y15452602D01*
X9332985Y15463353D01*
X9332056Y15474317D01*
X9331616Y15485497D01*
X9331577Y15490028D01*
X9331903Y15502458D01*
X9332882Y15514741D01*
X9334513Y15526878D01*
X9336797Y15538869D01*
X9339734Y15550715D01*
X9343323Y15562414D01*
X9347565Y15573967D01*
X9352459Y15585375D01*
X9358006Y15596636D01*
X9364206Y15607752D01*
X9368702Y15615081D01*
X9376026Y15625844D01*
X9383986Y15636152D01*
X9392581Y15646006D01*
X9401812Y15655404D01*
X9411678Y15664347D01*
X9422179Y15672835D01*
X9433316Y15680867D01*
X9445088Y15688445D01*
X9457496Y15695568D01*
X9470539Y15702235D01*
X9479588Y15706428D01*
X9488953Y15710391D01*
X9498608Y15714098D01*
X9508553Y15717550D01*
X9518789Y15720746D01*
X9529314Y15723687D01*
X9540129Y15726372D01*
X9551235Y15728801D01*
X9562630Y15730974D01*
X9574316Y15732892D01*
X9586291Y15734554D01*
X9598557Y15735960D01*
X9611113Y15737111D01*
X9623958Y15738006D01*
X9637094Y15738645D01*
X9650520Y15739028D01*
X9664235Y15739156D01*
X9676750Y15739027D01*
X9689503Y15738641D01*
X9702495Y15737997D01*
X9715725Y15737095D01*
X9729193Y15735936D01*
X9742901Y15734519D01*
X9756846Y15732845D01*
X9771031Y15730913D01*
X9785453Y15728723D01*
X9800115Y15726276D01*
X9815014Y15723571D01*
X9830153Y15720609D01*
X9845529Y15717389D01*
X9861145Y15713911D01*
X9876999Y15710176D01*
X9893091Y15706183D01*
X9893847Y15692128D01*
X9894740Y15677621D01*
X9895411Y15667700D01*
X9896144Y15657578D01*
X9896938Y15647256D01*
X9897793Y15636733D01*
X9898709Y15626011D01*
X9899685Y15615087D01*
X9900724Y15603964D01*
X9901823Y15592640D01*
X9902983Y15581116D01*
X9904204Y15569391D01*
X9905486Y15557466D01*
X9906830Y15545341D01*
X9908234Y15533015D01*
X9893659Y15537156D01*
X9879303Y15541029D01*
X9865166Y15544636D01*
X9851249Y15547975D01*
X9837551Y15551047D01*
X9824073Y15553852D01*
X9810814Y15556390D01*
X9797775Y15558661D01*
X9784955Y15560664D01*
X9772355Y15562401D01*
X9759974Y15563870D01*
X9747812Y15565072D01*
X9735870Y15566007D01*
X9724147Y15566675D01*
X9712644Y15567076D01*
X9701360Y15567209D01*
X9689439Y15566967D01*
X9677947Y15566239D01*
X9666885Y15565026D01*
X9656252Y15563328D01*
X9646048Y15561145D01*
X9636273Y15558477D01*
X9626928Y15555323D01*
X9615136Y15550364D01*
X9604107Y15544542D01*
X9596336Y15539610D01*
X9586891Y15532656D01*
X9578705Y15525474D01*
X9571778Y15518063D01*
X9564891Y15508477D01*
X9559971Y15498533D01*
X9557020Y15488231D01*
X9556036Y15477572D01*
X9556646Y15467558D01*
X9558328Y15457726D01*
X9558478Y15457056D01*
X9561534Y15447263D01*
X9565354Y15438221D01*
X9566294Y15436295D01*
X9571309Y15427823D01*
X9577272Y15419293D01*
X9583210Y15411508D01*
X9584856Y15409428D01*
X9591460Y15401751D01*
X9599302Y15393467D01*
X9607010Y15385882D01*
X9615628Y15377850D01*
X9623505Y15370816D01*
X9625157Y15369372D01*
X9633368Y15362407D01*
X9641209Y15355858D01*
X9650130Y15348551D01*
X9658520Y15341845D01*
X9666376Y15335739D01*
X9671318Y15332003D01*
X9766817Y15255311D01*
X9774889Y15248556D01*
X9782739Y15241847D01*
X9790368Y15235184D01*
X9797775Y15228566D01*
X9806723Y15220359D01*
X9815325Y15212223D01*
X9823582Y15204159D01*
X9825191Y15202555D01*
X9833033Y15194582D01*
X9840528Y15186693D01*
X9847678Y15178888D01*
X9854481Y15171166D01*
X9860939Y15163527D01*
X9868232Y15154471D01*
X9869399Y15152973D01*
X9876086Y15144149D01*
X9882222Y15135445D01*
X9887809Y15126861D01*
X9892847Y15118398D01*
X9898029Y15108675D01*
X9898709Y15107300D01*
X9903153Y15097624D01*
X9907083Y15087832D01*
X9910499Y15077923D01*
X9913401Y15067897D01*
X9914829Y15062115D01*
X9916922Y15051847D01*
X9918502Y15041345D01*
X9919567Y15030609D01*
X9920118Y15019640D01*
X9920202Y15013266D01*
X9919957Y15002152D01*
X9919223Y14991159D01*
X9917999Y14980285D01*
X9916286Y14969532D01*
X9914084Y14958898D01*
X9911392Y14948386D01*
X9908211Y14937993D01*
X9904540Y14927720D01*
X9900380Y14917568D01*
X9895730Y14907536D01*
X9892358Y14900915D01*
X9886973Y14891188D01*
X9881167Y14881792D01*
X9874940Y14872727D01*
X9868293Y14863992D01*
X9861224Y14855588D01*
X9853735Y14847514D01*
X9845826Y14839771D01*
X9837495Y14832359D01*
X9828744Y14825277D01*
X9819572Y14818526D01*
X9813224Y14814208D01*
X9803477Y14808027D01*
X9793563Y14802216D01*
X9783481Y14796773D01*
X9773233Y14791700D01*
X9762816Y14786996D01*
X9752232Y14782661D01*
X9741481Y14778695D01*
X9730563Y14775099D01*
X9719476Y14771872D01*
X9708223Y14769014D01*
X9700628Y14767314D01*
X9689123Y14765000D01*
X9677507Y14762915D01*
X9665779Y14761056D01*
X9653939Y14759426D01*
X9641988Y14758022D01*
X9629925Y14756847D01*
X9617751Y14755899D01*
X9605464Y14755178D01*
X9593067Y14754685D01*
X9580557Y14754420D01*
X9572156Y14754369D01*
X9560818Y14754472D01*
X9549029Y14754781D01*
X9536790Y14755296D01*
X9524101Y14756018D01*
X9514289Y14756694D01*
X9504223Y14757486D01*
X9493904Y14758394D01*
X9483332Y14759418D01*
X9472506Y14760558D01*
X9468841Y14760964D01*
X9457470Y14762270D01*
X9445339Y14763809D01*
X9432449Y14765579D01*
X9418798Y14767581D01*
X9404387Y14769815D01*
X9394358Y14771433D01*
X9383991Y14773154D01*
X9373287Y14774978D01*
X9362244Y14776906D01*
X9350864Y14778936D01*
X9339146Y14781069D01*
X9327090Y14783306D01*
X9314697Y14785645D01*
X9308374Y14786853D01*
G37*
G36*
X10535023Y15726151D02*
G01*
X10548581Y15725971D01*
X10561470Y15725670D01*
X10573689Y15725250D01*
X10585238Y15724709D01*
X10596117Y15724047D01*
X10606327Y15723266D01*
X10618898Y15722037D01*
X10630278Y15720595D01*
X10638032Y15719372D01*
X10647794Y15717613D01*
X10659631Y15715103D01*
X10671064Y15712246D01*
X10682090Y15709044D01*
X10692711Y15705496D01*
X10702927Y15701603D01*
X10708862Y15699100D01*
X10718393Y15694671D01*
X10727447Y15689932D01*
X10736025Y15684882D01*
X10745687Y15678414D01*
X10754663Y15671498D01*
X10761618Y15665395D01*
X10769464Y15657718D01*
X10776880Y15649527D01*
X10783867Y15640820D01*
X10790424Y15631598D01*
X10796552Y15621860D01*
X10798499Y15618500D01*
X10803986Y15608188D01*
X10808906Y15597583D01*
X10812573Y15588523D01*
X10815847Y15579260D01*
X10818727Y15569794D01*
X10821214Y15560126D01*
X10823395Y15550403D01*
X10825207Y15540620D01*
X10826648Y15530778D01*
X10827721Y15520876D01*
X10828423Y15510914D01*
X10828756Y15500892D01*
X10828785Y15496867D01*
X10828636Y15486914D01*
X10828190Y15477084D01*
X10827213Y15464967D01*
X10825771Y15453041D01*
X10823864Y15441306D01*
X10821492Y15429761D01*
X10819260Y15420663D01*
X10816074Y15409534D01*
X10812472Y15398739D01*
X10808451Y15388277D01*
X10804014Y15378150D01*
X10799159Y15368356D01*
X10793886Y15358897D01*
X10791660Y15355206D01*
X10785863Y15346332D01*
X10779768Y15337876D01*
X10773374Y15329836D01*
X10766683Y15322214D01*
X10759693Y15315010D01*
X10752405Y15308223D01*
X10749406Y15305625D01*
X10740416Y15298249D01*
X10731580Y15291509D01*
X10722899Y15285403D01*
X10714373Y15279934D01*
X10704620Y15274356D01*
X10703244Y15273629D01*
X10694212Y15269088D01*
X10685320Y15264814D01*
X10676351Y15260845D01*
X10671493Y15258975D01*
X10681078Y15256092D01*
X10690581Y15252915D01*
X10696406Y15250915D01*
X10706588Y15247175D01*
X10715772Y15243176D01*
X10725214Y15238499D01*
X10734913Y15233145D01*
X10739148Y15230643D01*
X10747663Y15225239D01*
X10755989Y15219285D01*
X10764127Y15212782D01*
X10772075Y15205730D01*
X10779835Y15198128D01*
X10782379Y15195472D01*
X10789698Y15187317D01*
X10796450Y15178974D01*
X10802635Y15170441D01*
X10808254Y15161720D01*
X10813305Y15152810D01*
X10814863Y15149798D01*
X10819245Y15140642D01*
X10823233Y15131125D01*
X10826825Y15121247D01*
X10830022Y15111009D01*
X10832824Y15100411D01*
X10833670Y15096797D01*
X10835994Y15085812D01*
X10837838Y15074655D01*
X10839200Y15063327D01*
X10840081Y15051826D01*
X10840482Y15040154D01*
X10840509Y15036225D01*
X10840249Y15023684D01*
X10839470Y15011341D01*
X10838171Y14999195D01*
X10836353Y14987247D01*
X10834015Y14975496D01*
X10831158Y14963943D01*
X10827781Y14952587D01*
X10823885Y14941428D01*
X10819469Y14930468D01*
X10814534Y14919704D01*
X10810956Y14912638D01*
X10805263Y14902355D01*
X10799175Y14892480D01*
X10792692Y14883012D01*
X10785814Y14873953D01*
X10778541Y14865301D01*
X10770873Y14857057D01*
X10762810Y14849221D01*
X10754352Y14841793D01*
X10745499Y14834772D01*
X10736252Y14828160D01*
X10729867Y14823978D01*
X10720101Y14818078D01*
X10710129Y14812561D01*
X10699951Y14807425D01*
X10689567Y14802672D01*
X10678977Y14798300D01*
X10668180Y14794311D01*
X10657178Y14790704D01*
X10645969Y14787479D01*
X10634555Y14784636D01*
X10622934Y14782175D01*
X10615073Y14780747D01*
X10601986Y14778827D01*
X10591900Y14777651D01*
X10580723Y14776560D01*
X10568458Y14775552D01*
X10555103Y14774629D01*
X10540658Y14773789D01*
X10525124Y14773034D01*
X10508500Y14772362D01*
X10490787Y14771774D01*
X10471984Y14771270D01*
X10462174Y14771050D01*
X10452091Y14770851D01*
X10441737Y14770672D01*
X10431109Y14770515D01*
X10420210Y14770378D01*
X10409038Y14770263D01*
X10397594Y14770168D01*
X10385877Y14770095D01*
X10373888Y14770042D01*
X10361626Y14770011D01*
X10349092Y14770000D01*
X10183007Y14770733D01*
X10050139Y14770000D01*
X10051813Y14788995D01*
X10053417Y14807511D01*
X10054950Y14825548D01*
X10056413Y14843105D01*
X10057805Y14860184D01*
X10059126Y14876784D01*
X10060377Y14892905D01*
X10061557Y14908547D01*
X10062667Y14923710D01*
X10062851Y14926316D01*
X10274842Y14926316D01*
X10422609Y14926316D01*
X10434001Y14926369D01*
X10444729Y14926530D01*
X10454792Y14926797D01*
X10466438Y14927281D01*
X10477046Y14927932D01*
X10488406Y14928934D01*
X10495150Y14929735D01*
X10506336Y14931488D01*
X10517242Y14933756D01*
X10527868Y14936537D01*
X10538213Y14939833D01*
X10543998Y14941947D01*
X10553647Y14945829D01*
X10563443Y14950352D01*
X10572895Y14955549D01*
X10579902Y14960266D01*
X10587577Y14966920D01*
X10594728Y14974672D01*
X10600715Y14982587D01*
X10602616Y14985423D01*
X10607921Y14994387D01*
X10612568Y15003970D01*
X10616559Y15014171D01*
X10618492Y15020105D01*
X10621057Y15029951D01*
X10622889Y15039950D01*
X10623988Y15050101D01*
X10624354Y15060405D01*
X10623993Y15070772D01*
X10622911Y15080624D01*
X10620738Y15091467D01*
X10617582Y15101608D01*
X10614096Y15109742D01*
X10609129Y15118770D01*
X10603203Y15127260D01*
X10596319Y15135212D01*
X10588477Y15142627D01*
X10583565Y15146623D01*
X10574441Y15153053D01*
X10564592Y15158664D01*
X10555573Y15162823D01*
X10546022Y15166381D01*
X10535938Y15169338D01*
X10524515Y15171745D01*
X10513356Y15173370D01*
X10503355Y15174422D01*
X10492401Y15175252D01*
X10480492Y15175860D01*
X10467629Y15176248D01*
X10457356Y15176393D01*
X10450209Y15176421D01*
X10284612Y15176421D01*
X10274842Y14926316D01*
X10062851Y14926316D01*
X10063706Y14938394D01*
X10064674Y14952600D01*
X10065572Y14966326D01*
X10066399Y14979573D01*
X10067156Y14992342D01*
X10067842Y15004631D01*
X10068457Y15016442D01*
X10069078Y15028555D01*
X10069720Y15041694D01*
X10070384Y15055857D01*
X10071068Y15071045D01*
X10071773Y15087258D01*
X10072499Y15104495D01*
X10073246Y15122757D01*
X10074014Y15142043D01*
X10074406Y15152071D01*
X10074803Y15162355D01*
X10075205Y15172895D01*
X10075613Y15183691D01*
X10076026Y15194743D01*
X10076444Y15206051D01*
X10076867Y15217616D01*
X10077296Y15229437D01*
X10077730Y15241513D01*
X10078169Y15253847D01*
X10078613Y15266436D01*
X10079063Y15279281D01*
X10079518Y15292383D01*
X10079978Y15305741D01*
X10080443Y15319354D01*
X10080897Y15332736D01*
X10291207Y15332736D01*
X10393789Y15332736D01*
X10406566Y15332764D01*
X10418518Y15332848D01*
X10429647Y15332987D01*
X10439951Y15333183D01*
X10452407Y15333530D01*
X10463398Y15333976D01*
X10475076Y15334674D01*
X10486067Y15335716D01*
X10487578Y15335911D01*
X10498037Y15337581D01*
X10508682Y15339811D01*
X10519515Y15342603D01*
X10528949Y15345442D01*
X10536915Y15348123D01*
X10546240Y15351947D01*
X10554981Y15356458D01*
X10564442Y15362589D01*
X10573107Y15369655D01*
X10579902Y15376455D01*
X10587044Y15384966D01*
X10593299Y15393826D01*
X10598665Y15403038D01*
X10603143Y15412600D01*
X10605303Y15418221D01*
X10608444Y15428324D01*
X10610813Y15438544D01*
X10612411Y15448880D01*
X10613237Y15459334D01*
X10613363Y15465360D01*
X10612954Y15475276D01*
X10611485Y15486293D01*
X10608947Y15496975D01*
X10605341Y15507321D01*
X10604815Y15508591D01*
X10599960Y15518269D01*
X10593946Y15527031D01*
X10586771Y15534878D01*
X10578436Y15541808D01*
X10569125Y15547960D01*
X10560125Y15552616D01*
X10550331Y15556595D01*
X10539742Y15559896D01*
X10534961Y15561103D01*
X10524359Y15563178D01*
X10514160Y15564579D01*
X10502721Y15565683D01*
X10492677Y15566350D01*
X10481838Y15566828D01*
X10470206Y15567114D01*
X10457780Y15567209D01*
X10300488Y15567209D01*
X10291207Y15332736D01*
X10080897Y15332736D01*
X10080914Y15333225D01*
X10081379Y15347086D01*
X10081831Y15360672D01*
X10082267Y15373985D01*
X10082688Y15387023D01*
X10083095Y15399787D01*
X10083487Y15412276D01*
X10083864Y15424491D01*
X10084226Y15436432D01*
X10084574Y15448099D01*
X10084906Y15459491D01*
X10085224Y15470609D01*
X10085528Y15481453D01*
X10085816Y15492023D01*
X10086090Y15502318D01*
X10086348Y15512339D01*
X10086822Y15531558D01*
X10087236Y15549679D01*
X10087591Y15566704D01*
X10087886Y15582631D01*
X10088123Y15597461D01*
X10088300Y15611194D01*
X10088419Y15623830D01*
X10088478Y15635368D01*
X10088485Y15640726D01*
X10088459Y15651385D01*
X10088399Y15661999D01*
X10088302Y15674188D01*
X10088199Y15685072D01*
X10088073Y15696963D01*
X10087924Y15709862D01*
X10087798Y15720198D01*
X10087752Y15723769D01*
X10099392Y15723562D01*
X10110742Y15723368D01*
X10121801Y15723188D01*
X10132571Y15723021D01*
X10143051Y15722867D01*
X10153240Y15722727D01*
X10163140Y15722600D01*
X10177445Y15722435D01*
X10191098Y15722300D01*
X10204098Y15722194D01*
X10216446Y15722119D01*
X10228141Y15722074D01*
X10239183Y15722059D01*
X10250227Y15722076D01*
X10261743Y15722128D01*
X10273731Y15722214D01*
X10286192Y15722334D01*
X10299125Y15722488D01*
X10312530Y15722677D01*
X10326408Y15722901D01*
X10340758Y15723158D01*
X10350586Y15723349D01*
X10360625Y15723555D01*
X10370874Y15723776D01*
X10381332Y15724013D01*
X10391780Y15724279D01*
X10401998Y15724528D01*
X10411984Y15724760D01*
X10426530Y15725076D01*
X10440557Y15725353D01*
X10454065Y15725591D01*
X10467053Y15725791D01*
X10479522Y15725952D01*
X10491471Y15726074D01*
X10502900Y15726158D01*
X10513810Y15726203D01*
X10520795Y15726211D01*
X10535023Y15726151D01*
G37*
G36*
X42078890Y13769756D02*
G01*
X42080207Y13783134D01*
X42081503Y13796614D01*
X42082778Y13810197D01*
X42084030Y13823883D01*
X42085262Y13837671D01*
X42086472Y13851561D01*
X42087660Y13865555D01*
X42088828Y13879650D01*
X42089973Y13893849D01*
X42091097Y13908149D01*
X42092200Y13922553D01*
X42093281Y13937059D01*
X42094341Y13951667D01*
X42095379Y13966378D01*
X42096396Y13981192D01*
X42097391Y13996108D01*
X42098365Y14011127D01*
X42099318Y14026248D01*
X42100249Y14041472D01*
X42101158Y14056799D01*
X42102046Y14072228D01*
X42102913Y14087759D01*
X42103758Y14103394D01*
X42104581Y14119130D01*
X42105383Y14134970D01*
X42106164Y14150912D01*
X42106923Y14166956D01*
X42107661Y14183103D01*
X42108377Y14199352D01*
X42109072Y14215705D01*
X42109745Y14232159D01*
X42110397Y14248716D01*
X42111043Y14265285D01*
X42111669Y14281742D01*
X42112274Y14298088D01*
X42112859Y14314322D01*
X42113423Y14330446D01*
X42113966Y14346458D01*
X42114490Y14362360D01*
X42114992Y14378150D01*
X42115474Y14393829D01*
X42115936Y14409397D01*
X42116377Y14424853D01*
X42116797Y14440199D01*
X42117197Y14455433D01*
X42117577Y14470557D01*
X42117936Y14485569D01*
X42118274Y14500470D01*
X42118592Y14515260D01*
X42118889Y14529938D01*
X42119166Y14544506D01*
X42119423Y14558962D01*
X42119659Y14573307D01*
X42119874Y14587541D01*
X42120069Y14601664D01*
X42120243Y14615676D01*
X42120397Y14629577D01*
X42120530Y14643366D01*
X42120643Y14657044D01*
X42120736Y14670612D01*
X42120807Y14684068D01*
X42120859Y14697413D01*
X42120889Y14710646D01*
X42120900Y14723769D01*
X42132060Y14723562D01*
X42142946Y14723368D01*
X42153561Y14723188D01*
X42163902Y14723021D01*
X42173970Y14722867D01*
X42183766Y14722727D01*
X42197947Y14722542D01*
X42211515Y14722386D01*
X42224468Y14722261D01*
X42236808Y14722166D01*
X42248534Y14722101D01*
X42259646Y14722066D01*
X42266713Y14722059D01*
X42277867Y14722076D01*
X42288984Y14722128D01*
X42300061Y14722214D01*
X42311100Y14722334D01*
X42322100Y14722488D01*
X42333062Y14722677D01*
X42343985Y14722901D01*
X42354869Y14723158D01*
X42365715Y14723450D01*
X42376522Y14723776D01*
X42383705Y14724013D01*
X42394525Y14724406D01*
X42405461Y14724760D01*
X42416513Y14725076D01*
X42427680Y14725353D01*
X42438964Y14725591D01*
X42450363Y14725791D01*
X42461879Y14725952D01*
X42473510Y14726074D01*
X42485257Y14726158D01*
X42497121Y14726203D01*
X42505094Y14726211D01*
X42515073Y14726176D01*
X42524923Y14726070D01*
X42539455Y14725779D01*
X42553694Y14725329D01*
X42567642Y14724720D01*
X42581297Y14723952D01*
X42594661Y14723025D01*
X42607733Y14721940D01*
X42620513Y14720696D01*
X42633001Y14719292D01*
X42645197Y14717730D01*
X42649197Y14717174D01*
X42661075Y14715313D01*
X42672713Y14713027D01*
X42684110Y14710316D01*
X42695267Y14707179D01*
X42706184Y14703618D01*
X42716860Y14699632D01*
X42727296Y14695220D01*
X42737491Y14690384D01*
X42747446Y14685122D01*
X42757160Y14679436D01*
X42763503Y14675409D01*
X42772755Y14669145D01*
X42781552Y14662629D01*
X42789894Y14655859D01*
X42797781Y14648836D01*
X42805212Y14641559D01*
X42812189Y14634030D01*
X42818711Y14626247D01*
X42824777Y14618210D01*
X42830388Y14609920D01*
X42835545Y14601377D01*
X42838729Y14595541D01*
X42843138Y14586572D01*
X42847113Y14577340D01*
X42850654Y14567847D01*
X42853762Y14558092D01*
X42856436Y14548075D01*
X42858676Y14537796D01*
X42860483Y14527255D01*
X42861856Y14516452D01*
X42862796Y14505388D01*
X42863302Y14494061D01*
X42863398Y14486365D01*
X42863171Y14474248D01*
X42862492Y14462322D01*
X42861359Y14450587D01*
X42859772Y14439043D01*
X42857733Y14427689D01*
X42855241Y14416527D01*
X42854117Y14412115D01*
X42851066Y14401225D01*
X42847562Y14390539D01*
X42843605Y14380054D01*
X42839195Y14369773D01*
X42834332Y14359695D01*
X42829015Y14349819D01*
X42826762Y14345925D01*
X42820952Y14336417D01*
X42814821Y14327278D01*
X42808368Y14318509D01*
X42801593Y14310109D01*
X42794496Y14302079D01*
X42787077Y14294419D01*
X42784019Y14291459D01*
X42776316Y14284370D01*
X42768625Y14277758D01*
X42760946Y14271624D01*
X42751747Y14264892D01*
X42742565Y14258847D01*
X42734926Y14254334D01*
X42725544Y14249342D01*
X42715715Y14244625D01*
X42705440Y14240183D01*
X42694718Y14236016D01*
X42685442Y14232753D01*
X42679727Y14230887D01*
X42669842Y14227874D01*
X42659420Y14224790D01*
X42648461Y14221635D01*
X42636966Y14218407D01*
X42627383Y14215774D01*
X42617457Y14213095D01*
X42607187Y14210370D01*
X42649441Y14126839D01*
X42654054Y14117982D01*
X42659376Y14107897D01*
X42665406Y14096584D01*
X42672144Y14084043D01*
X42677030Y14075001D01*
X42682231Y14065412D01*
X42687746Y14055278D01*
X42693577Y14044598D01*
X42699722Y14033373D01*
X42706182Y14021601D01*
X42712957Y14009284D01*
X42720046Y13996421D01*
X42727451Y13983013D01*
X42735170Y13969058D01*
X42804535Y13845227D01*
X42809898Y13835209D01*
X42814780Y13825853D01*
X42819665Y13816419D01*
X42825420Y13805253D01*
X42830307Y13795741D01*
X42835684Y13785254D01*
X42841550Y13773793D01*
X42843614Y13769756D01*
X42831797Y13769963D01*
X42820526Y13770157D01*
X42809800Y13770337D01*
X42799620Y13770504D01*
X42785373Y13770730D01*
X42772355Y13770925D01*
X42760564Y13771090D01*
X42750001Y13771226D01*
X42737827Y13771359D01*
X42727836Y13771439D01*
X42720027Y13771466D01*
X42708376Y13771430D01*
X42697114Y13771350D01*
X42684127Y13771224D01*
X42673255Y13771100D01*
X42661412Y13770949D01*
X42648600Y13770773D01*
X42634817Y13770572D01*
X42620063Y13770344D01*
X42609689Y13770178D01*
X42598883Y13770000D01*
X42520725Y13961975D01*
X42515592Y13972852D01*
X42510208Y13984232D01*
X42506004Y13993098D01*
X42501658Y14002247D01*
X42497171Y14011679D01*
X42492542Y14021395D01*
X42487771Y14031394D01*
X42482859Y14041677D01*
X42477805Y14052243D01*
X42472609Y14063092D01*
X42389567Y14234062D01*
X42384295Y14244463D01*
X42378983Y14255309D01*
X42374132Y14265410D01*
X42368748Y14276779D01*
X42364358Y14286137D01*
X42359669Y14296208D01*
X42354678Y14306991D01*
X42349387Y14318487D01*
X42347557Y14322478D01*
X42358922Y14318724D01*
X42369845Y14315339D01*
X42380326Y14312324D01*
X42390364Y14309678D01*
X42399961Y14307401D01*
X42412068Y14304940D01*
X42423389Y14303134D01*
X42433924Y14301986D01*
X42445987Y14301473D01*
X42456700Y14301632D01*
X42467225Y14302108D01*
X42477560Y14302903D01*
X42487707Y14304015D01*
X42497664Y14305444D01*
X42507433Y14307192D01*
X42517013Y14309257D01*
X42529492Y14312504D01*
X42541636Y14316317D01*
X42550523Y14319547D01*
X42561899Y14324367D01*
X42572581Y14329790D01*
X42582568Y14335816D01*
X42591861Y14342445D01*
X42600459Y14349677D01*
X42608363Y14357511D01*
X42615572Y14365949D01*
X42622086Y14374990D01*
X42627925Y14384493D01*
X42632985Y14394194D01*
X42637267Y14404093D01*
X42640771Y14414191D01*
X42643495Y14424487D01*
X42645442Y14434982D01*
X42646610Y14445675D01*
X42646999Y14456567D01*
X42646630Y14466396D01*
X42645265Y14477472D01*
X42642896Y14488128D01*
X42639522Y14498363D01*
X42636496Y14505416D01*
X42631200Y14514919D01*
X42624502Y14523768D01*
X42617644Y14530832D01*
X42609756Y14537415D01*
X42600837Y14543518D01*
X42591100Y14549076D01*
X42580572Y14553844D01*
X42571196Y14557215D01*
X42561271Y14560036D01*
X42550798Y14562310D01*
X42539776Y14564034D01*
X42528538Y14565371D01*
X42517265Y14566481D01*
X42505955Y14567365D01*
X42494610Y14568022D01*
X42483229Y14568453D01*
X42471813Y14568656D01*
X42467236Y14568675D01*
X42456031Y14568629D01*
X42444675Y14568514D01*
X42433787Y14568359D01*
X42423900Y14568191D01*
X42413274Y14567987D01*
X42411060Y14567942D01*
X42399696Y14567731D01*
X42387891Y14567555D01*
X42375644Y14567416D01*
X42365529Y14567330D01*
X42355131Y14567267D01*
X42344451Y14567227D01*
X42333489Y14567210D01*
X42330704Y14567209D01*
X42318492Y14292680D01*
X42305303Y13770000D01*
X42191242Y13771466D01*
X42179552Y13771406D01*
X42169355Y13771299D01*
X42157235Y13771139D01*
X42146882Y13770983D01*
X42135447Y13770798D01*
X42122931Y13770583D01*
X42109333Y13770337D01*
X42094652Y13770062D01*
X42084264Y13769861D01*
X42078890Y13769756D01*
G37*
G36*
X42965003Y13770000D02*
G01*
X42966587Y13787622D01*
X42968102Y13804767D01*
X42969548Y13821435D01*
X42970926Y13837625D01*
X42972235Y13853339D01*
X42973475Y13868575D01*
X42974647Y13883335D01*
X42975750Y13897617D01*
X42976784Y13911423D01*
X42977749Y13924751D01*
X42978646Y13937603D01*
X42979474Y13949977D01*
X42980234Y13961874D01*
X42980925Y13973295D01*
X42981547Y13984238D01*
X42982100Y13994704D01*
X42983049Y14012233D01*
X42984004Y14030688D01*
X42984965Y14050068D01*
X42985448Y14060105D01*
X42985932Y14070373D01*
X42986417Y14080873D01*
X42986904Y14091604D01*
X42987392Y14102567D01*
X42987882Y14113761D01*
X42988373Y14125186D01*
X42988865Y14136843D01*
X42989359Y14148731D01*
X42989855Y14160850D01*
X42990352Y14173201D01*
X42990850Y14185783D01*
X42991349Y14198596D01*
X42991851Y14211641D01*
X42992353Y14224917D01*
X42992857Y14238425D01*
X42993363Y14252164D01*
X42993869Y14266134D01*
X42994378Y14280336D01*
X42994887Y14294769D01*
X42995399Y14309433D01*
X42995911Y14324329D01*
X42996425Y14339456D01*
X42996941Y14354814D01*
X42997457Y14370404D01*
X42997976Y14386225D01*
X42998351Y14397871D01*
X42998715Y14409301D01*
X42999067Y14420515D01*
X42999407Y14431513D01*
X42999735Y14442295D01*
X43000051Y14452861D01*
X43000355Y14463210D01*
X43000647Y14473344D01*
X43000927Y14483261D01*
X43001452Y14502447D01*
X43001929Y14520769D01*
X43002359Y14538227D01*
X43002740Y14554820D01*
X43003074Y14570549D01*
X43003360Y14585414D01*
X43003599Y14599414D01*
X43003790Y14612549D01*
X43003933Y14624821D01*
X43004028Y14636228D01*
X43004076Y14646770D01*
X43004082Y14651717D01*
X43004082Y14723525D01*
X43016834Y14723449D01*
X43029474Y14723377D01*
X43042002Y14723306D01*
X43054419Y14723238D01*
X43066724Y14723173D01*
X43078917Y14723110D01*
X43090999Y14723049D01*
X43102970Y14722990D01*
X43114828Y14722934D01*
X43126575Y14722881D01*
X43138211Y14722829D01*
X43149735Y14722780D01*
X43161147Y14722734D01*
X43172447Y14722690D01*
X43183636Y14722648D01*
X43194713Y14722609D01*
X43205679Y14722572D01*
X43216533Y14722537D01*
X43227275Y14722505D01*
X43237906Y14722475D01*
X43248425Y14722448D01*
X43258833Y14722423D01*
X43269129Y14722400D01*
X43279313Y14722380D01*
X43289386Y14722362D01*
X43299347Y14722346D01*
X43309196Y14722333D01*
X43328560Y14722314D01*
X43347477Y14722305D01*
X43356769Y14722303D01*
X43548988Y14722792D01*
X43672330Y14723525D01*
X43671321Y14710306D01*
X43670369Y14697517D01*
X43669474Y14685157D01*
X43668636Y14673226D01*
X43667856Y14661724D01*
X43667132Y14650652D01*
X43666467Y14640010D01*
X43665858Y14629796D01*
X43665306Y14620012D01*
X43664587Y14606141D01*
X43663995Y14593236D01*
X43663533Y14581297D01*
X43663200Y14570324D01*
X43663049Y14563546D01*
X43557048Y14567209D01*
X43517480Y14567698D01*
X43463991Y14567698D01*
X43359455Y14567698D01*
X43224877Y14567209D01*
X43217062Y14332492D01*
X43325750Y14330782D01*
X43342044Y14330785D01*
X43357589Y14330794D01*
X43372384Y14330808D01*
X43386429Y14330828D01*
X43399724Y14330854D01*
X43412269Y14330885D01*
X43424064Y14330922D01*
X43435109Y14330965D01*
X43445405Y14331014D01*
X43459442Y14331098D01*
X43471792Y14331194D01*
X43482454Y14331304D01*
X43494046Y14331470D01*
X43496475Y14331515D01*
X43598569Y14332736D01*
X43597913Y14322164D01*
X43597287Y14311697D01*
X43596691Y14301335D01*
X43596127Y14291077D01*
X43595592Y14280925D01*
X43595088Y14270878D01*
X43594615Y14260935D01*
X43594173Y14251098D01*
X43593566Y14236538D01*
X43593028Y14222215D01*
X43592558Y14208128D01*
X43592158Y14194277D01*
X43591826Y14180662D01*
X43591730Y14176176D01*
X43576044Y14176531D01*
X43560799Y14176863D01*
X43545995Y14177172D01*
X43531631Y14177459D01*
X43517708Y14177722D01*
X43504226Y14177962D01*
X43491185Y14178180D01*
X43478585Y14178375D01*
X43466425Y14178546D01*
X43454706Y14178695D01*
X43443428Y14178821D01*
X43432591Y14178924D01*
X43422194Y14179004D01*
X43412238Y14179061D01*
X43398131Y14179104D01*
X43393649Y14179107D01*
X43382478Y14179098D01*
X43371251Y14179069D01*
X43359969Y14179021D01*
X43348632Y14178955D01*
X43337240Y14178869D01*
X43325792Y14178764D01*
X43314288Y14178640D01*
X43302730Y14178497D01*
X43291116Y14178334D01*
X43279447Y14178153D01*
X43267722Y14177953D01*
X43255942Y14177733D01*
X43244107Y14177495D01*
X43232216Y14177237D01*
X43220270Y14176961D01*
X43208269Y14176665D01*
X43201186Y13875758D01*
X43200453Y13813476D01*
X43200453Y13770000D01*
X43087613Y13771466D01*
X43076836Y13771374D01*
X43066478Y13771260D01*
X43056536Y13771144D01*
X43044731Y13771002D01*
X43031063Y13770835D01*
X43020915Y13770709D01*
X43009939Y13770572D01*
X42998136Y13770423D01*
X42985504Y13770262D01*
X42972044Y13770091D01*
X42965003Y13770000D01*
G37*
D11*
G36*
X41897346Y9523356D02*
G01*
X41910921Y9522849D01*
X41924327Y9522005D01*
X41937563Y9520823D01*
X41950629Y9519303D01*
X41963525Y9517445D01*
X41976251Y9515250D01*
X41988808Y9512717D01*
X42001195Y9509846D01*
X42013412Y9506637D01*
X42025459Y9503091D01*
X42037336Y9499207D01*
X42049043Y9494985D01*
X42060581Y9490426D01*
X42071949Y9485529D01*
X42083147Y9480294D01*
X42094107Y9474681D01*
X42104762Y9468589D01*
X42115112Y9462018D01*
X42125157Y9454969D01*
X42134896Y9447440D01*
X42144330Y9439433D01*
X42153458Y9430946D01*
X42162281Y9421981D01*
X42170799Y9412536D01*
X42179012Y9402613D01*
X42186919Y9392211D01*
X42194521Y9381329D01*
X42201818Y9369969D01*
X42208810Y9358130D01*
X42215496Y9345812D01*
X42221877Y9333015D01*
X42227910Y9319833D01*
X42233555Y9306358D01*
X42238810Y9292592D01*
X42243675Y9278534D01*
X42248152Y9264184D01*
X42252239Y9249541D01*
X42255937Y9234607D01*
X42259246Y9219381D01*
X42262165Y9203863D01*
X42264696Y9188053D01*
X42266836Y9171951D01*
X42268588Y9155557D01*
X42269951Y9138872D01*
X42270924Y9121894D01*
X42271508Y9104624D01*
X42271702Y9087063D01*
X42271583Y9073239D01*
X42271225Y9059429D01*
X42270629Y9045632D01*
X42269794Y9031848D01*
X42268721Y9018078D01*
X42267409Y9004322D01*
X42265859Y8990578D01*
X42264070Y8976848D01*
X42262042Y8963131D01*
X42259776Y8949428D01*
X42257272Y8935738D01*
X42254529Y8922061D01*
X42251547Y8908398D01*
X42248327Y8894748D01*
X42244869Y8881112D01*
X42241172Y8867488D01*
X42237269Y8854069D01*
X42233192Y8840984D01*
X42228942Y8828233D01*
X42224518Y8815816D01*
X42219920Y8803732D01*
X42215149Y8791983D01*
X42210204Y8780567D01*
X42205085Y8769486D01*
X42199793Y8758738D01*
X42194327Y8748324D01*
X42188687Y8738245D01*
X42182874Y8728499D01*
X42176887Y8719087D01*
X42170727Y8710009D01*
X42164393Y8701265D01*
X42157885Y8692855D01*
X42151190Y8684727D01*
X42144234Y8676830D01*
X42137017Y8669164D01*
X42129538Y8661729D01*
X42121797Y8654525D01*
X42113795Y8647551D01*
X42105532Y8640809D01*
X42097008Y8634297D01*
X42088221Y8628017D01*
X42079174Y8621967D01*
X42069865Y8616148D01*
X42060295Y8610560D01*
X42050463Y8605203D01*
X42040370Y8600077D01*
X42030015Y8595181D01*
X42019399Y8590517D01*
X42008637Y8586140D01*
X41997784Y8582045D01*
X41986839Y8578232D01*
X41975802Y8574702D01*
X41964674Y8571455D01*
X41953454Y8568489D01*
X41942142Y8565806D01*
X41930739Y8563406D01*
X41919245Y8561288D01*
X41907658Y8559452D01*
X41895980Y8557899D01*
X41884211Y8556628D01*
X41872350Y8555640D01*
X41860397Y8554934D01*
X41848353Y8554510D01*
X41836217Y8554369D01*
X41825847Y8554473D01*
X41815560Y8554785D01*
X41805354Y8555305D01*
X41795230Y8556033D01*
X41785189Y8556969D01*
X41775229Y8558113D01*
X41765351Y8559465D01*
X41755556Y8561025D01*
X41745843Y8562792D01*
X41736211Y8564768D01*
X41726662Y8566952D01*
X41712492Y8570618D01*
X41698506Y8574752D01*
X41684705Y8579354D01*
X41680146Y8580991D01*
X41666656Y8586277D01*
X41653479Y8592151D01*
X41640615Y8598613D01*
X41628065Y8605664D01*
X41615828Y8613302D01*
X41603905Y8621529D01*
X41592295Y8630344D01*
X41584729Y8636547D01*
X41577303Y8643012D01*
X41570016Y8649738D01*
X41562868Y8656726D01*
X41555859Y8663975D01*
X41552407Y8667698D01*
X41545667Y8675325D01*
X41539184Y8683123D01*
X41532958Y8691093D01*
X41526991Y8699235D01*
X41521280Y8707549D01*
X41515828Y8716035D01*
X41510633Y8724692D01*
X41505696Y8733521D01*
X41501016Y8742522D01*
X41496594Y8751694D01*
X41492429Y8761038D01*
X41488522Y8770554D01*
X41484873Y8780242D01*
X41481481Y8790101D01*
X41478347Y8800133D01*
X41475471Y8810335D01*
X41472809Y8820699D01*
X41470319Y8831150D01*
X41468000Y8841688D01*
X41465853Y8852315D01*
X41463879Y8863029D01*
X41462075Y8873831D01*
X41460444Y8884721D01*
X41458984Y8895698D01*
X41457696Y8906764D01*
X41456580Y8917917D01*
X41455635Y8929158D01*
X41454863Y8940486D01*
X41454261Y8951903D01*
X41453832Y8963407D01*
X41453575Y8974999D01*
X41453568Y8975932D01*
X41727041Y8975932D01*
X41727161Y8962639D01*
X41727522Y8949780D01*
X41728123Y8937354D01*
X41728964Y8925362D01*
X41730046Y8913804D01*
X41731368Y8902679D01*
X41732931Y8891988D01*
X41734734Y8881731D01*
X41736778Y8871907D01*
X41739877Y8859483D01*
X41740718Y8856497D01*
X41744412Y8845045D01*
X41748534Y8834256D01*
X41753083Y8824131D01*
X41758060Y8814671D01*
X41763463Y8805874D01*
X41769295Y8797742D01*
X41777185Y8788510D01*
X41782240Y8783469D01*
X41791167Y8776010D01*
X41800548Y8769816D01*
X41810382Y8764886D01*
X41820670Y8761220D01*
X41831410Y8758818D01*
X41842604Y8757680D01*
X41847208Y8757579D01*
X41857512Y8758129D01*
X41867663Y8759777D01*
X41877662Y8762525D01*
X41887508Y8766372D01*
X41896150Y8771072D01*
X41904979Y8777478D01*
X41912696Y8784327D01*
X41920550Y8792430D01*
X41927200Y8800140D01*
X41928541Y8801787D01*
X41935203Y8810667D01*
X41941602Y8820668D01*
X41946533Y8829476D01*
X41951296Y8839002D01*
X41955890Y8849244D01*
X41960317Y8860205D01*
X41964576Y8871883D01*
X41966643Y8877991D01*
X41969678Y8887326D01*
X41972553Y8896738D01*
X41975270Y8906228D01*
X41977828Y8915795D01*
X41980228Y8925439D01*
X41982468Y8935161D01*
X41984550Y8944960D01*
X41986472Y8954836D01*
X41988236Y8964789D01*
X41989841Y8974820D01*
X41990823Y8981550D01*
X41992176Y8991731D01*
X41993396Y9001943D01*
X41994483Y9012185D01*
X41995437Y9022457D01*
X41996258Y9032758D01*
X41996945Y9043090D01*
X41997500Y9053452D01*
X41997921Y9063844D01*
X41998210Y9074266D01*
X41998365Y9084718D01*
X41998394Y9091703D01*
X41998269Y9105943D01*
X41997891Y9119719D01*
X41997261Y9133031D01*
X41996379Y9145879D01*
X41995246Y9158264D01*
X41993861Y9170185D01*
X41992224Y9181643D01*
X41990334Y9192637D01*
X41988194Y9203167D01*
X41985801Y9213233D01*
X41983156Y9222836D01*
X41978717Y9236371D01*
X41973711Y9248862D01*
X41968138Y9260310D01*
X41966154Y9263894D01*
X41959910Y9273977D01*
X41953266Y9283068D01*
X41946223Y9291168D01*
X41938780Y9298275D01*
X41930938Y9304391D01*
X41919862Y9311003D01*
X41908075Y9315852D01*
X41895578Y9318937D01*
X41885740Y9320094D01*
X41878960Y9320315D01*
X41868981Y9319849D01*
X41857464Y9318063D01*
X41846444Y9314938D01*
X41835923Y9310473D01*
X41825899Y9304668D01*
X41821074Y9301264D01*
X41811773Y9293601D01*
X41803104Y9285116D01*
X41796624Y9277735D01*
X41790549Y9269828D01*
X41784878Y9261394D01*
X41779611Y9252433D01*
X41774749Y9242946D01*
X41772470Y9238005D01*
X41768445Y9228813D01*
X41764613Y9219372D01*
X41760974Y9209682D01*
X41757529Y9199743D01*
X41754277Y9189554D01*
X41751218Y9179117D01*
X41748352Y9168431D01*
X41745679Y9157496D01*
X41743200Y9146312D01*
X41740914Y9134879D01*
X41739497Y9127118D01*
X41737271Y9114086D01*
X41735264Y9100817D01*
X41733476Y9087313D01*
X41731906Y9073572D01*
X41730556Y9059595D01*
X41729425Y9045382D01*
X41728513Y9030933D01*
X41728026Y9021169D01*
X41727637Y9011300D01*
X41727345Y9001326D01*
X41727150Y8991247D01*
X41727053Y8981063D01*
X41727041Y8975932D01*
X41453568Y8975932D01*
X41453489Y8986679D01*
X41453608Y9000859D01*
X41453966Y9015007D01*
X41454562Y9029123D01*
X41455397Y9043206D01*
X41456470Y9057256D01*
X41457782Y9071275D01*
X41459332Y9085260D01*
X41461121Y9099214D01*
X41463149Y9113135D01*
X41465415Y9127023D01*
X41467919Y9140879D01*
X41470662Y9154703D01*
X41473643Y9168494D01*
X41476863Y9182252D01*
X41480322Y9195979D01*
X41484019Y9209673D01*
X41487931Y9223192D01*
X41492033Y9236394D01*
X41496327Y9249280D01*
X41500811Y9261849D01*
X41505486Y9274101D01*
X41510351Y9286037D01*
X41515408Y9297655D01*
X41520655Y9308957D01*
X41526094Y9319942D01*
X41531723Y9330611D01*
X41537543Y9340963D01*
X41543553Y9350998D01*
X41549755Y9360716D01*
X41556147Y9370117D01*
X41562730Y9379202D01*
X41569504Y9387970D01*
X41576483Y9396470D01*
X41583682Y9404689D01*
X41591099Y9412628D01*
X41598737Y9420286D01*
X41606594Y9427664D01*
X41614670Y9434761D01*
X41622966Y9441578D01*
X41631481Y9448115D01*
X41640215Y9454370D01*
X41649169Y9460346D01*
X41658343Y9466041D01*
X41667735Y9471455D01*
X41677348Y9476589D01*
X41687179Y9481442D01*
X41697231Y9486015D01*
X41707501Y9490308D01*
X41717949Y9494330D01*
X41728472Y9498093D01*
X41739069Y9501596D01*
X41749740Y9504840D01*
X41760486Y9507824D01*
X41771306Y9510549D01*
X41782200Y9513015D01*
X41793169Y9515220D01*
X41804213Y9517167D01*
X41815331Y9518853D01*
X41826523Y9520281D01*
X41837790Y9521449D01*
X41849131Y9522357D01*
X41860546Y9523006D01*
X41872036Y9523395D01*
X41883600Y9523525D01*
X41897346Y9523356D01*
G37*
G36*
X42403593Y8570000D02*
G01*
X42402493Y8588176D01*
X42401391Y8605881D01*
X42400287Y8623118D01*
X42399182Y8639884D01*
X42398074Y8656182D01*
X42396964Y8672010D01*
X42395853Y8687369D01*
X42394740Y8702258D01*
X42393624Y8716678D01*
X42392507Y8730628D01*
X42391388Y8744109D01*
X42390267Y8757121D01*
X42389144Y8769663D01*
X42388019Y8781736D01*
X42386892Y8793340D01*
X42385764Y8804474D01*
X42395306Y8801589D01*
X42404791Y8798795D01*
X42414218Y8796093D01*
X42432898Y8790964D01*
X42451348Y8786201D01*
X42469567Y8781805D01*
X42487555Y8777775D01*
X42505313Y8774111D01*
X42522839Y8770814D01*
X42540134Y8767883D01*
X42557199Y8765318D01*
X42574033Y8763120D01*
X42590635Y8761288D01*
X42607007Y8759823D01*
X42623148Y8758724D01*
X42639058Y8757991D01*
X42654738Y8757625D01*
X42662491Y8757579D01*
X42676565Y8757839D01*
X42690120Y8758618D01*
X42703155Y8759917D01*
X42715671Y8761735D01*
X42727667Y8764073D01*
X42739144Y8766930D01*
X42750101Y8770307D01*
X42760539Y8774203D01*
X42770457Y8778618D01*
X42779856Y8783554D01*
X42785833Y8787132D01*
X42794258Y8792895D01*
X42804201Y8801127D01*
X42812671Y8809985D01*
X42819668Y8819468D01*
X42825193Y8829578D01*
X42829244Y8840313D01*
X42831821Y8851674D01*
X42832926Y8863661D01*
X42832972Y8866756D01*
X42832224Y8878556D01*
X42829980Y8889531D01*
X42826240Y8899683D01*
X42821004Y8909010D01*
X42814272Y8917512D01*
X42806045Y8925191D01*
X42796321Y8932045D01*
X42785101Y8938074D01*
X42775700Y8942134D01*
X42765360Y8945794D01*
X42754079Y8949055D01*
X42741858Y8951916D01*
X42728697Y8954378D01*
X42714596Y8956441D01*
X42704672Y8957595D01*
X42694331Y8958571D01*
X42683572Y8959369D01*
X42672395Y8959990D01*
X42660800Y8960434D01*
X42648787Y8960700D01*
X42636357Y8960789D01*
X42624226Y8960789D01*
X42612288Y8960789D01*
X42600544Y8960789D01*
X42588993Y8960789D01*
X42577635Y8960789D01*
X42566470Y8960789D01*
X42555498Y8960789D01*
X42544720Y8960789D01*
X42534135Y8960789D01*
X42523743Y8960789D01*
X42516922Y8960789D01*
X42518100Y8974667D01*
X42519254Y8988518D01*
X42520382Y9002343D01*
X42521486Y9016141D01*
X42522565Y9029912D01*
X42523620Y9043656D01*
X42524649Y9057374D01*
X42525654Y9071065D01*
X42526634Y9084729D01*
X42527589Y9098366D01*
X42528519Y9111977D01*
X42529424Y9125561D01*
X42530305Y9139119D01*
X42531161Y9152649D01*
X42531992Y9166153D01*
X42532798Y9179631D01*
X42545212Y9175967D01*
X42557787Y9172792D01*
X42570522Y9170105D01*
X42580178Y9168411D01*
X42589925Y9166991D01*
X42599762Y9165846D01*
X42609689Y9164976D01*
X42619706Y9164381D01*
X42629813Y9164060D01*
X42636601Y9163999D01*
X42648003Y9164064D01*
X42659035Y9164257D01*
X42669698Y9164579D01*
X42679992Y9165030D01*
X42689917Y9165609D01*
X42702576Y9166582D01*
X42714578Y9167784D01*
X42725924Y9169216D01*
X42736613Y9170876D01*
X42739183Y9171326D01*
X42749132Y9173437D01*
X42760699Y9176687D01*
X42771300Y9180616D01*
X42780935Y9185226D01*
X42789604Y9190515D01*
X42798732Y9197759D01*
X42801465Y9200391D01*
X42808686Y9208580D01*
X42814414Y9217027D01*
X42819207Y9227206D01*
X42821967Y9237737D01*
X42822714Y9247042D01*
X42821661Y9257987D01*
X42818501Y9268352D01*
X42813234Y9278137D01*
X42806898Y9286223D01*
X42805861Y9287342D01*
X42797682Y9294735D01*
X42789387Y9300253D01*
X42779907Y9305016D01*
X42769243Y9309023D01*
X42759450Y9311785D01*
X42755303Y9312743D01*
X42744371Y9314924D01*
X42732639Y9316736D01*
X42722679Y9317919D01*
X42712207Y9318865D01*
X42701223Y9319575D01*
X42689729Y9320048D01*
X42677723Y9320285D01*
X42671528Y9320315D01*
X42660632Y9320269D01*
X42649561Y9320131D01*
X42638315Y9319902D01*
X42626892Y9319582D01*
X42615295Y9319170D01*
X42603521Y9318666D01*
X42591573Y9318071D01*
X42579448Y9317384D01*
X42566690Y9316597D01*
X42556406Y9315858D01*
X42545507Y9314989D01*
X42533994Y9313991D01*
X42521868Y9312865D01*
X42509127Y9311610D01*
X42495773Y9310226D01*
X42481805Y9308713D01*
X42467222Y9307072D01*
X42457160Y9305906D01*
X42446824Y9304683D01*
X42481018Y9462952D01*
X42483094Y9473638D01*
X42484911Y9483288D01*
X42486728Y9493219D01*
X42488544Y9503431D01*
X42489323Y9507893D01*
X42507851Y9509786D01*
X42526188Y9511557D01*
X42544334Y9513205D01*
X42562290Y9514732D01*
X42580055Y9516136D01*
X42597629Y9517419D01*
X42615012Y9518579D01*
X42632205Y9519617D01*
X42649206Y9520533D01*
X42666017Y9521326D01*
X42682637Y9521998D01*
X42699066Y9522548D01*
X42715304Y9522975D01*
X42731352Y9523280D01*
X42747209Y9523464D01*
X42762875Y9523525D01*
X42772957Y9523482D01*
X42782994Y9523353D01*
X42792985Y9523138D01*
X42802930Y9522838D01*
X42812830Y9522451D01*
X42822684Y9521979D01*
X42832491Y9521421D01*
X42842254Y9520777D01*
X42856811Y9519650D01*
X42871265Y9518330D01*
X42885616Y9516816D01*
X42899864Y9515110D01*
X42914009Y9513210D01*
X42918702Y9512534D01*
X42932570Y9510312D01*
X42946056Y9507768D01*
X42959160Y9504902D01*
X42971882Y9501714D01*
X42984221Y9498205D01*
X42996179Y9494373D01*
X43007755Y9490219D01*
X43018948Y9485743D01*
X43029759Y9480945D01*
X43040188Y9475826D01*
X43046929Y9472234D01*
X43056663Y9466584D01*
X43065900Y9460624D01*
X43074638Y9454356D01*
X43082879Y9447779D01*
X43090621Y9440892D01*
X43097865Y9433697D01*
X43104611Y9426192D01*
X43110860Y9418378D01*
X43116610Y9410255D01*
X43121862Y9401823D01*
X43125087Y9396030D01*
X43129583Y9387134D01*
X43133636Y9378032D01*
X43137248Y9368724D01*
X43140417Y9359210D01*
X43143144Y9349490D01*
X43145429Y9339564D01*
X43147271Y9329432D01*
X43148671Y9319093D01*
X43149630Y9308549D01*
X43150145Y9297798D01*
X43150244Y9290517D01*
X43150017Y9279592D01*
X43149337Y9268797D01*
X43148204Y9258134D01*
X43146618Y9247603D01*
X43144579Y9237202D01*
X43142086Y9226933D01*
X43140963Y9222862D01*
X43137818Y9212888D01*
X43134184Y9203117D01*
X43130061Y9193549D01*
X43125449Y9184183D01*
X43120349Y9175021D01*
X43114759Y9166061D01*
X43112386Y9162534D01*
X43106260Y9153988D01*
X43099788Y9145751D01*
X43092970Y9137826D01*
X43085806Y9130210D01*
X43078296Y9122904D01*
X43070440Y9115908D01*
X43067201Y9113197D01*
X43059070Y9106753D01*
X43051011Y9100703D01*
X43043023Y9095047D01*
X43033531Y9088778D01*
X43024143Y9083077D01*
X43016399Y9078758D01*
X43006564Y9073775D01*
X42997477Y9069426D01*
X42987578Y9064898D01*
X42976869Y9060190D01*
X42967717Y9056296D01*
X42958047Y9052287D01*
X42950453Y9049205D01*
X42960967Y9046995D01*
X42970893Y9044763D01*
X42982474Y9041940D01*
X42993137Y9039081D01*
X43002882Y9036187D01*
X43013364Y9032666D01*
X43018108Y9030887D01*
X43027276Y9027014D01*
X43036461Y9022541D01*
X43045663Y9017466D01*
X43054882Y9011790D01*
X43064119Y9005513D01*
X43067201Y9003287D01*
X43076186Y8996378D01*
X43084638Y8989022D01*
X43092558Y8981220D01*
X43099945Y8972971D01*
X43106800Y8964275D01*
X43108967Y8961278D01*
X43115143Y8952013D01*
X43120667Y8942353D01*
X43125539Y8932298D01*
X43129758Y8921848D01*
X43133324Y8911003D01*
X43134368Y8907300D01*
X43137190Y8895980D01*
X43139096Y8886323D01*
X43140596Y8876464D01*
X43141691Y8866402D01*
X43142380Y8856138D01*
X43142664Y8845670D01*
X43142672Y8843552D01*
X43142397Y8831047D01*
X43141573Y8818717D01*
X43140199Y8806563D01*
X43138276Y8794586D01*
X43135803Y8782784D01*
X43132780Y8771158D01*
X43129208Y8759709D01*
X43125087Y8748435D01*
X43120416Y8737338D01*
X43115195Y8726416D01*
X43111409Y8719233D01*
X43105288Y8708730D01*
X43098646Y8698562D01*
X43091486Y8688729D01*
X43083806Y8679230D01*
X43075606Y8670067D01*
X43066887Y8661239D01*
X43057649Y8652745D01*
X43047891Y8644586D01*
X43037613Y8636762D01*
X43026816Y8629273D01*
X43019330Y8624467D01*
X43007770Y8617601D01*
X42995897Y8611109D01*
X42983710Y8604990D01*
X42971210Y8599245D01*
X42958396Y8593873D01*
X42945270Y8588875D01*
X42931829Y8584250D01*
X42918076Y8579999D01*
X42904009Y8576122D01*
X42894456Y8573744D01*
X42884765Y8571533D01*
X42879867Y8570489D01*
X42870032Y8568537D01*
X42860190Y8566711D01*
X42850340Y8565011D01*
X42840483Y8563436D01*
X42830618Y8561988D01*
X42820745Y8560666D01*
X42810864Y8559469D01*
X42800976Y8558399D01*
X42791081Y8557454D01*
X42781178Y8556636D01*
X42771267Y8555943D01*
X42761348Y8555376D01*
X42751422Y8554936D01*
X42741488Y8554621D01*
X42731547Y8554432D01*
X42721598Y8554369D01*
X42707099Y8554399D01*
X42692729Y8554489D01*
X42678488Y8554639D01*
X42664376Y8554850D01*
X42650393Y8555120D01*
X42636538Y8555451D01*
X42622812Y8555842D01*
X42609215Y8556292D01*
X42595747Y8556803D01*
X42582408Y8557374D01*
X42573586Y8557788D01*
X42560140Y8558477D01*
X42546178Y8559260D01*
X42531701Y8560137D01*
X42521763Y8560774D01*
X42511596Y8561453D01*
X42501201Y8562175D01*
X42490576Y8562938D01*
X42479723Y8563743D01*
X42468640Y8564590D01*
X42457329Y8565480D01*
X42445788Y8566411D01*
X42434019Y8567384D01*
X42422020Y8568399D01*
X42409793Y8569456D01*
X42403593Y8570000D01*
G37*
G36*
X43035450Y8241738D02*
G01*
X43177599Y8503566D01*
X43571318Y9241180D01*
X43711514Y9507893D01*
X43721759Y9507631D01*
X43734525Y9507322D01*
X43746267Y9507059D01*
X43756987Y9506841D01*
X43768949Y9506634D01*
X43779313Y9506498D01*
X43789640Y9506429D01*
X43791137Y9506428D01*
X43802718Y9506479D01*
X43813549Y9506601D01*
X43825453Y9506794D01*
X43835749Y9507000D01*
X43846733Y9507252D01*
X43858403Y9507550D01*
X43870760Y9507893D01*
X43300697Y8424188D01*
X43294493Y8412374D01*
X43287786Y8399467D01*
X43283036Y8390253D01*
X43278062Y8380553D01*
X43272865Y8370366D01*
X43267445Y8359693D01*
X43261802Y8348533D01*
X43255935Y8336887D01*
X43249845Y8324754D01*
X43243532Y8312134D01*
X43236996Y8299028D01*
X43230236Y8285436D01*
X43223253Y8271356D01*
X43216047Y8256791D01*
X43208618Y8241738D01*
X43197613Y8241956D01*
X43187311Y8242153D01*
X43174672Y8242382D01*
X43163284Y8242573D01*
X43153148Y8242726D01*
X43142238Y8242863D01*
X43131728Y8242949D01*
X43127529Y8242959D01*
X43116645Y8242883D01*
X43105734Y8242758D01*
X43094730Y8242615D01*
X43081703Y8242433D01*
X43070605Y8242272D01*
X43058370Y8242090D01*
X43044997Y8241886D01*
X43035450Y8241738D01*
G37*
G36*
X44340751Y9523356D02*
G01*
X44354327Y9522849D01*
X44367732Y9522005D01*
X44380968Y9520823D01*
X44394034Y9519303D01*
X44406930Y9517445D01*
X44419657Y9515250D01*
X44432213Y9512717D01*
X44444600Y9509846D01*
X44456817Y9506637D01*
X44468864Y9503091D01*
X44480741Y9499207D01*
X44492449Y9494985D01*
X44503986Y9490426D01*
X44515354Y9485529D01*
X44526552Y9480294D01*
X44537513Y9474681D01*
X44548168Y9468589D01*
X44558517Y9462018D01*
X44568562Y9454969D01*
X44578301Y9447440D01*
X44587735Y9439433D01*
X44596864Y9430946D01*
X44605687Y9421981D01*
X44614205Y9412536D01*
X44622418Y9402613D01*
X44630325Y9392211D01*
X44637927Y9381329D01*
X44645224Y9369969D01*
X44652215Y9358130D01*
X44658901Y9345812D01*
X44665282Y9333015D01*
X44671316Y9319833D01*
X44676960Y9306358D01*
X44682215Y9292592D01*
X44687081Y9278534D01*
X44691557Y9264184D01*
X44695645Y9249541D01*
X44699343Y9234607D01*
X44702651Y9219381D01*
X44705571Y9203863D01*
X44708101Y9188053D01*
X44710242Y9171951D01*
X44711994Y9155557D01*
X44713356Y9138872D01*
X44714329Y9121894D01*
X44714913Y9104624D01*
X44715108Y9087063D01*
X44714988Y9073239D01*
X44714631Y9059429D01*
X44714034Y9045632D01*
X44713200Y9031848D01*
X44712126Y9018078D01*
X44710814Y9004322D01*
X44709264Y8990578D01*
X44707475Y8976848D01*
X44705448Y8963131D01*
X44703182Y8949428D01*
X44700677Y8935738D01*
X44697934Y8922061D01*
X44694953Y8908398D01*
X44691733Y8894748D01*
X44688274Y8881112D01*
X44684577Y8867488D01*
X44680674Y8854069D01*
X44676597Y8840984D01*
X44672347Y8828233D01*
X44667923Y8815816D01*
X44663325Y8803732D01*
X44658554Y8791983D01*
X44653609Y8780567D01*
X44648490Y8769486D01*
X44643198Y8758738D01*
X44637732Y8748324D01*
X44632093Y8738245D01*
X44626280Y8728499D01*
X44620293Y8719087D01*
X44614132Y8710009D01*
X44607798Y8701265D01*
X44601290Y8692855D01*
X44594596Y8684727D01*
X44587640Y8676830D01*
X44580422Y8669164D01*
X44572943Y8661729D01*
X44565203Y8654525D01*
X44557201Y8647551D01*
X44548938Y8640809D01*
X44540413Y8634297D01*
X44531627Y8628017D01*
X44522579Y8621967D01*
X44513271Y8616148D01*
X44503700Y8610560D01*
X44493868Y8605203D01*
X44483775Y8600077D01*
X44473421Y8595181D01*
X44462805Y8590517D01*
X44452043Y8586140D01*
X44441189Y8582045D01*
X44430244Y8578232D01*
X44419207Y8574702D01*
X44408079Y8571455D01*
X44396859Y8568489D01*
X44385548Y8565806D01*
X44374145Y8563406D01*
X44362650Y8561288D01*
X44351064Y8559452D01*
X44339386Y8557899D01*
X44327616Y8556628D01*
X44315755Y8555640D01*
X44303803Y8554934D01*
X44291758Y8554510D01*
X44279623Y8554369D01*
X44269253Y8554473D01*
X44258965Y8554785D01*
X44248759Y8555305D01*
X44238636Y8556033D01*
X44228594Y8556969D01*
X44218634Y8558113D01*
X44208757Y8559465D01*
X44198961Y8561025D01*
X44189248Y8562792D01*
X44179617Y8564768D01*
X44170067Y8566952D01*
X44155897Y8570618D01*
X44141912Y8574752D01*
X44128111Y8579354D01*
X44123551Y8580991D01*
X44110061Y8586277D01*
X44096884Y8592151D01*
X44084021Y8598613D01*
X44071471Y8605664D01*
X44059234Y8613302D01*
X44047311Y8621529D01*
X44035701Y8630344D01*
X44028135Y8636547D01*
X44020708Y8643012D01*
X44013421Y8649738D01*
X44006273Y8656726D01*
X43999265Y8663975D01*
X43995812Y8667698D01*
X43989072Y8675325D01*
X43982589Y8683123D01*
X43976364Y8691093D01*
X43970396Y8699235D01*
X43964686Y8707549D01*
X43959233Y8716035D01*
X43954038Y8724692D01*
X43949101Y8733521D01*
X43944421Y8742522D01*
X43939999Y8751694D01*
X43935835Y8761038D01*
X43931928Y8770554D01*
X43928278Y8780242D01*
X43924887Y8790101D01*
X43921753Y8800133D01*
X43918876Y8810335D01*
X43916214Y8820699D01*
X43913724Y8831150D01*
X43911406Y8841688D01*
X43909259Y8852315D01*
X43907284Y8863029D01*
X43905481Y8873831D01*
X43903849Y8884721D01*
X43902390Y8895698D01*
X43901102Y8906764D01*
X43899985Y8917917D01*
X43899041Y8929158D01*
X43898268Y8940486D01*
X43897667Y8951903D01*
X43897238Y8963407D01*
X43896980Y8974999D01*
X43896973Y8975932D01*
X44170446Y8975932D01*
X44170566Y8962639D01*
X44170927Y8949780D01*
X44171528Y8937354D01*
X44172370Y8925362D01*
X44173451Y8913804D01*
X44174774Y8902679D01*
X44176337Y8891988D01*
X44178140Y8881731D01*
X44180183Y8871907D01*
X44183282Y8859483D01*
X44184124Y8856497D01*
X44187818Y8845045D01*
X44191939Y8834256D01*
X44196489Y8824131D01*
X44201465Y8814671D01*
X44206869Y8805874D01*
X44212700Y8797742D01*
X44220590Y8788510D01*
X44225645Y8783469D01*
X44234573Y8776010D01*
X44243954Y8769816D01*
X44253788Y8764886D01*
X44264075Y8761220D01*
X44274816Y8758818D01*
X44286009Y8757680D01*
X44290614Y8757579D01*
X44300918Y8758129D01*
X44311069Y8759777D01*
X44321068Y8762525D01*
X44330914Y8766372D01*
X44339556Y8771072D01*
X44348385Y8777478D01*
X44356101Y8784327D01*
X44363955Y8792430D01*
X44370605Y8800140D01*
X44371946Y8801787D01*
X44378608Y8810667D01*
X44385008Y8820668D01*
X44389938Y8829476D01*
X44394701Y8839002D01*
X44399296Y8849244D01*
X44403723Y8860205D01*
X44407982Y8871883D01*
X44410048Y8877991D01*
X44413083Y8887326D01*
X44415959Y8896738D01*
X44418676Y8906228D01*
X44421234Y8915795D01*
X44423633Y8925439D01*
X44425874Y8935161D01*
X44427955Y8944960D01*
X44429878Y8954836D01*
X44431642Y8964789D01*
X44433247Y8974820D01*
X44434228Y8981550D01*
X44435582Y8991731D01*
X44436802Y9001943D01*
X44437888Y9012185D01*
X44438842Y9022457D01*
X44439663Y9032758D01*
X44440351Y9043090D01*
X44440905Y9053452D01*
X44441327Y9063844D01*
X44441615Y9074266D01*
X44441770Y9084718D01*
X44441800Y9091703D01*
X44441674Y9105943D01*
X44441296Y9119719D01*
X44440666Y9133031D01*
X44439785Y9145879D01*
X44438651Y9158264D01*
X44437266Y9170185D01*
X44435629Y9181643D01*
X44433740Y9192637D01*
X44431599Y9203167D01*
X44429206Y9213233D01*
X44426561Y9222836D01*
X44422122Y9236371D01*
X44417116Y9248862D01*
X44411543Y9260310D01*
X44409560Y9263894D01*
X44403315Y9273977D01*
X44396671Y9283068D01*
X44389628Y9291168D01*
X44382186Y9298275D01*
X44374344Y9304391D01*
X44363267Y9311003D01*
X44351480Y9315852D01*
X44338984Y9318937D01*
X44329146Y9320094D01*
X44322365Y9320315D01*
X44312387Y9319849D01*
X44300869Y9318063D01*
X44289850Y9314938D01*
X44279328Y9310473D01*
X44269305Y9304668D01*
X44264480Y9301264D01*
X44255179Y9293601D01*
X44246510Y9285116D01*
X44240030Y9277735D01*
X44233954Y9269828D01*
X44228283Y9261394D01*
X44223017Y9252433D01*
X44218155Y9242946D01*
X44215875Y9238005D01*
X44211850Y9228813D01*
X44208018Y9219372D01*
X44204380Y9209682D01*
X44200934Y9199743D01*
X44197682Y9189554D01*
X44194623Y9179117D01*
X44191757Y9168431D01*
X44189085Y9157496D01*
X44186605Y9146312D01*
X44184319Y9134879D01*
X44182903Y9127118D01*
X44180676Y9114086D01*
X44178669Y9100817D01*
X44176881Y9087313D01*
X44175312Y9073572D01*
X44173962Y9059595D01*
X44172830Y9045382D01*
X44171918Y9030933D01*
X44171431Y9021169D01*
X44171042Y9011300D01*
X44170750Y9001326D01*
X44170556Y8991247D01*
X44170458Y8981063D01*
X44170446Y8975932D01*
X43896973Y8975932D01*
X43896894Y8986679D01*
X43897013Y9000859D01*
X43897371Y9015007D01*
X43897967Y9029123D01*
X43898802Y9043206D01*
X43899876Y9057256D01*
X43901187Y9071275D01*
X43902738Y9085260D01*
X43904527Y9099214D01*
X43906554Y9113135D01*
X43908820Y9127023D01*
X43911324Y9140879D01*
X43914067Y9154703D01*
X43917049Y9168494D01*
X43920269Y9182252D01*
X43923727Y9195979D01*
X43927424Y9209673D01*
X43931336Y9223192D01*
X43935439Y9236394D01*
X43939732Y9249280D01*
X43944216Y9261849D01*
X43948891Y9274101D01*
X43953757Y9286037D01*
X43958814Y9297655D01*
X43964061Y9308957D01*
X43969499Y9319942D01*
X43975128Y9330611D01*
X43980948Y9340963D01*
X43986959Y9350998D01*
X43993160Y9360716D01*
X43999552Y9370117D01*
X44006136Y9379202D01*
X44012909Y9387970D01*
X44019889Y9396470D01*
X44027087Y9404689D01*
X44034505Y9412628D01*
X44042142Y9420286D01*
X44049999Y9427664D01*
X44058075Y9434761D01*
X44066371Y9441578D01*
X44074886Y9448115D01*
X44083621Y9454370D01*
X44092575Y9460346D01*
X44101748Y9466041D01*
X44111141Y9471455D01*
X44120753Y9476589D01*
X44130585Y9481442D01*
X44140636Y9486015D01*
X44150907Y9490308D01*
X44161355Y9494330D01*
X44171877Y9498093D01*
X44182474Y9501596D01*
X44193145Y9504840D01*
X44203891Y9507824D01*
X44214711Y9510549D01*
X44225606Y9513015D01*
X44236575Y9515220D01*
X44247618Y9517167D01*
X44258736Y9518853D01*
X44269928Y9520281D01*
X44281195Y9521449D01*
X44292536Y9522357D01*
X44303952Y9523006D01*
X44315441Y9523395D01*
X44327006Y9523525D01*
X44340751Y9523356D01*
G37*
G36*
X44866294Y8570000D02*
G01*
X44871353Y8579677D01*
X44876396Y8589288D01*
X44881421Y8598835D01*
X44886429Y8608316D01*
X44891420Y8617733D01*
X44896393Y8627085D01*
X44901350Y8636372D01*
X44906289Y8645594D01*
X44911211Y8654751D01*
X44916116Y8663843D01*
X44921003Y8672871D01*
X44925874Y8681833D01*
X44930727Y8690731D01*
X44935564Y8699564D01*
X44940383Y8708332D01*
X44945184Y8717035D01*
X44950284Y8726239D01*
X44955935Y8736509D01*
X44962137Y8747847D01*
X44968891Y8760250D01*
X44976197Y8773721D01*
X44984053Y8788258D01*
X44992462Y8803862D01*
X45001421Y8820533D01*
X45006108Y8829268D01*
X45010933Y8838270D01*
X45015895Y8847538D01*
X45020995Y8857074D01*
X45026233Y8866876D01*
X45031609Y8876944D01*
X45037123Y8887279D01*
X45042775Y8897881D01*
X45048564Y8908750D01*
X45054492Y8919885D01*
X45060557Y8931287D01*
X45066760Y8942956D01*
X45073101Y8954891D01*
X45079580Y8967093D01*
X45086197Y8979561D01*
X45092951Y8992296D01*
X45214340Y9222862D01*
X45219586Y9233106D01*
X45224837Y9243439D01*
X45229614Y9252883D01*
X45234901Y9263372D01*
X45240700Y9274907D01*
X45245385Y9284244D01*
X45250357Y9294169D01*
X45255617Y9304683D01*
X45244552Y9304814D01*
X45233982Y9304932D01*
X45223904Y9305037D01*
X45211236Y9305157D01*
X45199446Y9305255D01*
X45188533Y9305329D01*
X45178498Y9305381D01*
X45167189Y9305413D01*
X45163049Y9305416D01*
X45145001Y9305352D01*
X45126760Y9305160D01*
X45108326Y9304840D01*
X45089700Y9304393D01*
X45070881Y9303818D01*
X45051869Y9303114D01*
X45032664Y9302283D01*
X45013267Y9301325D01*
X45003496Y9300797D01*
X44993677Y9300238D01*
X44983810Y9299647D01*
X44973894Y9299023D01*
X44963931Y9298368D01*
X44953919Y9297681D01*
X44943859Y9296962D01*
X44933751Y9296211D01*
X44923594Y9295428D01*
X44913390Y9294613D01*
X44903137Y9293766D01*
X44892836Y9292887D01*
X44882487Y9291976D01*
X44872090Y9291033D01*
X44861645Y9290058D01*
X44851151Y9289051D01*
X44851990Y9301012D01*
X44852796Y9313201D01*
X44853570Y9325619D01*
X44854311Y9338266D01*
X44855020Y9351143D01*
X44855696Y9364248D01*
X44856340Y9377582D01*
X44856952Y9391145D01*
X44857531Y9404937D01*
X44858078Y9418958D01*
X44858592Y9433208D01*
X44859074Y9447687D01*
X44859523Y9462395D01*
X44859940Y9477332D01*
X44860324Y9492498D01*
X44860676Y9507893D01*
X45599267Y9507893D01*
X45588764Y9289051D01*
X45424633Y8974467D01*
X45320097Y8768081D01*
X45314838Y8757175D01*
X45309503Y8746073D01*
X45304092Y8734774D01*
X45298604Y8723278D01*
X45293040Y8711586D01*
X45287399Y8699697D01*
X45281682Y8687612D01*
X45275889Y8675330D01*
X45270020Y8662852D01*
X45264074Y8650177D01*
X45258052Y8637306D01*
X45251953Y8624238D01*
X45245779Y8610973D01*
X45239528Y8597512D01*
X45233200Y8583855D01*
X45226796Y8570000D01*
X44866294Y8570000D01*
G37*
G36*
X41467411Y10570000D02*
G01*
X41469008Y10585019D01*
X41470563Y10599848D01*
X41472076Y10614488D01*
X41473547Y10628939D01*
X41474976Y10643202D01*
X41476364Y10657275D01*
X41477709Y10671160D01*
X41479012Y10684856D01*
X41480273Y10698363D01*
X41481493Y10711680D01*
X41482670Y10724809D01*
X41483805Y10737750D01*
X41484899Y10750501D01*
X41485950Y10763063D01*
X41486959Y10775436D01*
X41487927Y10787621D01*
X41488865Y10799862D01*
X41489785Y10812343D01*
X41490689Y10825064D01*
X41491575Y10838026D01*
X41492444Y10851229D01*
X41493296Y10864672D01*
X41494131Y10878355D01*
X41494949Y10892279D01*
X41495749Y10906443D01*
X41496533Y10920848D01*
X41497299Y10935493D01*
X41498048Y10950378D01*
X41498780Y10965504D01*
X41499494Y10980870D01*
X41500192Y10996477D01*
X41500872Y11012324D01*
X41501563Y11028377D01*
X41502230Y11044538D01*
X41502875Y11060807D01*
X41503497Y11077186D01*
X41504097Y11093673D01*
X41504673Y11110269D01*
X41505226Y11126974D01*
X41505757Y11143788D01*
X41506264Y11160710D01*
X41506749Y11177742D01*
X41507211Y11194882D01*
X41507650Y11212130D01*
X41508066Y11229488D01*
X41508459Y11246954D01*
X41508829Y11264529D01*
X41509176Y11282213D01*
X41509501Y11299724D01*
X41509806Y11316781D01*
X41510089Y11333383D01*
X41510351Y11349532D01*
X41510593Y11365227D01*
X41510813Y11380467D01*
X41511013Y11395253D01*
X41511191Y11409585D01*
X41511348Y11423463D01*
X41511485Y11436887D01*
X41511600Y11449857D01*
X41511695Y11462372D01*
X41511768Y11474434D01*
X41511821Y11486041D01*
X41511852Y11497194D01*
X41511863Y11507893D01*
X41522480Y11507656D01*
X41532837Y11507435D01*
X41542935Y11507229D01*
X41552773Y11507038D01*
X41567044Y11506781D01*
X41580732Y11506557D01*
X41593835Y11506368D01*
X41606354Y11506214D01*
X41618290Y11506094D01*
X41629641Y11506008D01*
X41640409Y11505956D01*
X41650593Y11505939D01*
X41661107Y11505965D01*
X41672042Y11506042D01*
X41683398Y11506171D01*
X41695175Y11506351D01*
X41707372Y11506583D01*
X41719990Y11506866D01*
X41733029Y11507201D01*
X41746489Y11507588D01*
X41760369Y11508026D01*
X41774670Y11508515D01*
X41784438Y11508870D01*
X41794313Y11509254D01*
X41804157Y11509614D01*
X41813967Y11509949D01*
X41823746Y11510259D01*
X41838352Y11510678D01*
X41852886Y11511041D01*
X41867347Y11511347D01*
X41881734Y11511599D01*
X41896049Y11511794D01*
X41910291Y11511934D01*
X41924459Y11512017D01*
X41938555Y11512045D01*
X41949471Y11512018D01*
X41960235Y11511938D01*
X41970849Y11511805D01*
X41981313Y11511618D01*
X41991625Y11511377D01*
X42001787Y11511083D01*
X42011798Y11510736D01*
X42021659Y11510335D01*
X42036166Y11509634D01*
X42050335Y11508813D01*
X42064165Y11507871D01*
X42077655Y11506809D01*
X42090806Y11505627D01*
X42095115Y11505206D01*
X42107853Y11503886D01*
X42120302Y11502245D01*
X42132461Y11500283D01*
X42144330Y11498001D01*
X42155908Y11495398D01*
X42167197Y11492475D01*
X42178195Y11489231D01*
X42188904Y11485667D01*
X42199258Y11481839D01*
X42209191Y11477805D01*
X42218705Y11473565D01*
X42227800Y11469119D01*
X42236474Y11464467D01*
X42246727Y11458363D01*
X42256324Y11451936D01*
X42259979Y11449275D01*
X42268752Y11442509D01*
X42277061Y11435493D01*
X42284905Y11428227D01*
X42292283Y11420710D01*
X42299197Y11412942D01*
X42305645Y11404925D01*
X42308094Y11401647D01*
X42313909Y11393178D01*
X42319295Y11384255D01*
X42324252Y11374878D01*
X42328779Y11365049D01*
X42332876Y11354767D01*
X42336545Y11344031D01*
X42337892Y11339610D01*
X42340988Y11328411D01*
X42343559Y11316950D01*
X42345606Y11305227D01*
X42347127Y11293242D01*
X42347967Y11283464D01*
X42348471Y11273519D01*
X42348639Y11263406D01*
X42348456Y11252194D01*
X42347906Y11241149D01*
X42346990Y11230273D01*
X42345708Y11219564D01*
X42344059Y11209024D01*
X42342044Y11198651D01*
X42339663Y11188446D01*
X42336915Y11178409D01*
X42333774Y11168590D01*
X42330214Y11158916D01*
X42326233Y11149387D01*
X42321833Y11140002D01*
X42317013Y11130763D01*
X42311773Y11121669D01*
X42306114Y11112720D01*
X42300034Y11103915D01*
X42293600Y11095390D01*
X42286754Y11087154D01*
X42279495Y11079209D01*
X42271824Y11071553D01*
X42263741Y11064188D01*
X42255246Y11057112D01*
X42246339Y11050327D01*
X42237020Y11043832D01*
X42227017Y11037466D01*
X42216061Y11031070D01*
X42207217Y11026253D01*
X42197837Y11021419D01*
X42187920Y11016567D01*
X42177466Y11011698D01*
X42166476Y11006813D01*
X42154949Y11001910D01*
X42142886Y10996989D01*
X42130286Y10992052D01*
X42165945Y10903148D01*
X42169761Y10893847D01*
X42173639Y10884509D01*
X42177577Y10875132D01*
X42181577Y10865718D01*
X42185637Y10856265D01*
X42189759Y10846773D01*
X42193941Y10837244D01*
X42198185Y10827677D01*
X42290265Y10622513D01*
X42294472Y10612928D01*
X42298813Y10602668D01*
X42303278Y10591920D01*
X42307524Y10581587D01*
X42311264Y10572418D01*
X42312247Y10570000D01*
X42298370Y10570178D01*
X42285075Y10570344D01*
X42272359Y10570499D01*
X42260223Y10570642D01*
X42248667Y10570773D01*
X42237691Y10570894D01*
X42227296Y10571002D01*
X42217480Y10571100D01*
X42203845Y10571224D01*
X42191514Y10571323D01*
X42180489Y10571396D01*
X42167819Y10571453D01*
X42159839Y10571466D01*
X42149989Y10571453D01*
X42139031Y10571414D01*
X42126965Y10571350D01*
X42113792Y10571260D01*
X42099511Y10571144D01*
X42089374Y10571052D01*
X42078746Y10570949D01*
X42067625Y10570835D01*
X42056012Y10570709D01*
X42043907Y10570572D01*
X42031310Y10570423D01*
X42018220Y10570262D01*
X42004637Y10570091D01*
X41997662Y10570000D01*
X41994635Y10579999D01*
X41991052Y10591921D01*
X41987999Y10602125D01*
X41984632Y10613411D01*
X41980952Y10625779D01*
X41976958Y10639228D01*
X41974122Y10648796D01*
X41971146Y10658844D01*
X41968031Y10669373D01*
X41964777Y10680383D01*
X41961383Y10691874D01*
X41957850Y10703846D01*
X41954973Y10713810D01*
X41952202Y10723187D01*
X41948889Y10734081D01*
X41945743Y10744057D01*
X41942188Y10754816D01*
X41938874Y10764253D01*
X41937822Y10767104D01*
X41934614Y10776659D01*
X41931128Y10786914D01*
X41927362Y10797868D01*
X41923317Y10809523D01*
X41918992Y10821877D01*
X41914389Y10834931D01*
X41909507Y10848684D01*
X41906097Y10858242D01*
X41902563Y10868111D01*
X41898905Y10878291D01*
X41895123Y10888782D01*
X41891217Y10899584D01*
X41889218Y10905102D01*
X41818387Y11101473D01*
X41829953Y11101473D01*
X41841447Y11101473D01*
X41852870Y11101473D01*
X41864221Y11101473D01*
X41875501Y11101473D01*
X41886709Y11101473D01*
X41891172Y11101473D01*
X41903602Y11101702D01*
X41915734Y11102389D01*
X41927568Y11103534D01*
X41939105Y11105137D01*
X41950344Y11107197D01*
X41961285Y11109716D01*
X41971928Y11112693D01*
X41982274Y11116128D01*
X41992162Y11120100D01*
X42001432Y11124569D01*
X42010084Y11129534D01*
X42020029Y11136438D01*
X42029008Y11144117D01*
X42037021Y11152571D01*
X42044068Y11161801D01*
X42050119Y11171495D01*
X42055145Y11181345D01*
X42059145Y11191350D01*
X42062119Y11201509D01*
X42064068Y11211824D01*
X42064991Y11222294D01*
X42065073Y11226525D01*
X42064515Y11237084D01*
X42062840Y11247145D01*
X42060050Y11256707D01*
X42056143Y11265772D01*
X42051119Y11274339D01*
X42049197Y11277084D01*
X42042683Y11284849D01*
X42034863Y11291841D01*
X42025738Y11298061D01*
X42015308Y11303508D01*
X42005620Y11307456D01*
X41999371Y11309568D01*
X41987862Y11312664D01*
X41977357Y11314763D01*
X41965701Y11316526D01*
X41952891Y11317953D01*
X41942528Y11318803D01*
X41931516Y11319464D01*
X41919856Y11319937D01*
X41907548Y11320220D01*
X41894591Y11320315D01*
X41884026Y11320268D01*
X41873273Y11320128D01*
X41862334Y11319894D01*
X41851208Y11319567D01*
X41844766Y11319338D01*
X41834840Y11318980D01*
X41824295Y11318639D01*
X41813132Y11318316D01*
X41803358Y11318059D01*
X41793154Y11317815D01*
X41784682Y11317628D01*
X41783590Y11299616D01*
X41782511Y11281117D01*
X41781445Y11262132D01*
X41780392Y11242661D01*
X41779871Y11232742D01*
X41779353Y11222702D01*
X41778839Y11212541D01*
X41778328Y11202257D01*
X41777820Y11191853D01*
X41777316Y11181326D01*
X41776814Y11170678D01*
X41776317Y11159908D01*
X41775822Y11149017D01*
X41775331Y11138003D01*
X41774843Y11126869D01*
X41774359Y11115612D01*
X41773878Y11104234D01*
X41773400Y11092735D01*
X41772926Y11081113D01*
X41772455Y11069370D01*
X41771987Y11057506D01*
X41771522Y11045519D01*
X41771061Y11033411D01*
X41770604Y11021182D01*
X41770149Y11008831D01*
X41769698Y10996358D01*
X41769251Y10983763D01*
X41768806Y10971047D01*
X41768384Y10958293D01*
X41767970Y10945552D01*
X41767567Y10932827D01*
X41767173Y10920115D01*
X41766788Y10907418D01*
X41766413Y10894735D01*
X41766048Y10882066D01*
X41765692Y10869412D01*
X41765346Y10856772D01*
X41765009Y10844146D01*
X41764682Y10831535D01*
X41764364Y10818937D01*
X41764056Y10806355D01*
X41763757Y10793786D01*
X41763468Y10781232D01*
X41763189Y10768692D01*
X41762919Y10756167D01*
X41762658Y10743655D01*
X41762407Y10731158D01*
X41762166Y10718676D01*
X41761934Y10706207D01*
X41761712Y10693753D01*
X41761499Y10681314D01*
X41761296Y10668888D01*
X41761102Y10656477D01*
X41760918Y10644081D01*
X41760743Y10631698D01*
X41760578Y10619330D01*
X41760423Y10606976D01*
X41760277Y10594637D01*
X41760140Y10582311D01*
X41760013Y10570000D01*
X41745979Y10570178D01*
X41732574Y10570344D01*
X41719799Y10570499D01*
X41707654Y10570642D01*
X41696138Y10570773D01*
X41685252Y10570894D01*
X41674996Y10571002D01*
X41660792Y10571144D01*
X41648005Y10571260D01*
X41636635Y10571350D01*
X41626682Y10571414D01*
X41615614Y10571460D01*
X41611025Y10571466D01*
X41600073Y10571443D01*
X41587120Y10571374D01*
X41576093Y10571293D01*
X41563942Y10571185D01*
X41550665Y10571052D01*
X41536264Y10570894D01*
X41526038Y10570773D01*
X41515313Y10570642D01*
X41504087Y10570499D01*
X41492361Y10570344D01*
X41480136Y10570178D01*
X41467411Y10570000D01*
G37*
G36*
X42448778Y10570000D02*
G01*
X42449838Y10581026D01*
X42450879Y10591939D01*
X42451902Y10602739D01*
X42452908Y10613426D01*
X42453895Y10624000D01*
X42454863Y10634461D01*
X42455814Y10644808D01*
X42456747Y10655043D01*
X42457661Y10665164D01*
X42458558Y10675173D01*
X42459436Y10685068D01*
X42460296Y10694851D01*
X42461962Y10714076D01*
X42463555Y10732849D01*
X42465076Y10751170D01*
X42466524Y10769039D01*
X42467900Y10786456D01*
X42469203Y10803420D01*
X42470434Y10819932D01*
X42471592Y10835992D01*
X42472678Y10851600D01*
X42473691Y10866756D01*
X42474698Y10882022D01*
X42475702Y10897900D01*
X42476705Y10914392D01*
X42477706Y10931495D01*
X42478705Y10949211D01*
X42479702Y10967540D01*
X42480697Y10986481D01*
X42481690Y11006035D01*
X42482186Y11016042D01*
X42482681Y11026201D01*
X42483176Y11036514D01*
X42483671Y11046980D01*
X42484165Y11057599D01*
X42484658Y11068371D01*
X42485151Y11079297D01*
X42485644Y11090375D01*
X42486136Y11101607D01*
X42486627Y11112991D01*
X42487118Y11124529D01*
X42487609Y11136220D01*
X42488099Y11148064D01*
X42488589Y11160062D01*
X42489078Y11172212D01*
X42489567Y11184516D01*
X42490063Y11196780D01*
X42490543Y11208783D01*
X42491007Y11220525D01*
X42491456Y11232005D01*
X42491889Y11243224D01*
X42492306Y11254182D01*
X42492707Y11264878D01*
X42493093Y11275313D01*
X42493463Y11285486D01*
X42493817Y11295398D01*
X42494478Y11314437D01*
X42495077Y11332431D01*
X42495612Y11349379D01*
X42496084Y11365282D01*
X42496493Y11380139D01*
X42496840Y11393950D01*
X42497123Y11406715D01*
X42497343Y11418435D01*
X42497501Y11429109D01*
X42497619Y11443160D01*
X42497627Y11447321D01*
X42496894Y11507893D01*
X42507097Y11507803D01*
X42517432Y11507716D01*
X42527899Y11507631D01*
X42538499Y11507550D01*
X42549232Y11507471D01*
X42560098Y11507395D01*
X42571096Y11507322D01*
X42582226Y11507252D01*
X42593490Y11507185D01*
X42604886Y11507120D01*
X42616414Y11507059D01*
X42628075Y11507000D01*
X42639869Y11506944D01*
X42651796Y11506891D01*
X42663855Y11506841D01*
X42676046Y11506794D01*
X42688371Y11506750D01*
X42700827Y11506708D01*
X42713417Y11506669D01*
X42726139Y11506634D01*
X42738994Y11506601D01*
X42751981Y11506571D01*
X42765101Y11506543D01*
X42778353Y11506519D01*
X42791739Y11506498D01*
X42805256Y11506479D01*
X42818907Y11506463D01*
X42832690Y11506450D01*
X42846606Y11506440D01*
X42860654Y11506433D01*
X42874835Y11506429D01*
X42889148Y11506428D01*
X42902365Y11506429D01*
X42915483Y11506433D01*
X42928504Y11506440D01*
X42941428Y11506450D01*
X42954253Y11506463D01*
X42966981Y11506479D01*
X42979610Y11506498D01*
X42992142Y11506519D01*
X43004576Y11506543D01*
X43016913Y11506571D01*
X43029152Y11506601D01*
X43041292Y11506634D01*
X43053335Y11506669D01*
X43065281Y11506708D01*
X43077128Y11506750D01*
X43088878Y11506794D01*
X43100530Y11506841D01*
X43112084Y11506891D01*
X43123540Y11506944D01*
X43134898Y11507000D01*
X43146159Y11507059D01*
X43157322Y11507120D01*
X43168387Y11507185D01*
X43179354Y11507252D01*
X43190224Y11507322D01*
X43200996Y11507395D01*
X43211670Y11507471D01*
X43222246Y11507550D01*
X43232724Y11507631D01*
X43243105Y11507716D01*
X43253387Y11507803D01*
X43263572Y11507893D01*
X43262107Y11485178D01*
X43261483Y11474529D01*
X43260899Y11464414D01*
X43260281Y11453663D01*
X43259701Y11443542D01*
X43259044Y11432070D01*
X43258688Y11425827D01*
X43254535Y11351089D01*
X43254060Y11340582D01*
X43253701Y11330005D01*
X43253459Y11319358D01*
X43253333Y11308640D01*
X43253314Y11302485D01*
X43236903Y11303165D01*
X43220826Y11303801D01*
X43205083Y11304394D01*
X43189674Y11304942D01*
X43174598Y11305447D01*
X43159857Y11305908D01*
X43145450Y11306325D01*
X43131376Y11306698D01*
X43117636Y11307027D01*
X43104231Y11307312D01*
X43091159Y11307554D01*
X43078421Y11307751D01*
X43066017Y11307905D01*
X43053947Y11308015D01*
X43042211Y11308080D01*
X43030809Y11308102D01*
X43018695Y11308100D01*
X43007083Y11308095D01*
X42995973Y11308085D01*
X42985365Y11308072D01*
X42975258Y11308055D01*
X42961039Y11308022D01*
X42947950Y11307980D01*
X42935989Y11307930D01*
X42925158Y11307871D01*
X42912472Y11307780D01*
X42901794Y11307673D01*
X42897208Y11307614D01*
X42885422Y11307478D01*
X42874627Y11307283D01*
X42862619Y11307012D01*
X42852817Y11306759D01*
X42842332Y11306463D01*
X42831164Y11306124D01*
X42819314Y11305742D01*
X42806781Y11305316D01*
X42793565Y11304849D01*
X42789009Y11304683D01*
X42780704Y11148368D01*
X42790944Y11148101D01*
X42801392Y11147852D01*
X42812048Y11147621D01*
X42822913Y11147406D01*
X42833985Y11147208D01*
X42845265Y11147028D01*
X42856753Y11146865D01*
X42868449Y11146719D01*
X42880353Y11146590D01*
X42892464Y11146478D01*
X42904784Y11146384D01*
X42917312Y11146307D01*
X42930048Y11146247D01*
X42942992Y11146204D01*
X42956144Y11146178D01*
X42969504Y11146169D01*
X42981144Y11146204D01*
X42992488Y11146275D01*
X43006074Y11146384D01*
X43016376Y11146478D01*
X43027674Y11146590D01*
X43039968Y11146719D01*
X43053258Y11146865D01*
X43067545Y11147028D01*
X43082827Y11147208D01*
X43099105Y11147406D01*
X43116380Y11147621D01*
X43134650Y11147852D01*
X43153917Y11148101D01*
X43163924Y11148232D01*
X43174180Y11148368D01*
X43173328Y11137585D01*
X43172481Y11126546D01*
X43171641Y11115252D01*
X43170806Y11103702D01*
X43169977Y11091896D01*
X43169153Y11079835D01*
X43168336Y11067517D01*
X43167524Y11054945D01*
X43166718Y11042116D01*
X43165917Y11029032D01*
X43165123Y11015692D01*
X43164334Y11002097D01*
X43163550Y10988245D01*
X43162773Y10974138D01*
X43162001Y10959776D01*
X43161235Y10945158D01*
X43146582Y10945335D01*
X43132361Y10945501D01*
X43118570Y10945656D01*
X43105211Y10945799D01*
X43092284Y10945930D01*
X43079787Y10946051D01*
X43067722Y10946159D01*
X43056088Y10946257D01*
X43044885Y10946342D01*
X43034114Y10946417D01*
X43023774Y10946480D01*
X43013865Y10946531D01*
X42999810Y10946587D01*
X42986725Y10946617D01*
X42978541Y10946623D01*
X42966607Y10946617D01*
X42954495Y10946600D01*
X42942205Y10946571D01*
X42929738Y10946531D01*
X42917094Y10946480D01*
X42904272Y10946417D01*
X42891273Y10946342D01*
X42878096Y10946257D01*
X42864742Y10946159D01*
X42851210Y10946051D01*
X42837501Y10945930D01*
X42823615Y10945799D01*
X42809551Y10945656D01*
X42795309Y10945501D01*
X42780890Y10945335D01*
X42766294Y10945158D01*
X42757990Y10773211D01*
X42836880Y10773211D01*
X42846841Y10773256D01*
X42859137Y10773394D01*
X42869892Y10773557D01*
X42881960Y10773772D01*
X42895342Y10774038D01*
X42910039Y10774355D01*
X42920566Y10774596D01*
X42931677Y10774859D01*
X42943372Y10775145D01*
X42955651Y10775455D01*
X42968514Y10775787D01*
X42981960Y10776141D01*
X43124110Y10781026D01*
X43134999Y10781475D01*
X43145214Y10782040D01*
X43156764Y10782788D01*
X43169649Y10783719D01*
X43180190Y10784537D01*
X43191482Y10785459D01*
X43203526Y10786484D01*
X43216321Y10787611D01*
X43229867Y10788842D01*
X43228840Y10775594D01*
X43227837Y10762288D01*
X43226856Y10748926D01*
X43225898Y10735506D01*
X43224963Y10722028D01*
X43224051Y10708494D01*
X43223162Y10694902D01*
X43222295Y10681253D01*
X43221452Y10667547D01*
X43220631Y10653783D01*
X43219834Y10639963D01*
X43219059Y10626085D01*
X43218307Y10612150D01*
X43217578Y10598157D01*
X43216872Y10584107D01*
X43216189Y10570000D01*
X43205671Y10570091D01*
X43195090Y10570178D01*
X43184447Y10570262D01*
X43173741Y10570344D01*
X43162972Y10570423D01*
X43152141Y10570499D01*
X43141248Y10570572D01*
X43130292Y10570642D01*
X43119274Y10570709D01*
X43108193Y10570773D01*
X43097050Y10570835D01*
X43085844Y10570894D01*
X43074575Y10570949D01*
X43063245Y10571002D01*
X43051851Y10571052D01*
X43040396Y10571100D01*
X43028877Y10571144D01*
X43017296Y10571185D01*
X43005653Y10571224D01*
X42993947Y10571260D01*
X42982179Y10571293D01*
X42970348Y10571323D01*
X42958455Y10571350D01*
X42946499Y10571374D01*
X42934481Y10571396D01*
X42922400Y10571414D01*
X42910257Y10571430D01*
X42898052Y10571443D01*
X42885783Y10571453D01*
X42873453Y10571460D01*
X42861059Y10571465D01*
X42848604Y10571466D01*
X42546231Y10570733D01*
X42448778Y10570000D01*
G37*
G36*
X43621144Y10570000D02*
G01*
X43595743Y10653776D01*
X43428192Y11136888D01*
X43296301Y11507893D01*
X43307883Y11507716D01*
X43319306Y11507550D01*
X43330567Y11507395D01*
X43341669Y11507252D01*
X43352610Y11507120D01*
X43363391Y11507000D01*
X43374012Y11506891D01*
X43384473Y11506794D01*
X43394773Y11506708D01*
X43404913Y11506634D01*
X43414892Y11506571D01*
X43424712Y11506519D01*
X43439140Y11506463D01*
X43453208Y11506433D01*
X43462386Y11506428D01*
X43474354Y11506450D01*
X43484372Y11506498D01*
X43495283Y11506571D01*
X43507086Y11506669D01*
X43519783Y11506794D01*
X43533373Y11506944D01*
X43547856Y11507120D01*
X43558007Y11507252D01*
X43568555Y11507395D01*
X43579501Y11507550D01*
X43590843Y11507716D01*
X43602581Y11507893D01*
X43605496Y11496929D01*
X43608286Y11486475D01*
X43610951Y11476532D01*
X43614312Y11464070D01*
X43617450Y11452516D01*
X43620368Y11441871D01*
X43623064Y11432134D01*
X43626123Y11421239D01*
X43627250Y11417279D01*
X43630708Y11406128D01*
X43633752Y11396432D01*
X43637182Y11385594D01*
X43640999Y11373614D01*
X43645202Y11360492D01*
X43648219Y11351110D01*
X43651407Y11341220D01*
X43654767Y11330823D01*
X43658299Y11319918D01*
X43662003Y11308505D01*
X43665879Y11296585D01*
X43669926Y11284157D01*
X43674145Y11271222D01*
X43775017Y10953462D01*
X43777916Y10943855D01*
X43780936Y10933721D01*
X43784076Y10923059D01*
X43787336Y10911868D01*
X43790716Y10900149D01*
X43794217Y10887903D01*
X43797837Y10875128D01*
X43801578Y10861825D01*
X43805439Y10847994D01*
X43808080Y10838480D01*
X43810775Y10828731D01*
X43812142Y10823769D01*
X43843649Y10900950D01*
X44083496Y11414592D01*
X44087479Y11423699D01*
X44091796Y11433616D01*
X44095967Y11443236D01*
X44097418Y11446588D01*
X44101376Y11455783D01*
X44105458Y11465543D01*
X44109344Y11475001D01*
X44113672Y11485664D01*
X44117452Y11495062D01*
X44121515Y11505230D01*
X44122575Y11507893D01*
X44134878Y11507716D01*
X44146877Y11507550D01*
X44158570Y11507395D01*
X44169958Y11507252D01*
X44181040Y11507120D01*
X44191817Y11507000D01*
X44202289Y11506891D01*
X44212456Y11506794D01*
X44222317Y11506708D01*
X44236537Y11506601D01*
X44250069Y11506519D01*
X44262915Y11506463D01*
X44275074Y11506433D01*
X44282798Y11506428D01*
X44293365Y11506450D01*
X44306260Y11506519D01*
X44317460Y11506601D01*
X44329968Y11506708D01*
X44343786Y11506841D01*
X44353726Y11506944D01*
X44364247Y11507059D01*
X44375351Y11507185D01*
X44387036Y11507322D01*
X44399304Y11507471D01*
X44412153Y11507631D01*
X44425585Y11507803D01*
X44432519Y11507893D01*
X44423684Y11491389D01*
X44414704Y11474542D01*
X44405579Y11457355D01*
X44400963Y11448633D01*
X44396310Y11439826D01*
X44391620Y11430933D01*
X44386895Y11421955D01*
X44382133Y11412891D01*
X44377335Y11403743D01*
X44372501Y11394508D01*
X44367630Y11385189D01*
X44362723Y11375784D01*
X44357780Y11366293D01*
X44352801Y11356717D01*
X44347786Y11347056D01*
X44342734Y11337310D01*
X44337646Y11327478D01*
X44332521Y11317560D01*
X44327361Y11307558D01*
X44322164Y11297469D01*
X44316931Y11287296D01*
X44311661Y11277037D01*
X44306356Y11266693D01*
X44301014Y11256263D01*
X44295636Y11245748D01*
X44290221Y11235147D01*
X44284771Y11224462D01*
X44279284Y11213690D01*
X44273761Y11202834D01*
X44036845Y10732910D01*
X44030317Y10719775D01*
X44025887Y10710772D01*
X44021393Y10701573D01*
X44016836Y10692177D01*
X44012217Y10682585D01*
X44007534Y10672796D01*
X44002788Y10662811D01*
X43997980Y10652629D01*
X43993108Y10642251D01*
X43988174Y10631676D01*
X43983176Y10620904D01*
X43978116Y10609936D01*
X43972993Y10598772D01*
X43967806Y10587411D01*
X43962557Y10575853D01*
X43959909Y10570000D01*
X43945726Y10570178D01*
X43932061Y10570344D01*
X43918913Y10570499D01*
X43906282Y10570642D01*
X43894168Y10570773D01*
X43882572Y10570894D01*
X43871492Y10571002D01*
X43860929Y10571100D01*
X43850884Y10571185D01*
X43836785Y10571293D01*
X43823850Y10571374D01*
X43812079Y10571430D01*
X43801471Y10571460D01*
X43795045Y10571466D01*
X43782230Y10571443D01*
X43770945Y10571396D01*
X43758227Y10571323D01*
X43744075Y10571224D01*
X43733843Y10571144D01*
X43722975Y10571052D01*
X43711468Y10570949D01*
X43699325Y10570835D01*
X43686544Y10570709D01*
X43673126Y10570572D01*
X43659071Y10570423D01*
X43644378Y10570262D01*
X43629048Y10570091D01*
X43621144Y10570000D01*
G37*
G36*
X45604884Y11221396D02*
G01*
X45808827Y10670384D01*
X45848639Y10570000D01*
X45834165Y10570178D01*
X45820421Y10570344D01*
X45807406Y10570499D01*
X45795119Y10570642D01*
X45783561Y10570773D01*
X45772733Y10570894D01*
X45762633Y10571002D01*
X45748850Y10571144D01*
X45736707Y10571260D01*
X45726204Y10571350D01*
X45714751Y10571430D01*
X45704535Y10571466D01*
X45693207Y10571453D01*
X45680931Y10571414D01*
X45667705Y10571350D01*
X45653531Y10571260D01*
X45643554Y10571185D01*
X45633155Y10571100D01*
X45622335Y10571002D01*
X45611093Y10570894D01*
X45599430Y10570773D01*
X45587345Y10570642D01*
X45574838Y10570499D01*
X45561909Y10570344D01*
X45548559Y10570178D01*
X45534787Y10570000D01*
X45530897Y10584291D01*
X45526799Y10598890D01*
X45522493Y10613798D01*
X45517980Y10629016D01*
X45513258Y10644542D01*
X45508328Y10660378D01*
X45503191Y10676523D01*
X45497845Y10692977D01*
X45492291Y10709740D01*
X45486530Y10726812D01*
X45480560Y10744193D01*
X45474382Y10761884D01*
X45467997Y10779883D01*
X45461403Y10798192D01*
X45458028Y10807462D01*
X45454602Y10816810D01*
X45451123Y10826235D01*
X45447592Y10835737D01*
X45101256Y10835737D01*
X45093760Y10820559D01*
X45086235Y10805191D01*
X45078678Y10789632D01*
X45071092Y10773882D01*
X45063474Y10757942D01*
X45055826Y10741810D01*
X45048148Y10725488D01*
X45040439Y10708975D01*
X45032700Y10692271D01*
X45024930Y10675376D01*
X45017129Y10658290D01*
X45009298Y10641014D01*
X45001437Y10623547D01*
X44993545Y10605889D01*
X44985622Y10588040D01*
X44981649Y10579044D01*
X44977669Y10570000D01*
X44962088Y10570178D01*
X44947280Y10570344D01*
X44933244Y10570499D01*
X44919982Y10570642D01*
X44907492Y10570773D01*
X44895775Y10570894D01*
X44884831Y10571002D01*
X44874659Y10571100D01*
X44860851Y10571224D01*
X44848782Y10571323D01*
X44838451Y10571396D01*
X44827382Y10571453D01*
X44821109Y10571466D01*
X44810749Y10571453D01*
X44799267Y10571414D01*
X44786666Y10571350D01*
X44772944Y10571260D01*
X44763173Y10571185D01*
X44752904Y10571100D01*
X44742138Y10571002D01*
X44730873Y10570894D01*
X44719110Y10570773D01*
X44706849Y10570642D01*
X44694090Y10570499D01*
X44680834Y10570344D01*
X44667079Y10570178D01*
X44652826Y10570000D01*
X44709734Y10668919D01*
X44906092Y11038947D01*
X45184542Y11038947D01*
X45398011Y11038947D01*
X45393105Y11054464D01*
X45388339Y11069540D01*
X45383715Y11084174D01*
X45379231Y11098366D01*
X45374887Y11112117D01*
X45370685Y11125426D01*
X45366623Y11138293D01*
X45362702Y11150718D01*
X45358922Y11162702D01*
X45355282Y11174244D01*
X45351784Y11185344D01*
X45348426Y11196003D01*
X45345208Y11206219D01*
X45342132Y11215994D01*
X45339196Y11225327D01*
X45333746Y11242669D01*
X45328859Y11258243D01*
X45324535Y11272050D01*
X45320774Y11284091D01*
X45317576Y11294364D01*
X45313835Y11306461D01*
X45310816Y11316407D01*
X45305220Y11303456D01*
X45299730Y11290799D01*
X45294344Y11278436D01*
X45289063Y11266367D01*
X45283887Y11254592D01*
X45278816Y11243111D01*
X45273850Y11231923D01*
X45268989Y11221030D01*
X45264233Y11210430D01*
X45259582Y11200124D01*
X45255036Y11190112D01*
X45250595Y11180394D01*
X45246259Y11170970D01*
X45242027Y11161839D01*
X45235877Y11148694D01*
X45233879Y11144460D01*
X45184542Y11038947D01*
X44906092Y11038947D01*
X45064863Y11338144D01*
X45102721Y11413127D01*
X45108157Y11424134D01*
X45112969Y11433954D01*
X45118194Y11444674D01*
X45123830Y11456294D01*
X45128328Y11465601D01*
X45133058Y11475414D01*
X45138020Y11485734D01*
X45143213Y11496560D01*
X45148639Y11507893D01*
X45163497Y11507716D01*
X45177845Y11507550D01*
X45191684Y11507395D01*
X45205013Y11507252D01*
X45217833Y11507120D01*
X45230143Y11507000D01*
X45241944Y11506891D01*
X45253236Y11506794D01*
X45264018Y11506708D01*
X45274290Y11506634D01*
X45288744Y11506543D01*
X45302051Y11506479D01*
X45314212Y11506440D01*
X45325226Y11506428D01*
X45337261Y11506433D01*
X45349185Y11506450D01*
X45360998Y11506479D01*
X45372701Y11506519D01*
X45384293Y11506571D01*
X45395774Y11506634D01*
X45407145Y11506708D01*
X45418405Y11506794D01*
X45429554Y11506891D01*
X45440593Y11507000D01*
X45451521Y11507120D01*
X45462338Y11507252D01*
X45473045Y11507395D01*
X45483641Y11507550D01*
X45494126Y11507716D01*
X45504501Y11507893D01*
X45604884Y11221396D01*
G37*
D12*
G36*
X10341660Y22255000D02*
G01*
X10370481Y22531239D01*
X10406140Y23046347D01*
X10421284Y23411246D01*
X10421706Y23429459D01*
X10422056Y23447689D01*
X10422335Y23465938D01*
X10422543Y23484204D01*
X10422679Y23502488D01*
X10422743Y23520790D01*
X10422749Y23528116D01*
X10422713Y23543651D01*
X10422633Y23558500D01*
X10422507Y23575502D01*
X10422335Y23594656D01*
X10422177Y23610434D01*
X10421992Y23627423D01*
X10421782Y23645622D01*
X10421545Y23665032D01*
X10421284Y23685653D01*
X10445551Y23685209D01*
X10469140Y23684794D01*
X10492049Y23684408D01*
X10514279Y23684050D01*
X10535830Y23683721D01*
X10556701Y23683420D01*
X10576893Y23683149D01*
X10605907Y23682794D01*
X10633393Y23682505D01*
X10659351Y23682279D01*
X10683780Y23682118D01*
X10706680Y23682022D01*
X10728053Y23681989D01*
X10748523Y23682031D01*
X10770368Y23682157D01*
X10793586Y23682366D01*
X10818178Y23682659D01*
X10844144Y23683036D01*
X10871484Y23683496D01*
X10900198Y23684040D01*
X10920104Y23684450D01*
X10940620Y23684896D01*
X10961747Y23685380D01*
X10983485Y23685901D01*
X11005833Y23686459D01*
X11017236Y23686752D01*
X11040038Y23687329D01*
X11062406Y23687868D01*
X11084338Y23688371D01*
X11105835Y23688836D01*
X11126897Y23689264D01*
X11147524Y23689654D01*
X11167716Y23690008D01*
X11187473Y23690324D01*
X11216293Y23690729D01*
X11244134Y23691050D01*
X11270996Y23691287D01*
X11296879Y23691440D01*
X11321783Y23691510D01*
X11329867Y23691515D01*
X11352759Y23691443D01*
X11374907Y23691229D01*
X11396311Y23690871D01*
X11416970Y23690370D01*
X11436885Y23689726D01*
X11465363Y23688492D01*
X11492166Y23686935D01*
X11517295Y23685057D01*
X11540750Y23682857D01*
X11562530Y23680334D01*
X11582635Y23677490D01*
X11606838Y23673197D01*
X11629393Y23668291D01*
X11651382Y23662732D01*
X11672807Y23656521D01*
X11693667Y23649658D01*
X11713962Y23642141D01*
X11733692Y23633973D01*
X11752857Y23625151D01*
X11771458Y23615677D01*
X11789494Y23605751D01*
X11806721Y23595390D01*
X11823138Y23584594D01*
X11838747Y23573362D01*
X11853546Y23561696D01*
X11867537Y23549594D01*
X11880718Y23537058D01*
X11893091Y23524086D01*
X11904799Y23510674D01*
X11915744Y23496815D01*
X11925926Y23482510D01*
X11935345Y23467758D01*
X11944000Y23452559D01*
X11951892Y23436915D01*
X11959021Y23420823D01*
X11965387Y23404285D01*
X11971111Y23387495D01*
X11976072Y23370648D01*
X11980270Y23353744D01*
X11983705Y23336783D01*
X11986376Y23319764D01*
X11988285Y23302688D01*
X11989429Y23285555D01*
X11989811Y23268364D01*
X11989452Y23250554D01*
X11988376Y23232936D01*
X11986582Y23215509D01*
X11984071Y23198274D01*
X11980843Y23181231D01*
X11976897Y23164380D01*
X11972233Y23147720D01*
X11966852Y23131252D01*
X11960754Y23114976D01*
X11953938Y23098892D01*
X11946405Y23082999D01*
X11938154Y23067299D01*
X11929185Y23051790D01*
X11919500Y23036473D01*
X11909096Y23021347D01*
X11897976Y23006414D01*
X11886265Y22991855D01*
X11873971Y22977763D01*
X11861093Y22964137D01*
X11847631Y22950978D01*
X11833585Y22938286D01*
X11818956Y22926060D01*
X11803742Y22914300D01*
X11787944Y22903007D01*
X11771563Y22892181D01*
X11754598Y22881821D01*
X11737048Y22871928D01*
X11718915Y22862501D01*
X11700198Y22853541D01*
X11680897Y22845047D01*
X11661013Y22837020D01*
X11640544Y22829460D01*
X11619688Y22822361D01*
X11598519Y22815721D01*
X11577037Y22809539D01*
X11555242Y22803814D01*
X11533134Y22798548D01*
X11510713Y22793739D01*
X11487980Y22789389D01*
X11464933Y22785496D01*
X11441574Y22782061D01*
X11417901Y22779085D01*
X11393916Y22776566D01*
X11369617Y22774505D01*
X11345006Y22772902D01*
X11320082Y22771757D01*
X11294845Y22771070D01*
X11269295Y22770841D01*
X11249732Y22771248D01*
X11229147Y22772467D01*
X11207539Y22774499D01*
X11184909Y22777344D01*
X11161255Y22781002D01*
X11136579Y22785473D01*
X11117401Y22789360D01*
X11097647Y22793703D01*
X11084159Y22796853D01*
X11079760Y22814764D01*
X11075623Y22830483D01*
X11070937Y22847439D01*
X11065701Y22865631D01*
X11061413Y22880087D01*
X11056817Y22895238D01*
X11051911Y22911084D01*
X11046696Y22927627D01*
X11041172Y22944864D01*
X11035536Y22962157D01*
X11029986Y22978863D01*
X11024522Y22994984D01*
X11019144Y23010518D01*
X11013852Y23025466D01*
X11008646Y23039829D01*
X11001837Y23058067D01*
X10995182Y23075263D01*
X10988679Y23091417D01*
X10985484Y23099104D01*
X11005749Y23099104D01*
X11025510Y23099104D01*
X11049502Y23099104D01*
X11072708Y23099104D01*
X11095126Y23099104D01*
X11116757Y23099104D01*
X11133496Y23099104D01*
X11157707Y23099509D01*
X11180699Y23100727D01*
X11202472Y23102755D01*
X11223026Y23105595D01*
X11242360Y23109247D01*
X11266243Y23115378D01*
X11287957Y23122951D01*
X11307504Y23131967D01*
X11324884Y23142426D01*
X11328890Y23145266D01*
X11343773Y23157127D01*
X11356673Y23169629D01*
X11367587Y23182772D01*
X11376517Y23196557D01*
X11383463Y23210982D01*
X11388424Y23226049D01*
X11391401Y23241757D01*
X11392393Y23258106D01*
X11391538Y23273882D01*
X11388974Y23288606D01*
X11384045Y23303910D01*
X11378715Y23314892D01*
X11369747Y23328004D01*
X11356790Y23340941D01*
X11342438Y23351117D01*
X11335240Y23355192D01*
X11317861Y23363184D01*
X11299245Y23369438D01*
X11279393Y23373952D01*
X11267829Y23375709D01*
X11245980Y23378011D01*
X11224937Y23379425D01*
X11205273Y23380174D01*
X11184439Y23380467D01*
X11181367Y23380472D01*
X11159786Y23380366D01*
X11137783Y23380051D01*
X11115360Y23379525D01*
X11095805Y23378907D01*
X11079274Y23378273D01*
X10977669Y23372778D01*
X10975562Y23348795D01*
X10973517Y23324383D01*
X10971532Y23299542D01*
X10969609Y23274272D01*
X10967746Y23248572D01*
X10965945Y23222443D01*
X10964205Y23195884D01*
X10962526Y23168896D01*
X10960908Y23141479D01*
X10959351Y23113632D01*
X10957855Y23085357D01*
X10956420Y23056651D01*
X10955046Y23027517D01*
X10954382Y23012789D01*
X10953733Y22997953D01*
X10953099Y22983010D01*
X10952481Y22967960D01*
X10951878Y22952802D01*
X10951290Y22937537D01*
X10950179Y22909996D01*
X10949102Y22883152D01*
X10948060Y22857005D01*
X10947054Y22831555D01*
X10946084Y22806802D01*
X10945148Y22782745D01*
X10944248Y22759386D01*
X10943383Y22736724D01*
X10942554Y22714758D01*
X10941759Y22693490D01*
X10941000Y22672918D01*
X10940277Y22653044D01*
X10939588Y22633866D01*
X10938935Y22615386D01*
X10938317Y22597602D01*
X10937735Y22580515D01*
X10937188Y22564125D01*
X10936676Y22548433D01*
X10936199Y22533437D01*
X10935352Y22505536D01*
X10934646Y22480423D01*
X10934081Y22458097D01*
X10933658Y22438560D01*
X10933375Y22421810D01*
X10933217Y22401913D01*
X10933217Y22255000D01*
X10644521Y22257199D01*
X10621929Y22257145D01*
X10597260Y22257025D01*
X10574912Y22256890D01*
X10549267Y22256716D01*
X10520324Y22256503D01*
X10499197Y22256340D01*
X10476605Y22256160D01*
X10452547Y22255962D01*
X10427023Y22255748D01*
X10400034Y22255516D01*
X10371580Y22255267D01*
X10341660Y22255000D01*
G37*
G36*
X12104605Y22254634D02*
G01*
X12148080Y22726145D01*
X12161758Y22989561D01*
X12162102Y23007295D01*
X12162399Y23025144D01*
X12162651Y23043107D01*
X12162857Y23061185D01*
X12163017Y23079377D01*
X12163132Y23097684D01*
X12163201Y23116105D01*
X12163224Y23134641D01*
X12163170Y23154265D01*
X12163060Y23169974D01*
X12162890Y23186533D01*
X12162659Y23203943D01*
X12162369Y23222202D01*
X12162018Y23241312D01*
X12161607Y23261271D01*
X12161136Y23282081D01*
X12160606Y23303741D01*
X12160218Y23318653D01*
X12159804Y23333943D01*
X12182250Y23333633D01*
X12204035Y23333342D01*
X12225160Y23333072D01*
X12245625Y23332821D01*
X12265430Y23332591D01*
X12293899Y23332283D01*
X12320882Y23332020D01*
X12346380Y23331802D01*
X12370393Y23331629D01*
X12392920Y23331501D01*
X12413962Y23331419D01*
X12433518Y23331381D01*
X12439706Y23331379D01*
X12461494Y23331401D01*
X12484174Y23331469D01*
X12507747Y23331582D01*
X12532213Y23331739D01*
X12557573Y23331942D01*
X12583825Y23332190D01*
X12610970Y23332483D01*
X12639009Y23332821D01*
X12667940Y23333204D01*
X12687724Y23333485D01*
X12707904Y23333785D01*
X12718143Y23333943D01*
X12713747Y23234292D01*
X12727058Y23245169D01*
X12741591Y23256182D01*
X12757344Y23267334D01*
X12772130Y23277204D01*
X12774319Y23278622D01*
X12790388Y23288367D01*
X12807391Y23297726D01*
X12825330Y23306700D01*
X12844203Y23315287D01*
X12855408Y23320021D01*
X12875493Y23327740D01*
X12896000Y23334547D01*
X12916927Y23340443D01*
X12938275Y23345427D01*
X12950662Y23347865D01*
X12972862Y23351434D01*
X12992188Y23353795D01*
X13011788Y23355513D01*
X13031663Y23356586D01*
X13051813Y23357015D01*
X13055198Y23357024D01*
X13078069Y23357024D01*
X13099719Y23357024D01*
X13123258Y23357024D01*
X13144316Y23357024D01*
X13166687Y23357024D01*
X13180739Y23357024D01*
X13180938Y23341472D01*
X13181167Y23326324D01*
X13181426Y23311579D01*
X13181873Y23290219D01*
X13182388Y23269767D01*
X13182972Y23250222D01*
X13183624Y23231586D01*
X13184346Y23213858D01*
X13185136Y23197038D01*
X13185994Y23181125D01*
X13186922Y23166121D01*
X13187578Y23156623D01*
X13198325Y22975639D01*
X13175015Y22982594D01*
X13152712Y22988622D01*
X13131417Y22993723D01*
X13111130Y22997896D01*
X13091850Y23001141D01*
X13069167Y23003895D01*
X13048058Y23005199D01*
X13040055Y23005315D01*
X13020508Y23005040D01*
X12997083Y23003923D01*
X12974780Y23001949D01*
X12953597Y22999115D01*
X12933535Y22995423D01*
X12914594Y22990872D01*
X12903768Y22987729D01*
X12883131Y22980641D01*
X12863353Y22972290D01*
X12844434Y22962677D01*
X12826373Y22951802D01*
X12811979Y22941776D01*
X12803628Y22935339D01*
X12790319Y22923901D01*
X12777868Y22911568D01*
X12766276Y22898341D01*
X12755543Y22884220D01*
X12745668Y22869204D01*
X12736652Y22853293D01*
X12733286Y22846679D01*
X12726928Y22832282D01*
X12721044Y22815836D01*
X12715632Y22797340D01*
X12711884Y22782123D01*
X12708402Y22765754D01*
X12705186Y22748232D01*
X12702237Y22729557D01*
X12699554Y22709729D01*
X12697136Y22688749D01*
X12695673Y22674121D01*
X12694372Y22659145D01*
X12693154Y22643890D01*
X12692021Y22628359D01*
X12690971Y22612549D01*
X12690006Y22596462D01*
X12689124Y22580097D01*
X12688327Y22563455D01*
X12687613Y22546535D01*
X12686983Y22529337D01*
X12686437Y22511862D01*
X12685976Y22494109D01*
X12685598Y22476078D01*
X12685304Y22457770D01*
X12685094Y22439184D01*
X12684968Y22420321D01*
X12684926Y22401180D01*
X12685081Y22383402D01*
X12685429Y22367814D01*
X12685974Y22351013D01*
X12686718Y22332998D01*
X12687661Y22313770D01*
X12688498Y22298552D01*
X12689447Y22282652D01*
X12690508Y22266069D01*
X12691277Y22254634D01*
X12663295Y22255092D01*
X12635589Y22255506D01*
X12608158Y22255874D01*
X12581001Y22256197D01*
X12554119Y22256475D01*
X12527512Y22256708D01*
X12501179Y22256896D01*
X12475122Y22257038D01*
X12449339Y22257136D01*
X12423831Y22257189D01*
X12406978Y22257199D01*
X12381660Y22257176D01*
X12355715Y22257109D01*
X12329144Y22256996D01*
X12301946Y22256838D01*
X12274121Y22256635D01*
X12245669Y22256387D01*
X12216590Y22256094D01*
X12196856Y22255874D01*
X12176843Y22255633D01*
X12156552Y22255373D01*
X12135982Y22255092D01*
X12115134Y22254792D01*
X12104605Y22254634D01*
G37*
G36*
X14163155Y23356868D02*
G01*
X14184615Y23356400D01*
X14205973Y23355620D01*
X14227228Y23354528D01*
X14248380Y23353124D01*
X14269429Y23351409D01*
X14290375Y23349381D01*
X14311217Y23347041D01*
X14331957Y23344389D01*
X14352593Y23341425D01*
X14373127Y23338149D01*
X14393558Y23334562D01*
X14413885Y23330662D01*
X14434110Y23326450D01*
X14454231Y23321926D01*
X14474249Y23317091D01*
X14494085Y23312006D01*
X14513534Y23306643D01*
X14532599Y23301003D01*
X14551277Y23295086D01*
X14569571Y23288890D01*
X14587479Y23282418D01*
X14605001Y23275667D01*
X14630562Y23265021D01*
X14655256Y23253750D01*
X14679083Y23241854D01*
X14702042Y23229333D01*
X14724134Y23216188D01*
X14745359Y23202419D01*
X14765726Y23188114D01*
X14785064Y23173366D01*
X14803370Y23158173D01*
X14820647Y23142535D01*
X14836893Y23126453D01*
X14852108Y23109927D01*
X14866293Y23092957D01*
X14879448Y23075542D01*
X14891573Y23057683D01*
X14902667Y23039379D01*
X14909490Y23026930D01*
X14918918Y23007976D01*
X14927419Y22988758D01*
X14934992Y22969276D01*
X14941639Y22949530D01*
X14947357Y22929520D01*
X14952149Y22909246D01*
X14956013Y22888707D01*
X14958949Y22867905D01*
X14960959Y22846839D01*
X14962040Y22825508D01*
X14962247Y22811141D01*
X14961834Y22790280D01*
X14960598Y22769599D01*
X14958537Y22749099D01*
X14955652Y22728778D01*
X14951943Y22708638D01*
X14947409Y22688678D01*
X14942051Y22668899D01*
X14935868Y22649300D01*
X14928862Y22629881D01*
X14921031Y22610643D01*
X14915352Y22597917D01*
X14905984Y22579064D01*
X14895465Y22560424D01*
X14883796Y22541996D01*
X14870976Y22523780D01*
X14857006Y22505777D01*
X14841884Y22487987D01*
X14825613Y22470409D01*
X14808190Y22453043D01*
X14795936Y22441584D01*
X14783171Y22430220D01*
X14769894Y22418950D01*
X14756106Y22407774D01*
X14741825Y22396866D01*
X14727071Y22386308D01*
X14711844Y22376098D01*
X14696144Y22366238D01*
X14679970Y22356727D01*
X14663324Y22347565D01*
X14646204Y22338752D01*
X14628611Y22330288D01*
X14610544Y22322174D01*
X14592005Y22314409D01*
X14572992Y22306993D01*
X14553506Y22299926D01*
X14533547Y22293208D01*
X14513114Y22286840D01*
X14492209Y22280821D01*
X14470830Y22275151D01*
X14449140Y22269871D01*
X14427301Y22264932D01*
X14405314Y22260334D01*
X14383177Y22256077D01*
X14360892Y22252160D01*
X14338458Y22248583D01*
X14315875Y22245348D01*
X14293143Y22242453D01*
X14270263Y22239898D01*
X14247233Y22237684D01*
X14224055Y22235811D01*
X14200728Y22234278D01*
X14177252Y22233086D01*
X14153627Y22232234D01*
X14129854Y22231723D01*
X14105931Y22231553D01*
X14083879Y22231703D01*
X14061929Y22232154D01*
X14040083Y22232906D01*
X14018340Y22233957D01*
X13996699Y22235310D01*
X13975162Y22236963D01*
X13953728Y22238916D01*
X13932397Y22241170D01*
X13911168Y22243725D01*
X13890043Y22246580D01*
X13869021Y22249735D01*
X13848102Y22253192D01*
X13827286Y22256948D01*
X13806573Y22261005D01*
X13785963Y22265363D01*
X13765457Y22270021D01*
X13745266Y22275016D01*
X13725485Y22280291D01*
X13706111Y22285847D01*
X13687146Y22291683D01*
X13668589Y22297799D01*
X13650441Y22304196D01*
X13632701Y22310874D01*
X13615369Y22317832D01*
X13590137Y22328795D01*
X13565824Y22340389D01*
X13542430Y22352614D01*
X13519954Y22365471D01*
X13498398Y22378958D01*
X13491416Y22383594D01*
X13471197Y22397865D01*
X13451940Y22412652D01*
X13433645Y22427953D01*
X13416311Y22443770D01*
X13399940Y22460102D01*
X13384529Y22476949D01*
X13370081Y22494311D01*
X13356594Y22512188D01*
X13344069Y22530581D01*
X13332506Y22549489D01*
X13325331Y22562380D01*
X13315466Y22581976D01*
X13306572Y22601746D01*
X13298648Y22621689D01*
X13291694Y22641807D01*
X13285711Y22662098D01*
X13280698Y22682563D01*
X13276655Y22703202D01*
X13273582Y22724015D01*
X13271480Y22745002D01*
X13270348Y22766163D01*
X13270232Y22773772D01*
X13852407Y22773772D01*
X13853030Y22754629D01*
X13854897Y22736356D01*
X13858010Y22718952D01*
X13862368Y22702417D01*
X13867970Y22686752D01*
X13874818Y22671956D01*
X13882911Y22658029D01*
X13892249Y22644972D01*
X13906637Y22628915D01*
X13923237Y22614404D01*
X13941624Y22601610D01*
X13961126Y22590521D01*
X13981741Y22581139D01*
X14003471Y22573463D01*
X14026316Y22567492D01*
X14050274Y22563227D01*
X14075347Y22560669D01*
X14094883Y22559869D01*
X14101535Y22559816D01*
X14121891Y22560302D01*
X14141682Y22561762D01*
X14165627Y22564955D01*
X14188689Y22569669D01*
X14210869Y22575903D01*
X14232167Y22583658D01*
X14248569Y22590957D01*
X14267956Y22601554D01*
X14285816Y22613654D01*
X14302150Y22627257D01*
X14314118Y22639221D01*
X14325109Y22652147D01*
X14335122Y22666034D01*
X14344159Y22680883D01*
X14346266Y22684746D01*
X14354166Y22700557D01*
X14361012Y22716665D01*
X14366805Y22733072D01*
X14371545Y22749775D01*
X14375232Y22766777D01*
X14377865Y22784076D01*
X14379445Y22801673D01*
X14379972Y22819568D01*
X14379567Y22834291D01*
X14377924Y22852116D01*
X14375016Y22869296D01*
X14370844Y22885833D01*
X14365409Y22901725D01*
X14358709Y22916974D01*
X14354082Y22925813D01*
X14345192Y22940003D01*
X14334705Y22953262D01*
X14322619Y22965591D01*
X14308935Y22976990D01*
X14293653Y22987459D01*
X14276773Y22996997D01*
X14269574Y23000552D01*
X14250884Y23008679D01*
X14231144Y23015428D01*
X14210354Y23020800D01*
X14188516Y23024795D01*
X14165627Y23027412D01*
X14141690Y23028652D01*
X14131821Y23028762D01*
X14111236Y23028275D01*
X14091246Y23026816D01*
X14071852Y23024383D01*
X14048446Y23019973D01*
X14025970Y23014043D01*
X14004425Y23006592D01*
X13983810Y22997621D01*
X13964411Y22987279D01*
X13946515Y22975489D01*
X13930122Y22962249D01*
X13918089Y22950614D01*
X13907018Y22938052D01*
X13896908Y22924562D01*
X13887761Y22910145D01*
X13885624Y22906396D01*
X13877839Y22891181D01*
X13871092Y22875576D01*
X13865382Y22859582D01*
X13860711Y22843198D01*
X13857078Y22826426D01*
X13854483Y22809264D01*
X13852926Y22791713D01*
X13852407Y22773772D01*
X13270232Y22773772D01*
X13270132Y22780367D01*
X13270609Y22801706D01*
X13272038Y22822858D01*
X13274421Y22843823D01*
X13277757Y22864602D01*
X13282046Y22885194D01*
X13287288Y22905599D01*
X13293484Y22925817D01*
X13300632Y22945849D01*
X13308733Y22965694D01*
X13317788Y22985352D01*
X13324354Y22998354D01*
X13335070Y23017676D01*
X13346885Y23036624D01*
X13359800Y23055199D01*
X13373813Y23073401D01*
X13388926Y23091229D01*
X13405137Y23108684D01*
X13422448Y23125765D01*
X13440858Y23142472D01*
X13460367Y23158806D01*
X13473983Y23169488D01*
X13488088Y23180004D01*
X13495324Y23185199D01*
X13510192Y23195443D01*
X13525488Y23205384D01*
X13541211Y23215021D01*
X13557362Y23224355D01*
X13573940Y23233385D01*
X13590945Y23242112D01*
X13608378Y23250535D01*
X13626238Y23258655D01*
X13644526Y23266472D01*
X13663241Y23273985D01*
X13682383Y23281195D01*
X13701953Y23288102D01*
X13721951Y23294705D01*
X13742376Y23301005D01*
X13763228Y23307001D01*
X13784508Y23312694D01*
X13806052Y23318062D01*
X13827700Y23323084D01*
X13849451Y23327759D01*
X13871305Y23332089D01*
X13893262Y23336071D01*
X13915322Y23339708D01*
X13937486Y23342998D01*
X13959752Y23345942D01*
X13982121Y23348539D01*
X14004593Y23350790D01*
X14027169Y23352695D01*
X14049847Y23354254D01*
X14072628Y23355466D01*
X14095513Y23356332D01*
X14118500Y23356851D01*
X14141591Y23357024D01*
X14163155Y23356868D01*
G37*
G36*
X16183949Y22587293D02*
G01*
X16178387Y22567362D01*
X16173056Y22547824D01*
X16167957Y22528679D01*
X16163089Y22509927D01*
X16158454Y22491568D01*
X16154050Y22473601D01*
X16149879Y22456028D01*
X16145939Y22438847D01*
X16142231Y22422059D01*
X16138755Y22405664D01*
X16136566Y22394952D01*
X16104326Y22256466D01*
X16077284Y22253484D01*
X16051478Y22250721D01*
X16026909Y22248178D01*
X16003576Y22245853D01*
X15981480Y22243747D01*
X15960620Y22241860D01*
X15940996Y22240192D01*
X15916755Y22238309D01*
X15894712Y22236815D01*
X15879623Y22235950D01*
X15855635Y22234683D01*
X15831909Y22233631D01*
X15808446Y22232794D01*
X15785246Y22232171D01*
X15762307Y22231764D01*
X15739631Y22231570D01*
X15730635Y22231553D01*
X15708601Y22231692D01*
X15687014Y22232107D01*
X15665874Y22232799D01*
X15645180Y22233769D01*
X15624933Y22235015D01*
X15605132Y22236538D01*
X15579425Y22238999D01*
X15554513Y22241953D01*
X15530394Y22245399D01*
X15518632Y22247307D01*
X15495765Y22251663D01*
X15473813Y22256855D01*
X15452778Y22262883D01*
X15432658Y22269747D01*
X15413455Y22277446D01*
X15395167Y22285981D01*
X15377795Y22295352D01*
X15361339Y22305559D01*
X15346097Y22316464D01*
X15332122Y22327747D01*
X15319414Y22339407D01*
X15307972Y22351446D01*
X15295452Y22367025D01*
X15284912Y22383195D01*
X15276352Y22399955D01*
X15274877Y22403378D01*
X15268263Y22420694D01*
X15262770Y22438297D01*
X15258398Y22456186D01*
X15255708Y22470703D01*
X15253735Y22485404D01*
X15252479Y22500287D01*
X15251941Y22515354D01*
X15251919Y22519149D01*
X15252285Y22534078D01*
X15252962Y22548912D01*
X15253384Y22556885D01*
X15254352Y22571884D01*
X15255703Y22589735D01*
X15257196Y22608134D01*
X15258631Y22625159D01*
X15260280Y22644232D01*
X15261657Y22659883D01*
X15263154Y22676686D01*
X15292463Y23028762D01*
X15078018Y23028762D01*
X15079462Y23044635D01*
X15080863Y23061069D01*
X15082221Y23078063D01*
X15083536Y23095618D01*
X15084808Y23113732D01*
X15086038Y23132407D01*
X15087224Y23151642D01*
X15088367Y23171438D01*
X15089468Y23191794D01*
X15090526Y23212710D01*
X15091207Y23226965D01*
X15096092Y23333577D01*
X15325680Y23333577D01*
X15327819Y23348625D01*
X15329754Y23365352D01*
X15331336Y23380632D01*
X15333029Y23398256D01*
X15334833Y23418224D01*
X15336750Y23440537D01*
X15338089Y23456714D01*
X15339478Y23473933D01*
X15340917Y23492194D01*
X15342405Y23511497D01*
X15343943Y23531842D01*
X15344731Y23542405D01*
X15591416Y23584903D01*
X15615480Y23589003D01*
X15640588Y23593571D01*
X15662834Y23597748D01*
X15688009Y23602570D01*
X15716112Y23608035D01*
X15736473Y23612037D01*
X15758137Y23616324D01*
X15781101Y23620898D01*
X15805367Y23625758D01*
X15830934Y23630904D01*
X15857803Y23636337D01*
X15885973Y23642056D01*
X15884658Y23622432D01*
X15883401Y23602855D01*
X15882201Y23583323D01*
X15881058Y23563837D01*
X15879972Y23544397D01*
X15878943Y23525002D01*
X15877972Y23505654D01*
X15877058Y23486351D01*
X15876201Y23467094D01*
X15875402Y23447883D01*
X15874660Y23428717D01*
X15873975Y23409597D01*
X15873347Y23390524D01*
X15872776Y23371496D01*
X15872263Y23352513D01*
X15871807Y23333577D01*
X16184926Y23333577D01*
X16183566Y23306025D01*
X16182293Y23279607D01*
X16181108Y23254322D01*
X16180011Y23230171D01*
X16179001Y23207153D01*
X16178080Y23185268D01*
X16177246Y23164517D01*
X16176500Y23144899D01*
X16175842Y23126415D01*
X16175271Y23109064D01*
X16174788Y23092847D01*
X16174393Y23077763D01*
X16173965Y23057262D01*
X16173735Y23039312D01*
X16173691Y23028762D01*
X15857152Y23028762D01*
X15841521Y22776703D01*
X15840676Y22759308D01*
X15839975Y22743988D01*
X15839323Y22728343D01*
X15838773Y22712132D01*
X15838590Y22701232D01*
X15838912Y22685889D01*
X15840148Y22668681D01*
X15842312Y22652787D01*
X15845403Y22638207D01*
X15850182Y22622857D01*
X15851779Y22618800D01*
X15859534Y22604008D01*
X15871031Y22590104D01*
X15885465Y22579098D01*
X15896720Y22573371D01*
X15915237Y22566818D01*
X15935068Y22562410D01*
X15956212Y22560147D01*
X15968527Y22559816D01*
X15988658Y22560138D01*
X16009361Y22561104D01*
X16030637Y22562714D01*
X16034961Y22563113D01*
X16057462Y22565861D01*
X16080789Y22569364D01*
X16104453Y22573228D01*
X16126148Y22576937D01*
X16150301Y22581196D01*
X16170029Y22584751D01*
X16183949Y22587293D01*
G37*
G36*
X17172226Y23356868D02*
G01*
X17193687Y23356400D01*
X17215045Y23355620D01*
X17236300Y23354528D01*
X17257452Y23353124D01*
X17278501Y23351409D01*
X17299446Y23349381D01*
X17320289Y23347041D01*
X17341029Y23344389D01*
X17361665Y23341425D01*
X17382199Y23338149D01*
X17402629Y23334562D01*
X17422957Y23330662D01*
X17443181Y23326450D01*
X17463303Y23321926D01*
X17483321Y23317091D01*
X17503156Y23312006D01*
X17522606Y23306643D01*
X17541670Y23301003D01*
X17560349Y23295086D01*
X17578643Y23288890D01*
X17596551Y23282418D01*
X17614073Y23275667D01*
X17639634Y23265021D01*
X17664328Y23253750D01*
X17688155Y23241854D01*
X17711114Y23229333D01*
X17733206Y23216188D01*
X17754431Y23202419D01*
X17774798Y23188114D01*
X17794135Y23173366D01*
X17812442Y23158173D01*
X17829719Y23142535D01*
X17845965Y23126453D01*
X17861180Y23109927D01*
X17875365Y23092957D01*
X17888520Y23075542D01*
X17900644Y23057683D01*
X17911738Y23039379D01*
X17918562Y23026930D01*
X17927990Y23007976D01*
X17936491Y22988758D01*
X17944064Y22969276D01*
X17950710Y22949530D01*
X17956429Y22929520D01*
X17961220Y22909246D01*
X17965084Y22888707D01*
X17968021Y22867905D01*
X17970030Y22846839D01*
X17971112Y22825508D01*
X17971318Y22811141D01*
X17970906Y22790280D01*
X17969670Y22769599D01*
X17967609Y22749099D01*
X17964724Y22728778D01*
X17961014Y22708638D01*
X17956481Y22688678D01*
X17951123Y22668899D01*
X17944940Y22649300D01*
X17937933Y22629881D01*
X17930102Y22610643D01*
X17924424Y22597917D01*
X17915056Y22579064D01*
X17904537Y22560424D01*
X17892868Y22541996D01*
X17880048Y22523780D01*
X17866077Y22505777D01*
X17850956Y22487987D01*
X17834685Y22470409D01*
X17817262Y22453043D01*
X17805008Y22441584D01*
X17792243Y22430220D01*
X17778966Y22418950D01*
X17765177Y22407774D01*
X17750897Y22396866D01*
X17736143Y22386308D01*
X17720916Y22376098D01*
X17705216Y22366238D01*
X17689042Y22356727D01*
X17672396Y22347565D01*
X17655276Y22338752D01*
X17637683Y22330288D01*
X17619616Y22322174D01*
X17601077Y22314409D01*
X17582064Y22306993D01*
X17562578Y22299926D01*
X17542619Y22293208D01*
X17522186Y22286840D01*
X17501281Y22280821D01*
X17479902Y22275151D01*
X17458212Y22269871D01*
X17436373Y22264932D01*
X17414386Y22260334D01*
X17392249Y22256077D01*
X17369964Y22252160D01*
X17347530Y22248583D01*
X17324947Y22245348D01*
X17302215Y22242453D01*
X17279335Y22239898D01*
X17256305Y22237684D01*
X17233127Y22235811D01*
X17209800Y22234278D01*
X17186324Y22233086D01*
X17162699Y22232234D01*
X17138925Y22231723D01*
X17115003Y22231553D01*
X17092951Y22231703D01*
X17071001Y22232154D01*
X17049155Y22232906D01*
X17027411Y22233957D01*
X17005771Y22235310D01*
X16984234Y22236963D01*
X16962800Y22238916D01*
X16941468Y22241170D01*
X16920240Y22243725D01*
X16899115Y22246580D01*
X16878093Y22249735D01*
X16857174Y22253192D01*
X16836358Y22256948D01*
X16815645Y22261005D01*
X16795035Y22265363D01*
X16774528Y22270021D01*
X16754338Y22275016D01*
X16734557Y22280291D01*
X16715183Y22285847D01*
X16696218Y22291683D01*
X16677661Y22297799D01*
X16659513Y22304196D01*
X16641773Y22310874D01*
X16624441Y22317832D01*
X16599209Y22328795D01*
X16574896Y22340389D01*
X16551502Y22352614D01*
X16529026Y22365471D01*
X16507469Y22378958D01*
X16500488Y22383594D01*
X16480269Y22397865D01*
X16461012Y22412652D01*
X16442717Y22427953D01*
X16425383Y22443770D01*
X16409011Y22460102D01*
X16393601Y22476949D01*
X16379153Y22494311D01*
X16365666Y22512188D01*
X16353141Y22530581D01*
X16341577Y22549489D01*
X16334403Y22562380D01*
X16324538Y22581976D01*
X16315644Y22601746D01*
X16307720Y22621689D01*
X16300766Y22641807D01*
X16294783Y22662098D01*
X16289769Y22682563D01*
X16285726Y22703202D01*
X16282654Y22724015D01*
X16280552Y22745002D01*
X16279420Y22766163D01*
X16279304Y22773772D01*
X16861479Y22773772D01*
X16862101Y22754629D01*
X16863969Y22736356D01*
X16867082Y22718952D01*
X16871439Y22702417D01*
X16877042Y22686752D01*
X16883890Y22671956D01*
X16891983Y22658029D01*
X16901321Y22644972D01*
X16915708Y22628915D01*
X16932309Y22614404D01*
X16950696Y22601610D01*
X16970198Y22590521D01*
X16990813Y22581139D01*
X17012543Y22573463D01*
X17035387Y22567492D01*
X17059346Y22563227D01*
X17084419Y22560669D01*
X17103955Y22559869D01*
X17110607Y22559816D01*
X17130963Y22560302D01*
X17150754Y22561762D01*
X17174699Y22564955D01*
X17197761Y22569669D01*
X17219941Y22575903D01*
X17241238Y22583658D01*
X17257641Y22590957D01*
X17277028Y22601554D01*
X17294888Y22613654D01*
X17311222Y22627257D01*
X17323189Y22639221D01*
X17334180Y22652147D01*
X17344194Y22666034D01*
X17353231Y22680883D01*
X17355338Y22684746D01*
X17363238Y22700557D01*
X17370084Y22716665D01*
X17375877Y22733072D01*
X17380617Y22749775D01*
X17384304Y22766777D01*
X17386937Y22784076D01*
X17388517Y22801673D01*
X17389043Y22819568D01*
X17388639Y22834291D01*
X17386996Y22852116D01*
X17384088Y22869296D01*
X17379916Y22885833D01*
X17374480Y22901725D01*
X17367781Y22916974D01*
X17363154Y22925813D01*
X17354264Y22940003D01*
X17343776Y22953262D01*
X17331691Y22965591D01*
X17318007Y22976990D01*
X17302725Y22987459D01*
X17285845Y22996997D01*
X17278646Y23000552D01*
X17259955Y23008679D01*
X17240216Y23015428D01*
X17219426Y23020800D01*
X17197588Y23024795D01*
X17174699Y23027412D01*
X17150762Y23028652D01*
X17140893Y23028762D01*
X17120308Y23028275D01*
X17100318Y23026816D01*
X17080923Y23024383D01*
X17057518Y23019973D01*
X17035042Y23014043D01*
X17013497Y23006592D01*
X16992882Y22997621D01*
X16973483Y22987279D01*
X16955587Y22975489D01*
X16939193Y22962249D01*
X16927161Y22950614D01*
X16916090Y22938052D01*
X16905980Y22924562D01*
X16896833Y22910145D01*
X16894696Y22906396D01*
X16886911Y22891181D01*
X16880163Y22875576D01*
X16874454Y22859582D01*
X16869783Y22843198D01*
X16866150Y22826426D01*
X16863555Y22809264D01*
X16861998Y22791713D01*
X16861479Y22773772D01*
X16279304Y22773772D01*
X16279204Y22780367D01*
X16279681Y22801706D01*
X16281110Y22822858D01*
X16283493Y22843823D01*
X16286829Y22864602D01*
X16291118Y22885194D01*
X16296360Y22905599D01*
X16302555Y22925817D01*
X16309704Y22945849D01*
X16317805Y22965694D01*
X16326860Y22985352D01*
X16333426Y22998354D01*
X16344142Y23017676D01*
X16355957Y23036624D01*
X16368872Y23055199D01*
X16382885Y23073401D01*
X16397998Y23091229D01*
X16414209Y23108684D01*
X16431520Y23125765D01*
X16449930Y23142472D01*
X16469439Y23158806D01*
X16483055Y23169488D01*
X16497160Y23180004D01*
X16504396Y23185199D01*
X16519264Y23195443D01*
X16534560Y23205384D01*
X16550283Y23215021D01*
X16566434Y23224355D01*
X16583012Y23233385D01*
X16600017Y23242112D01*
X16617450Y23250535D01*
X16635310Y23258655D01*
X16653598Y23266472D01*
X16672313Y23273985D01*
X16691455Y23281195D01*
X16711025Y23288102D01*
X16731023Y23294705D01*
X16751448Y23301005D01*
X16772300Y23307001D01*
X16793579Y23312694D01*
X16815124Y23318062D01*
X16836772Y23323084D01*
X16858523Y23327759D01*
X16880377Y23332089D01*
X16902334Y23336071D01*
X16924394Y23339708D01*
X16946557Y23342998D01*
X16968824Y23345942D01*
X16991193Y23348539D01*
X17013665Y23350790D01*
X17036240Y23352695D01*
X17058919Y23354254D01*
X17081700Y23355466D01*
X17104585Y23356332D01*
X17127572Y23356851D01*
X17150662Y23357024D01*
X17172226Y23356868D01*
G37*
G36*
X18132519Y22254634D02*
G01*
X18175994Y22726145D01*
X18189672Y22989561D01*
X18190015Y23007295D01*
X18190313Y23025144D01*
X18190565Y23043107D01*
X18190771Y23061185D01*
X18190931Y23079377D01*
X18191045Y23097684D01*
X18191114Y23116105D01*
X18191137Y23134641D01*
X18191084Y23154265D01*
X18190973Y23169974D01*
X18190803Y23186533D01*
X18190573Y23203943D01*
X18190282Y23222202D01*
X18189932Y23241312D01*
X18189521Y23261271D01*
X18189050Y23282081D01*
X18188519Y23303741D01*
X18188132Y23318653D01*
X18187718Y23333943D01*
X18210163Y23333633D01*
X18231948Y23333342D01*
X18253074Y23333072D01*
X18273538Y23332821D01*
X18293343Y23332591D01*
X18321812Y23332283D01*
X18348796Y23332020D01*
X18374294Y23331802D01*
X18398306Y23331629D01*
X18420834Y23331501D01*
X18441875Y23331419D01*
X18461431Y23331381D01*
X18467620Y23331379D01*
X18489407Y23331401D01*
X18512087Y23331469D01*
X18535661Y23331582D01*
X18560127Y23331739D01*
X18585486Y23331942D01*
X18611738Y23332190D01*
X18638884Y23332483D01*
X18666922Y23332821D01*
X18695853Y23333204D01*
X18715637Y23333485D01*
X18735818Y23333785D01*
X18746057Y23333943D01*
X18741660Y23234292D01*
X18754972Y23245169D01*
X18769504Y23256182D01*
X18785258Y23267334D01*
X18800044Y23277204D01*
X18802233Y23278622D01*
X18818301Y23288367D01*
X18835305Y23297726D01*
X18853243Y23306700D01*
X18872117Y23315287D01*
X18883321Y23320021D01*
X18903407Y23327740D01*
X18923913Y23334547D01*
X18944840Y23340443D01*
X18966188Y23345427D01*
X18978576Y23347865D01*
X19000775Y23351434D01*
X19020101Y23353795D01*
X19039702Y23355513D01*
X19059577Y23356586D01*
X19079727Y23357015D01*
X19083112Y23357024D01*
X19105982Y23357024D01*
X19127632Y23357024D01*
X19151171Y23357024D01*
X19172230Y23357024D01*
X19194601Y23357024D01*
X19208653Y23357024D01*
X19208851Y23341472D01*
X19209080Y23326324D01*
X19209340Y23311579D01*
X19209786Y23290219D01*
X19210301Y23269767D01*
X19210885Y23250222D01*
X19211538Y23231586D01*
X19212259Y23213858D01*
X19213049Y23197038D01*
X19213908Y23181125D01*
X19214835Y23166121D01*
X19215491Y23156623D01*
X19226238Y22975639D01*
X19202928Y22982594D01*
X19180626Y22988622D01*
X19159331Y22993723D01*
X19139043Y22997896D01*
X19119764Y23001141D01*
X19097080Y23003895D01*
X19075972Y23005199D01*
X19067969Y23005315D01*
X19048422Y23005040D01*
X19024997Y23003923D01*
X19002693Y23001949D01*
X18981510Y22999115D01*
X18961448Y22995423D01*
X18942508Y22990872D01*
X18931681Y22987729D01*
X18911045Y22980641D01*
X18891267Y22972290D01*
X18872347Y22962677D01*
X18854287Y22951802D01*
X18839892Y22941776D01*
X18831542Y22935339D01*
X18818232Y22923901D01*
X18805782Y22911568D01*
X18794190Y22898341D01*
X18783456Y22884220D01*
X18773582Y22869204D01*
X18764566Y22853293D01*
X18761200Y22846679D01*
X18754842Y22832282D01*
X18748957Y22815836D01*
X18743546Y22797340D01*
X18739798Y22782123D01*
X18736316Y22765754D01*
X18733100Y22748232D01*
X18730150Y22729557D01*
X18727467Y22709729D01*
X18725050Y22688749D01*
X18723586Y22674121D01*
X18722285Y22659145D01*
X18721068Y22643890D01*
X18719934Y22628359D01*
X18718885Y22612549D01*
X18717919Y22596462D01*
X18717038Y22580097D01*
X18716240Y22563455D01*
X18715526Y22546535D01*
X18714897Y22529337D01*
X18714351Y22511862D01*
X18713889Y22494109D01*
X18713511Y22476078D01*
X18713218Y22457770D01*
X18713008Y22439184D01*
X18712882Y22420321D01*
X18712840Y22401180D01*
X18712995Y22383402D01*
X18713342Y22367814D01*
X18713888Y22351013D01*
X18714632Y22332998D01*
X18715575Y22313770D01*
X18716412Y22298552D01*
X18717361Y22282652D01*
X18718421Y22266069D01*
X18719190Y22254634D01*
X18691209Y22255092D01*
X18663503Y22255506D01*
X18636071Y22255874D01*
X18608914Y22256197D01*
X18582032Y22256475D01*
X18555425Y22256708D01*
X18529093Y22256896D01*
X18503035Y22257038D01*
X18477252Y22257136D01*
X18451744Y22257189D01*
X18434891Y22257199D01*
X18409574Y22257176D01*
X18383629Y22257109D01*
X18357058Y22256996D01*
X18329859Y22256838D01*
X18302034Y22256635D01*
X18273582Y22256387D01*
X18244504Y22256094D01*
X18224770Y22255874D01*
X18204757Y22255633D01*
X18184466Y22255373D01*
X18163896Y22255092D01*
X18143047Y22254792D01*
X18132519Y22254634D01*
G37*
G36*
X19413817Y23450447D02*
G01*
X19414941Y23466189D01*
X19415992Y23481451D01*
X19416971Y23496231D01*
X19418303Y23517500D01*
X19419472Y23537688D01*
X19420478Y23556793D01*
X19421321Y23574816D01*
X19422001Y23591758D01*
X19422518Y23607617D01*
X19422871Y23622395D01*
X19423089Y23640416D01*
X19423098Y23644620D01*
X19422867Y23660791D01*
X19422409Y23676413D01*
X19421808Y23692750D01*
X19421144Y23708734D01*
X19443649Y23708512D01*
X19465611Y23708305D01*
X19487032Y23708111D01*
X19507911Y23707933D01*
X19528248Y23707768D01*
X19548043Y23707618D01*
X19576720Y23707419D01*
X19604177Y23707253D01*
X19630415Y23707119D01*
X19655434Y23707017D01*
X19679233Y23706947D01*
X19701813Y23706909D01*
X19716189Y23706902D01*
X19745131Y23706921D01*
X19773703Y23706979D01*
X19801906Y23707076D01*
X19829739Y23707211D01*
X19857204Y23707385D01*
X19884299Y23707598D01*
X19911025Y23707849D01*
X19937382Y23708139D01*
X19963369Y23708467D01*
X19988988Y23708834D01*
X20005861Y23709100D01*
X20003652Y23693700D01*
X20001508Y23677784D01*
X19999630Y23662300D01*
X19998142Y23647001D01*
X19998046Y23645719D01*
X19990230Y23525918D01*
X19988948Y23511035D01*
X19988126Y23495833D01*
X19987585Y23478597D01*
X19987345Y23462205D01*
X19987299Y23450447D01*
X19959137Y23450840D01*
X19931440Y23451194D01*
X19904206Y23451510D01*
X19877435Y23451787D01*
X19851129Y23452025D01*
X19825286Y23452225D01*
X19799906Y23452386D01*
X19774991Y23452508D01*
X19750539Y23452592D01*
X19726551Y23452637D01*
X19710816Y23452645D01*
X19686209Y23452626D01*
X19660933Y23452568D01*
X19634987Y23452471D01*
X19608371Y23452336D01*
X19581086Y23452162D01*
X19553130Y23451950D01*
X19524505Y23451699D01*
X19495211Y23451409D01*
X19475309Y23451194D01*
X19455109Y23450962D01*
X19434612Y23450713D01*
X19413817Y23450447D01*
G37*
G36*
X19326378Y22254634D02*
G01*
X19328959Y22271810D01*
X19331453Y22288534D01*
X19333860Y22304806D01*
X19336178Y22320625D01*
X19338409Y22335993D01*
X19340551Y22350908D01*
X19343601Y22372432D01*
X19346453Y22392940D01*
X19349108Y22412429D01*
X19351565Y22430901D01*
X19353825Y22448356D01*
X19355887Y22464793D01*
X19357152Y22475185D01*
X19358976Y22490900D01*
X19360782Y22507407D01*
X19362571Y22524706D01*
X19364342Y22542797D01*
X19366097Y22561680D01*
X19367834Y22581355D01*
X19369554Y22601823D01*
X19371257Y22623082D01*
X19372943Y22645134D01*
X19374058Y22660275D01*
X19375164Y22675768D01*
X19375715Y22683647D01*
X19376806Y22699642D01*
X19377882Y22715847D01*
X19378943Y22732260D01*
X19379989Y22748882D01*
X19381019Y22765714D01*
X19382035Y22782754D01*
X19383034Y22800003D01*
X19384019Y22817461D01*
X19384988Y22835128D01*
X19385942Y22853004D01*
X19386881Y22871089D01*
X19387805Y22889383D01*
X19388713Y22907886D01*
X19389606Y22926598D01*
X19390484Y22945518D01*
X19391346Y22964648D01*
X19392249Y22984123D01*
X19393125Y23004078D01*
X19393974Y23024514D01*
X19394796Y23045431D01*
X19395592Y23066829D01*
X19396361Y23088708D01*
X19397103Y23111068D01*
X19397819Y23133908D01*
X19398508Y23157230D01*
X19399170Y23181032D01*
X19399805Y23205315D01*
X19400414Y23230079D01*
X19400996Y23255324D01*
X19401551Y23281049D01*
X19402080Y23307256D01*
X19402581Y23333943D01*
X19426485Y23333633D01*
X19449713Y23333342D01*
X19472265Y23333072D01*
X19494142Y23332821D01*
X19515343Y23332591D01*
X19535869Y23332381D01*
X19555720Y23332190D01*
X19584229Y23331942D01*
X19611218Y23331739D01*
X19636688Y23331582D01*
X19660637Y23331469D01*
X19683067Y23331401D01*
X19703977Y23331379D01*
X19729882Y23331419D01*
X19751415Y23331501D01*
X19774750Y23331629D01*
X19799889Y23331802D01*
X19826831Y23332020D01*
X19855577Y23332283D01*
X19875742Y23332483D01*
X19896709Y23332704D01*
X19918477Y23332944D01*
X19941046Y23333204D01*
X19964417Y23333485D01*
X19988590Y23333785D01*
X20000976Y23333943D01*
X19997920Y23308168D01*
X19994977Y23282864D01*
X19992149Y23258033D01*
X19989436Y23233674D01*
X19986837Y23209787D01*
X19984353Y23186373D01*
X19981983Y23163431D01*
X19979727Y23140961D01*
X19977586Y23118963D01*
X19975560Y23097438D01*
X19973648Y23076385D01*
X19971851Y23055804D01*
X19970168Y23035696D01*
X19968599Y23016059D01*
X19967145Y22996895D01*
X19965806Y22978204D01*
X19964552Y22959681D01*
X19963355Y22941023D01*
X19962216Y22922231D01*
X19961134Y22903305D01*
X19960110Y22884244D01*
X19959142Y22865049D01*
X19958232Y22845719D01*
X19957379Y22826254D01*
X19956583Y22806655D01*
X19955845Y22786921D01*
X19955164Y22767053D01*
X19954540Y22747051D01*
X19953973Y22726913D01*
X19953464Y22706642D01*
X19953011Y22686236D01*
X19952616Y22665695D01*
X19952286Y22647525D01*
X19951966Y22629700D01*
X19951656Y22612217D01*
X19951357Y22595078D01*
X19951068Y22578283D01*
X19950790Y22561831D01*
X19950523Y22545722D01*
X19950266Y22529957D01*
X19950019Y22514535D01*
X19949783Y22499457D01*
X19949557Y22484722D01*
X19949137Y22456283D01*
X19948760Y22429218D01*
X19948424Y22403527D01*
X19948130Y22379209D01*
X19947878Y22356266D01*
X19947668Y22334696D01*
X19947500Y22314500D01*
X19947374Y22295678D01*
X19947290Y22278230D01*
X19947248Y22262156D01*
X19947243Y22254634D01*
X19925131Y22254945D01*
X19903493Y22255235D01*
X19882328Y22255506D01*
X19861636Y22255756D01*
X19841417Y22255987D01*
X19821672Y22256197D01*
X19792941Y22256475D01*
X19765274Y22256708D01*
X19738673Y22256896D01*
X19713136Y22257038D01*
X19688664Y22257136D01*
X19665257Y22257189D01*
X19650244Y22257199D01*
X19627559Y22257176D01*
X19603286Y22257109D01*
X19577425Y22256996D01*
X19549974Y22256838D01*
X19520936Y22256635D01*
X19500694Y22256475D01*
X19479746Y22256295D01*
X19458093Y22256094D01*
X19435733Y22255874D01*
X19412667Y22255633D01*
X19388896Y22255373D01*
X19364418Y22255092D01*
X19339234Y22254792D01*
X19326378Y22254634D01*
G37*
G36*
X21414166Y22585827D02*
G01*
X21411578Y22571110D01*
X21408456Y22554801D01*
X21404800Y22536901D01*
X21400610Y22517409D01*
X21397117Y22501746D01*
X21393323Y22485187D01*
X21389228Y22467734D01*
X21384834Y22449385D01*
X21380138Y22430142D01*
X21378506Y22423528D01*
X21340893Y22256466D01*
X21312459Y22253449D01*
X21284190Y22250627D01*
X21256085Y22248000D01*
X21228144Y22245567D01*
X21200367Y22243328D01*
X21172754Y22241285D01*
X21145306Y22239436D01*
X21118021Y22237781D01*
X21090901Y22236322D01*
X21063944Y22235057D01*
X21037152Y22233986D01*
X21010524Y22233110D01*
X20984060Y22232429D01*
X20957760Y22231942D01*
X20931624Y22231651D01*
X20905652Y22231553D01*
X20877498Y22231756D01*
X20850005Y22232365D01*
X20823173Y22233379D01*
X20797002Y22234799D01*
X20771493Y22236625D01*
X20746644Y22238856D01*
X20722457Y22241493D01*
X20698931Y22244536D01*
X20676066Y22247985D01*
X20653862Y22251839D01*
X20639427Y22254634D01*
X20614026Y22260156D01*
X20589115Y22266419D01*
X20564693Y22273423D01*
X20540761Y22281167D01*
X20517318Y22289652D01*
X20494364Y22298877D01*
X20471900Y22308843D01*
X20449925Y22319549D01*
X20428440Y22330996D01*
X20407444Y22343184D01*
X20393719Y22351721D01*
X20373369Y22365351D01*
X20354083Y22379451D01*
X20335862Y22394022D01*
X20318706Y22409062D01*
X20302614Y22424573D01*
X20287588Y22440554D01*
X20273626Y22457005D01*
X20260729Y22473926D01*
X20248896Y22491317D01*
X20238129Y22509179D01*
X20231542Y22521347D01*
X20224266Y22535696D01*
X20217460Y22550256D01*
X20211123Y22565028D01*
X20205255Y22580011D01*
X20199857Y22595207D01*
X20194928Y22610614D01*
X20190469Y22626233D01*
X20186479Y22642064D01*
X20182958Y22658107D01*
X20179907Y22674362D01*
X20177326Y22690828D01*
X20175213Y22707506D01*
X20173570Y22724396D01*
X20172397Y22741498D01*
X20171693Y22758811D01*
X20171458Y22776337D01*
X20171687Y22792511D01*
X20172374Y22808611D01*
X20173519Y22824637D01*
X20175122Y22840588D01*
X20177182Y22856465D01*
X20179701Y22872267D01*
X20182678Y22887995D01*
X20186113Y22903648D01*
X20190005Y22919228D01*
X20194356Y22934732D01*
X20199164Y22950162D01*
X20204431Y22965518D01*
X20210155Y22980800D01*
X20216338Y22996007D01*
X20222978Y23011139D01*
X20230076Y23026197D01*
X20237684Y23041055D01*
X20245731Y23055587D01*
X20254216Y23069792D01*
X20263141Y23083671D01*
X20272504Y23097223D01*
X20282306Y23110450D01*
X20292547Y23123350D01*
X20303227Y23135923D01*
X20314346Y23148171D01*
X20325903Y23160092D01*
X20337900Y23171687D01*
X20356718Y23188467D01*
X20376523Y23204514D01*
X20397315Y23219826D01*
X20404466Y23224767D01*
X20426300Y23239079D01*
X20448572Y23252476D01*
X20471283Y23264959D01*
X20494431Y23276527D01*
X20518017Y23287181D01*
X20542041Y23296920D01*
X20566503Y23305745D01*
X20591403Y23313656D01*
X20616741Y23320652D01*
X20642517Y23326733D01*
X20659944Y23330280D01*
X20686562Y23335059D01*
X20713662Y23339369D01*
X20741242Y23343208D01*
X20769303Y23346577D01*
X20797845Y23349476D01*
X20826868Y23351905D01*
X20846484Y23353263D01*
X20866314Y23354412D01*
X20886357Y23355353D01*
X20906614Y23356084D01*
X20927084Y23356606D01*
X20947769Y23356920D01*
X20968667Y23357024D01*
X20993228Y23356956D01*
X21017821Y23356749D01*
X21042443Y23356406D01*
X21067096Y23355925D01*
X21091780Y23355307D01*
X21116495Y23354551D01*
X21141239Y23353658D01*
X21166015Y23352628D01*
X21191844Y23351346D01*
X21212417Y23350143D01*
X21234021Y23348735D01*
X21256656Y23347121D01*
X21280321Y23345301D01*
X21305016Y23343274D01*
X21330741Y23341042D01*
X21357497Y23338603D01*
X21385284Y23335958D01*
X21414101Y23333108D01*
X21423935Y23332111D01*
X21428332Y23299871D01*
X21429948Y23283933D01*
X21431377Y23267855D01*
X21432619Y23251636D01*
X21433674Y23235277D01*
X21434193Y23225866D01*
X21435098Y23210195D01*
X21436114Y23194814D01*
X21437369Y23177323D01*
X21438544Y23161809D01*
X21439872Y23144945D01*
X21441353Y23126730D01*
X21442986Y23107164D01*
X21452756Y23003116D01*
X21426145Y23006222D01*
X21400045Y23009127D01*
X21374457Y23011832D01*
X21349380Y23014336D01*
X21324815Y23016640D01*
X21300761Y23018744D01*
X21277218Y23020647D01*
X21254187Y23022350D01*
X21231667Y23023853D01*
X21209658Y23025155D01*
X21188161Y23026257D01*
X21167175Y23027159D01*
X21146701Y23027860D01*
X21126738Y23028361D01*
X21097752Y23028737D01*
X21088346Y23028762D01*
X21062624Y23028298D01*
X21037726Y23026907D01*
X21013653Y23024589D01*
X20990404Y23021343D01*
X20967980Y23017170D01*
X20946379Y23012069D01*
X20925604Y23006042D01*
X20905652Y22999086D01*
X20886868Y22991347D01*
X20869351Y22982783D01*
X20853102Y22973395D01*
X20838119Y22963183D01*
X20824403Y22952146D01*
X20811954Y22940285D01*
X20800773Y22927600D01*
X20790858Y22914090D01*
X20782157Y22899968D01*
X20774616Y22885262D01*
X20768235Y22869972D01*
X20763014Y22854098D01*
X20758954Y22837640D01*
X20756053Y22820598D01*
X20754313Y22802973D01*
X20753733Y22784763D01*
X20754244Y22766296D01*
X20755778Y22748631D01*
X20758335Y22731766D01*
X20761915Y22715704D01*
X20766518Y22700442D01*
X20772143Y22685982D01*
X20780613Y22669034D01*
X20786461Y22659467D01*
X20797808Y22644504D01*
X20811086Y22630759D01*
X20826296Y22618229D01*
X20843439Y22606916D01*
X20862513Y22596820D01*
X20883519Y22587940D01*
X20892463Y22584728D01*
X20910911Y22578889D01*
X20929863Y22573829D01*
X20949318Y22569547D01*
X20969277Y22566044D01*
X20989740Y22563319D01*
X21010707Y22561373D01*
X21032177Y22560205D01*
X21054152Y22559816D01*
X21075082Y22559973D01*
X21097696Y22560447D01*
X21118418Y22561104D01*
X21140377Y22561992D01*
X21163572Y22563113D01*
X21186802Y22564362D01*
X21208864Y22565637D01*
X21229758Y22566938D01*
X21249485Y22568265D01*
X21271023Y22569845D01*
X21273970Y22570074D01*
X21296874Y22572205D01*
X21319967Y22574618D01*
X21341650Y22577042D01*
X21365552Y22579841D01*
X21386271Y22582352D01*
X21408409Y22585102D01*
X21414166Y22585827D01*
G37*
G36*
X22481089Y23356868D02*
G01*
X22502550Y23356400D01*
X22523908Y23355620D01*
X22545163Y23354528D01*
X22566314Y23353124D01*
X22587363Y23351409D01*
X22608309Y23349381D01*
X22629152Y23347041D01*
X22649891Y23344389D01*
X22670528Y23341425D01*
X22691061Y23338149D01*
X22711492Y23334562D01*
X22731819Y23330662D01*
X22752044Y23326450D01*
X22772165Y23321926D01*
X22792184Y23317091D01*
X22812019Y23312006D01*
X22831469Y23306643D01*
X22850533Y23301003D01*
X22869212Y23295086D01*
X22887505Y23288890D01*
X22905413Y23282418D01*
X22922936Y23275667D01*
X22948497Y23265021D01*
X22973191Y23253750D01*
X22997017Y23241854D01*
X23019976Y23229333D01*
X23042068Y23216188D01*
X23063293Y23202419D01*
X23083661Y23188114D01*
X23102998Y23173366D01*
X23121305Y23158173D01*
X23138581Y23142535D01*
X23154827Y23126453D01*
X23170043Y23109927D01*
X23184228Y23092957D01*
X23197383Y23075542D01*
X23209507Y23057683D01*
X23220601Y23039379D01*
X23227424Y23026930D01*
X23236853Y23007976D01*
X23245353Y22988758D01*
X23252927Y22969276D01*
X23259573Y22949530D01*
X23265292Y22929520D01*
X23270083Y22909246D01*
X23273947Y22888707D01*
X23276884Y22867905D01*
X23278893Y22846839D01*
X23279975Y22825508D01*
X23280181Y22811141D01*
X23279769Y22790280D01*
X23278532Y22769599D01*
X23276471Y22749099D01*
X23273586Y22728778D01*
X23269877Y22708638D01*
X23265343Y22688678D01*
X23259985Y22668899D01*
X23253803Y22649300D01*
X23246796Y22629881D01*
X23238965Y22610643D01*
X23233286Y22597917D01*
X23223918Y22579064D01*
X23213400Y22560424D01*
X23201730Y22541996D01*
X23188910Y22523780D01*
X23174940Y22505777D01*
X23159819Y22487987D01*
X23143547Y22470409D01*
X23126125Y22453043D01*
X23113871Y22441584D01*
X23101105Y22430220D01*
X23087828Y22418950D01*
X23074040Y22407774D01*
X23059759Y22396866D01*
X23045006Y22386308D01*
X23029779Y22376098D01*
X23014078Y22366238D01*
X22997905Y22356727D01*
X22981258Y22347565D01*
X22964138Y22338752D01*
X22946545Y22330288D01*
X22928479Y22322174D01*
X22909939Y22314409D01*
X22890927Y22306993D01*
X22871441Y22299926D01*
X22851481Y22293208D01*
X22831049Y22286840D01*
X22810143Y22280821D01*
X22788764Y22275151D01*
X22767074Y22269871D01*
X22745236Y22264932D01*
X22723248Y22260334D01*
X22701112Y22256077D01*
X22678826Y22252160D01*
X22656392Y22248583D01*
X22633809Y22245348D01*
X22611078Y22242453D01*
X22588197Y22239898D01*
X22565168Y22237684D01*
X22541989Y22235811D01*
X22518662Y22234278D01*
X22495186Y22233086D01*
X22471562Y22232234D01*
X22447788Y22231723D01*
X22423866Y22231553D01*
X22401813Y22231703D01*
X22379864Y22232154D01*
X22358017Y22232906D01*
X22336274Y22233957D01*
X22314634Y22235310D01*
X22293096Y22236963D01*
X22271662Y22238916D01*
X22250331Y22241170D01*
X22229103Y22243725D01*
X22207978Y22246580D01*
X22186956Y22249735D01*
X22166037Y22253192D01*
X22145221Y22256948D01*
X22124508Y22261005D01*
X22103898Y22265363D01*
X22083391Y22270021D01*
X22063201Y22275016D01*
X22043419Y22280291D01*
X22024046Y22285847D01*
X22005081Y22291683D01*
X21986524Y22297799D01*
X21968376Y22304196D01*
X21950635Y22310874D01*
X21933304Y22317832D01*
X21908072Y22328795D01*
X21883759Y22340389D01*
X21860364Y22352614D01*
X21837889Y22365471D01*
X21816332Y22378958D01*
X21809351Y22383594D01*
X21789132Y22397865D01*
X21769875Y22412652D01*
X21751579Y22427953D01*
X21734246Y22443770D01*
X21717874Y22460102D01*
X21702464Y22476949D01*
X21688015Y22494311D01*
X21674528Y22512188D01*
X21662003Y22530581D01*
X21650440Y22549489D01*
X21643265Y22562380D01*
X21633401Y22581976D01*
X21624506Y22601746D01*
X21616582Y22621689D01*
X21609629Y22641807D01*
X21603645Y22662098D01*
X21598632Y22682563D01*
X21594589Y22703202D01*
X21591516Y22724015D01*
X21589414Y22745002D01*
X21588282Y22766163D01*
X21588166Y22773772D01*
X22170341Y22773772D01*
X22170964Y22754629D01*
X22172832Y22736356D01*
X22175944Y22718952D01*
X22180302Y22702417D01*
X22185905Y22686752D01*
X22192753Y22671956D01*
X22200846Y22658029D01*
X22210184Y22644972D01*
X22224571Y22628915D01*
X22241172Y22614404D01*
X22259559Y22601610D01*
X22279060Y22590521D01*
X22299676Y22581139D01*
X22321406Y22573463D01*
X22344250Y22567492D01*
X22368209Y22563227D01*
X22393282Y22560669D01*
X22412818Y22559869D01*
X22419469Y22559816D01*
X22439825Y22560302D01*
X22459617Y22561762D01*
X22483561Y22564955D01*
X22506624Y22569669D01*
X22528804Y22575903D01*
X22550101Y22583658D01*
X22566503Y22590957D01*
X22585890Y22601554D01*
X22603750Y22613654D01*
X22620084Y22627257D01*
X22632052Y22639221D01*
X22643043Y22652147D01*
X22653057Y22666034D01*
X22662094Y22680883D01*
X22664200Y22684746D01*
X22672100Y22700557D01*
X22678947Y22716665D01*
X22684740Y22733072D01*
X22689480Y22749775D01*
X22693166Y22766777D01*
X22695799Y22784076D01*
X22697379Y22801673D01*
X22697906Y22819568D01*
X22697501Y22834291D01*
X22695858Y22852116D01*
X22692951Y22869296D01*
X22688779Y22885833D01*
X22683343Y22901725D01*
X22676643Y22916974D01*
X22672016Y22925813D01*
X22663127Y22940003D01*
X22652639Y22953262D01*
X22640553Y22965591D01*
X22626869Y22976990D01*
X22611588Y22987459D01*
X22594708Y22996997D01*
X22587508Y23000552D01*
X22568818Y23008679D01*
X22549078Y23015428D01*
X22528289Y23020800D01*
X22506450Y23024795D01*
X22483562Y23027412D01*
X22459624Y23028652D01*
X22449755Y23028762D01*
X22429170Y23028275D01*
X22409180Y23026816D01*
X22389786Y23024383D01*
X22366380Y23019973D01*
X22343905Y23014043D01*
X22322359Y23006592D01*
X22301744Y22997621D01*
X22282345Y22987279D01*
X22264449Y22975489D01*
X22248056Y22962249D01*
X22236023Y22950614D01*
X22224952Y22938052D01*
X22214843Y22924562D01*
X22205695Y22910145D01*
X22203558Y22906396D01*
X22195773Y22891181D01*
X22189026Y22875576D01*
X22183317Y22859582D01*
X22178646Y22843198D01*
X22175013Y22826426D01*
X22172418Y22809264D01*
X22170860Y22791713D01*
X22170341Y22773772D01*
X21588166Y22773772D01*
X21588066Y22780367D01*
X21588543Y22801706D01*
X21589973Y22822858D01*
X21592356Y22843823D01*
X21595691Y22864602D01*
X21599980Y22885194D01*
X21605223Y22905599D01*
X21611418Y22925817D01*
X21618566Y22945849D01*
X21626668Y22965694D01*
X21635722Y22985352D01*
X21642288Y22998354D01*
X21653005Y23017676D01*
X21664820Y23036624D01*
X21677734Y23055199D01*
X21691748Y23073401D01*
X21706860Y23091229D01*
X21723072Y23108684D01*
X21740382Y23125765D01*
X21758792Y23142472D01*
X21778301Y23158806D01*
X21791918Y23169488D01*
X21806023Y23180004D01*
X21813258Y23185199D01*
X21828127Y23195443D01*
X21843422Y23205384D01*
X21859146Y23215021D01*
X21875296Y23224355D01*
X21891874Y23233385D01*
X21908879Y23242112D01*
X21926312Y23250535D01*
X21944173Y23258655D01*
X21962460Y23266472D01*
X21981175Y23273985D01*
X22000318Y23281195D01*
X22019888Y23288102D01*
X22039885Y23294705D01*
X22060310Y23301005D01*
X22081162Y23307001D01*
X22102442Y23312694D01*
X22123987Y23318062D01*
X22145635Y23323084D01*
X22167386Y23327759D01*
X22189240Y23332089D01*
X22211197Y23336071D01*
X22233257Y23339708D01*
X22255420Y23342998D01*
X22277686Y23345942D01*
X22300055Y23348539D01*
X22322528Y23350790D01*
X22345103Y23352695D01*
X22367781Y23354254D01*
X22390563Y23355466D01*
X22413447Y23356332D01*
X22436434Y23356851D01*
X22459525Y23357024D01*
X22481089Y23356868D01*
G37*
D13*
G36*
X14318946Y7307893D02*
G01*
X14333424Y7307631D01*
X14347001Y7307395D01*
X14359677Y7307185D01*
X14371450Y7307000D01*
X14382322Y7306841D01*
X14392293Y7306708D01*
X14404185Y7306571D01*
X14414473Y7306479D01*
X14425080Y7306429D01*
X14426901Y7306428D01*
X14438656Y7306463D01*
X14449272Y7306543D01*
X14460963Y7306669D01*
X14473730Y7306841D01*
X14484012Y7307000D01*
X14494899Y7307185D01*
X14506392Y7307395D01*
X14518490Y7307631D01*
X14531193Y7307893D01*
X14498953Y6758102D01*
X14498403Y6748211D01*
X14498221Y6738271D01*
X14498220Y6737586D01*
X14498323Y6726254D01*
X14498632Y6715280D01*
X14499147Y6704662D01*
X14499869Y6694401D01*
X14500796Y6684497D01*
X14502573Y6670309D01*
X14504815Y6656925D01*
X14507519Y6644343D01*
X14510688Y6632564D01*
X14514320Y6621589D01*
X14518416Y6611415D01*
X14522975Y6602045D01*
X14524598Y6599100D01*
X14529805Y6590664D01*
X14535440Y6582665D01*
X14543622Y6572682D01*
X14552568Y6563477D01*
X14562277Y6555051D01*
X14572748Y6547403D01*
X14581103Y6542178D01*
X14589887Y6537391D01*
X14599101Y6533042D01*
X14602267Y6531689D01*
X14611970Y6527935D01*
X14621934Y6524551D01*
X14632160Y6521536D01*
X14642648Y6518889D01*
X14653397Y6516613D01*
X14664409Y6514705D01*
X14675683Y6513166D01*
X14687218Y6511997D01*
X14699016Y6511197D01*
X14711075Y6510766D01*
X14719260Y6510684D01*
X14729697Y6510833D01*
X14740005Y6511280D01*
X14750183Y6512024D01*
X14760232Y6513066D01*
X14770150Y6514405D01*
X14779939Y6516042D01*
X14789598Y6517977D01*
X14799127Y6520210D01*
X14808613Y6522948D01*
X14819650Y6526612D01*
X14830309Y6530687D01*
X14840590Y6535175D01*
X14850493Y6540076D01*
X14855303Y6542680D01*
X14864140Y6548222D01*
X14872487Y6554161D01*
X14880342Y6560497D01*
X14887707Y6567230D01*
X14891695Y6571257D01*
X14898441Y6578890D01*
X14904758Y6586953D01*
X14910646Y6595445D01*
X14916104Y6604367D01*
X14921133Y6613718D01*
X14922714Y6616930D01*
X14927328Y6626613D01*
X14931461Y6636794D01*
X14935113Y6647473D01*
X14938285Y6658650D01*
X14940560Y6668344D01*
X14941765Y6674327D01*
X14943447Y6684024D01*
X14945102Y6694978D01*
X14946732Y6707190D01*
X14948337Y6720661D01*
X14949915Y6735389D01*
X14950953Y6745907D01*
X14951980Y6756983D01*
X14952995Y6768619D01*
X14953999Y6780814D01*
X14954991Y6793568D01*
X14955972Y6806882D01*
X14956941Y6820754D01*
X14957899Y6835185D01*
X14958374Y6842610D01*
X14972784Y7079526D01*
X14973386Y7092554D01*
X14973971Y7105748D01*
X14974538Y7119108D01*
X14975089Y7132634D01*
X14975622Y7146325D01*
X14976138Y7160183D01*
X14976637Y7174207D01*
X14977119Y7188397D01*
X14977584Y7202753D01*
X14978031Y7217275D01*
X14978462Y7231963D01*
X14978875Y7246817D01*
X14979271Y7261837D01*
X14979649Y7277023D01*
X14980011Y7292375D01*
X14980355Y7307893D01*
X14994566Y7307631D01*
X15008073Y7307395D01*
X15020876Y7307185D01*
X15032974Y7307000D01*
X15044369Y7306841D01*
X15055059Y7306708D01*
X15065046Y7306601D01*
X15077265Y7306498D01*
X15088233Y7306440D01*
X15095638Y7306428D01*
X15196022Y7307893D01*
X15174773Y6976944D01*
X15161095Y6714139D01*
X15160304Y6702812D01*
X15159458Y6691852D01*
X15158556Y6681257D01*
X15157599Y6671030D01*
X15156587Y6661169D01*
X15154965Y6647063D01*
X15153218Y6633783D01*
X15151347Y6621326D01*
X15149351Y6609694D01*
X15147231Y6598887D01*
X15144987Y6588903D01*
X15141800Y6576874D01*
X15138915Y6567498D01*
X15134922Y6556024D01*
X15130500Y6544824D01*
X15125648Y6533899D01*
X15120368Y6523248D01*
X15114657Y6512871D01*
X15111025Y6506776D01*
X15104811Y6497919D01*
X15098226Y6489360D01*
X15091272Y6481099D01*
X15083949Y6473136D01*
X15076255Y6465471D01*
X15068192Y6458104D01*
X15064863Y6455241D01*
X15056128Y6447983D01*
X15047018Y6440984D01*
X15037535Y6434244D01*
X15027677Y6427764D01*
X15017446Y6421543D01*
X15006840Y6415582D01*
X14995861Y6409881D01*
X14984508Y6404439D01*
X14974791Y6400065D01*
X14964967Y6395918D01*
X14955036Y6391999D01*
X14944997Y6388307D01*
X14934852Y6384843D01*
X14924598Y6381607D01*
X14914238Y6378598D01*
X14903770Y6375817D01*
X14893195Y6373263D01*
X14882512Y6370936D01*
X14875331Y6369512D01*
X14865359Y6367678D01*
X14855349Y6365963D01*
X14845301Y6364366D01*
X14835214Y6362887D01*
X14825089Y6361526D01*
X14814927Y6360284D01*
X14804726Y6359160D01*
X14794487Y6358155D01*
X14784209Y6357267D01*
X14773894Y6356498D01*
X14763540Y6355848D01*
X14753148Y6355315D01*
X14742719Y6354901D01*
X14732250Y6354606D01*
X14721744Y6354428D01*
X14711200Y6354369D01*
X14700405Y6354431D01*
X14689699Y6354617D01*
X14679080Y6354927D01*
X14668549Y6355361D01*
X14658106Y6355919D01*
X14647750Y6356601D01*
X14637482Y6357408D01*
X14627302Y6358338D01*
X14617210Y6359392D01*
X14607206Y6360570D01*
X14597289Y6361873D01*
X14587460Y6363299D01*
X14577719Y6364849D01*
X14568066Y6366524D01*
X14553750Y6369268D01*
X14549023Y6370245D01*
X14536981Y6372942D01*
X14525129Y6375906D01*
X14513465Y6379136D01*
X14501991Y6382632D01*
X14490705Y6386395D01*
X14479608Y6390423D01*
X14468700Y6394718D01*
X14457981Y6399279D01*
X14447451Y6404106D01*
X14437110Y6409200D01*
X14430321Y6412743D01*
X14420439Y6418207D01*
X14410943Y6423791D01*
X14401834Y6429496D01*
X14393112Y6435320D01*
X14384775Y6441265D01*
X14376826Y6447330D01*
X14369262Y6453515D01*
X14359779Y6461949D01*
X14350982Y6470597D01*
X14344836Y6477223D01*
X14337148Y6486581D01*
X14331359Y6494575D01*
X14325890Y6503018D01*
X14320742Y6511912D01*
X14315914Y6521256D01*
X14311407Y6531051D01*
X14307221Y6541296D01*
X14304291Y6549275D01*
X14300284Y6561475D01*
X14296811Y6574020D01*
X14294557Y6583653D01*
X14292604Y6593480D01*
X14290951Y6603500D01*
X14289598Y6613713D01*
X14288547Y6624119D01*
X14287795Y6634719D01*
X14287344Y6645511D01*
X14287194Y6656497D01*
X14287271Y6667504D01*
X14287463Y6678361D01*
X14287720Y6688579D01*
X14288064Y6699639D01*
X14288415Y6709498D01*
X14288921Y6720185D01*
X14289522Y6731790D01*
X14290072Y6741735D01*
X14290682Y6752268D01*
X14291354Y6763389D01*
X14292087Y6775097D01*
X14292880Y6787393D01*
X14293300Y6793762D01*
X14299651Y6890482D01*
X14300517Y6902500D01*
X14301182Y6912379D01*
X14301859Y6923002D01*
X14302550Y6934367D01*
X14303253Y6946475D01*
X14303969Y6959325D01*
X14304699Y6972919D01*
X14305441Y6987255D01*
X14305942Y6997225D01*
X14306450Y7007525D01*
X14306963Y7018155D01*
X14307222Y7023594D01*
X14314061Y7172582D01*
X14314602Y7184147D01*
X14315126Y7195944D01*
X14315632Y7207972D01*
X14316122Y7220233D01*
X14316594Y7232725D01*
X14317049Y7245449D01*
X14317487Y7258405D01*
X14317908Y7271592D01*
X14318311Y7285012D01*
X14318698Y7298663D01*
X14318946Y7307893D01*
G37*
G36*
X16048674Y7026770D02*
G01*
X16262386Y6445472D01*
X16291939Y6370000D01*
X16188869Y6371466D01*
X16176533Y6371430D01*
X16164947Y6371350D01*
X16151834Y6371224D01*
X16140997Y6371100D01*
X16129302Y6370949D01*
X16116749Y6370773D01*
X16103336Y6370572D01*
X16089065Y6370344D01*
X16079074Y6370178D01*
X16068702Y6370000D01*
X16065422Y6381679D01*
X16061812Y6394092D01*
X16057872Y6407239D01*
X16053600Y6421120D01*
X16050569Y6430782D01*
X16047391Y6440770D01*
X16044066Y6451084D01*
X16040595Y6461725D01*
X16036976Y6472692D01*
X16033210Y6483986D01*
X16029297Y6495605D01*
X16025238Y6507551D01*
X16021031Y6519823D01*
X16016678Y6532422D01*
X16012293Y6545063D01*
X16007992Y6557400D01*
X16003775Y6569433D01*
X15999642Y6581164D01*
X15995593Y6592591D01*
X15991628Y6603714D01*
X15987746Y6614534D01*
X15983949Y6625051D01*
X15980236Y6635264D01*
X15976607Y6645174D01*
X15973061Y6654781D01*
X15969600Y6664084D01*
X15964565Y6677470D01*
X15959720Y6690173D01*
X15956594Y6698263D01*
X15595359Y6698263D01*
X15590341Y6688182D01*
X15585331Y6678090D01*
X15580329Y6667986D01*
X15575335Y6657871D01*
X15570349Y6647745D01*
X15565371Y6637607D01*
X15560402Y6627457D01*
X15555440Y6617296D01*
X15550487Y6607124D01*
X15545542Y6596940D01*
X15540605Y6586745D01*
X15535676Y6576538D01*
X15530755Y6566320D01*
X15525842Y6556091D01*
X15520938Y6545850D01*
X15516041Y6535597D01*
X15511153Y6525333D01*
X15506272Y6515058D01*
X15501400Y6504771D01*
X15496536Y6494473D01*
X15491680Y6484163D01*
X15486832Y6473842D01*
X15481992Y6463509D01*
X15477161Y6453165D01*
X15472337Y6442810D01*
X15467522Y6432443D01*
X15462714Y6422064D01*
X15457915Y6411674D01*
X15453124Y6401273D01*
X15448341Y6390860D01*
X15443566Y6380436D01*
X15438799Y6370000D01*
X15326936Y6371466D01*
X15315660Y6371430D01*
X15304690Y6371350D01*
X15291988Y6371224D01*
X15281324Y6371100D01*
X15269685Y6370949D01*
X15257072Y6370773D01*
X15243484Y6370572D01*
X15228922Y6370344D01*
X15218672Y6370178D01*
X15207990Y6370000D01*
X15217031Y6386048D01*
X15226262Y6402561D01*
X15235685Y6419540D01*
X15240467Y6428204D01*
X15245298Y6436984D01*
X15250176Y6445881D01*
X15255102Y6454894D01*
X15260075Y6464024D01*
X15265097Y6473269D01*
X15270166Y6482632D01*
X15275282Y6492110D01*
X15280447Y6501706D01*
X15285659Y6511417D01*
X15290919Y6521245D01*
X15296226Y6531189D01*
X15301581Y6541250D01*
X15306984Y6551427D01*
X15312435Y6561721D01*
X15317933Y6572131D01*
X15323479Y6582657D01*
X15329073Y6593300D01*
X15334715Y6604059D01*
X15340404Y6614934D01*
X15346141Y6625926D01*
X15351925Y6637034D01*
X15357757Y6648259D01*
X15363637Y6659600D01*
X15369565Y6671057D01*
X15375540Y6682631D01*
X15456943Y6838947D01*
X15656420Y6838947D01*
X15919713Y6838947D01*
X15811758Y7153532D01*
X15756071Y7039226D01*
X15656420Y6838947D01*
X15456943Y6838947D01*
X15556280Y7029700D01*
X15561534Y7039703D01*
X15566731Y7049621D01*
X15571872Y7059454D01*
X15576957Y7069203D01*
X15581985Y7078867D01*
X15586957Y7088448D01*
X15591873Y7097943D01*
X15596733Y7107354D01*
X15601536Y7116681D01*
X15606283Y7125924D01*
X15610974Y7135081D01*
X15615608Y7144155D01*
X15620186Y7153144D01*
X15624708Y7162049D01*
X15629174Y7170869D01*
X15633583Y7179604D01*
X15642233Y7196823D01*
X15650657Y7213703D01*
X15658856Y7230246D01*
X15666830Y7246451D01*
X15674579Y7262318D01*
X15682103Y7277847D01*
X15689402Y7293039D01*
X15696475Y7307893D01*
X15707416Y7307716D01*
X15717950Y7307550D01*
X15728077Y7307395D01*
X15742506Y7307185D01*
X15756021Y7307000D01*
X15768621Y7306841D01*
X15780307Y7306708D01*
X15791078Y7306601D01*
X15800935Y7306519D01*
X15812655Y7306450D01*
X15822749Y7306428D01*
X15834953Y7306440D01*
X15847109Y7306479D01*
X15859219Y7306543D01*
X15871281Y7306634D01*
X15883296Y7306750D01*
X15895263Y7306891D01*
X15907184Y7307059D01*
X15919057Y7307252D01*
X15930883Y7307471D01*
X15942662Y7307716D01*
X15950488Y7307893D01*
X16048674Y7026770D01*
G37*
G36*
X16384996Y6370000D02*
G01*
X16386268Y6382853D01*
X16387520Y6395824D01*
X16388753Y6408916D01*
X16389965Y6422127D01*
X16391157Y6435458D01*
X16392329Y6448909D01*
X16393481Y6462480D01*
X16394613Y6476170D01*
X16395725Y6489980D01*
X16396817Y6503910D01*
X16397889Y6517959D01*
X16398941Y6532128D01*
X16399973Y6546417D01*
X16400984Y6560826D01*
X16401976Y6575354D01*
X16402948Y6590002D01*
X16403900Y6604770D01*
X16404831Y6619658D01*
X16405743Y6634665D01*
X16406634Y6649792D01*
X16407506Y6665039D01*
X16408357Y6680405D01*
X16409189Y6695892D01*
X16410000Y6711498D01*
X16410792Y6727224D01*
X16411563Y6743069D01*
X16412314Y6759034D01*
X16413046Y6775119D01*
X16413757Y6791324D01*
X16414448Y6807648D01*
X16415119Y6824093D01*
X16415771Y6840656D01*
X16416417Y6857217D01*
X16417042Y6873651D01*
X16417648Y6889959D01*
X16418232Y6906140D01*
X16418796Y6922195D01*
X16419340Y6938124D01*
X16419863Y6953926D01*
X16420365Y6969601D01*
X16420847Y6985151D01*
X16421309Y7000574D01*
X16421750Y7015870D01*
X16422171Y7031040D01*
X16422571Y7046084D01*
X16422950Y7061001D01*
X16423309Y7075791D01*
X16423647Y7090456D01*
X16423965Y7104994D01*
X16424263Y7119405D01*
X16424540Y7133690D01*
X16424796Y7147849D01*
X16425032Y7161881D01*
X16425247Y7175787D01*
X16425442Y7189567D01*
X16425617Y7203220D01*
X16425770Y7216746D01*
X16425904Y7230147D01*
X16426017Y7243420D01*
X16426109Y7256568D01*
X16426181Y7269589D01*
X16426232Y7282483D01*
X16426263Y7295251D01*
X16426273Y7307893D01*
X16436486Y7307716D01*
X16446488Y7307550D01*
X16456278Y7307395D01*
X16470565Y7307185D01*
X16484376Y7307000D01*
X16497711Y7306841D01*
X16510568Y7306708D01*
X16522950Y7306601D01*
X16534854Y7306519D01*
X16546282Y7306463D01*
X16557234Y7306433D01*
X16564270Y7306428D01*
X16575469Y7306445D01*
X16586624Y7306496D01*
X16597737Y7306582D01*
X16608806Y7306702D01*
X16619833Y7306857D01*
X16630817Y7307046D01*
X16641758Y7307269D01*
X16652656Y7307527D01*
X16663511Y7307819D01*
X16674323Y7308145D01*
X16681507Y7308382D01*
X16692325Y7308774D01*
X16703254Y7309129D01*
X16714295Y7309444D01*
X16725448Y7309721D01*
X16736712Y7309959D01*
X16748088Y7310159D01*
X16759575Y7310320D01*
X16771174Y7310442D01*
X16782885Y7310526D01*
X16794708Y7310571D01*
X16802651Y7310580D01*
X16812568Y7310545D01*
X16822351Y7310442D01*
X16836775Y7310159D01*
X16850899Y7309721D01*
X16864722Y7309129D01*
X16878244Y7308382D01*
X16891466Y7307480D01*
X16904388Y7306424D01*
X16917009Y7305213D01*
X16929329Y7303848D01*
X16941349Y7302328D01*
X16945289Y7301787D01*
X16956936Y7299937D01*
X16968339Y7297683D01*
X16979496Y7295025D01*
X16990409Y7291964D01*
X17001077Y7288499D01*
X17011501Y7284631D01*
X17021680Y7280359D01*
X17031614Y7275684D01*
X17041303Y7270604D01*
X17050748Y7265122D01*
X17056908Y7261243D01*
X17065846Y7255169D01*
X17074342Y7248855D01*
X17082395Y7242300D01*
X17090007Y7235506D01*
X17097176Y7228470D01*
X17103903Y7221194D01*
X17110188Y7213678D01*
X17117879Y7203283D01*
X17124785Y7192460D01*
X17129448Y7184062D01*
X17135001Y7172476D01*
X17139813Y7160431D01*
X17142937Y7151098D01*
X17145644Y7141506D01*
X17147934Y7131658D01*
X17149808Y7121551D01*
X17151266Y7111187D01*
X17152307Y7100565D01*
X17152932Y7089686D01*
X17153140Y7078549D01*
X17152919Y7066738D01*
X17152257Y7055117D01*
X17151154Y7043687D01*
X17149610Y7032448D01*
X17147624Y7021400D01*
X17145197Y7010543D01*
X17144103Y7006253D01*
X17141140Y6995669D01*
X17137749Y6985287D01*
X17133928Y6975109D01*
X17129677Y6965133D01*
X17124997Y6955359D01*
X17119888Y6945789D01*
X17117725Y6942017D01*
X17112074Y6932808D01*
X17106113Y6923957D01*
X17099843Y6915463D01*
X17093262Y6907327D01*
X17086371Y6899549D01*
X17079170Y6892129D01*
X17076203Y6889261D01*
X17068729Y6882395D01*
X17061267Y6875994D01*
X17052329Y6868928D01*
X17043407Y6862531D01*
X17034503Y6856803D01*
X17028576Y6853357D01*
X17019460Y6848540D01*
X17009880Y6843980D01*
X16999836Y6839679D01*
X16989329Y6835634D01*
X16978358Y6831848D01*
X16974598Y6830643D01*
X16964633Y6827570D01*
X16953666Y6824307D01*
X16944171Y6821560D01*
X16934035Y6818690D01*
X16923258Y6815698D01*
X16911839Y6812584D01*
X16899780Y6809348D01*
X16893510Y6807684D01*
X16940160Y6715360D01*
X16944773Y6706501D01*
X16950095Y6696409D01*
X16956125Y6685085D01*
X16962863Y6672530D01*
X16967749Y6663475D01*
X16972950Y6653872D01*
X16978465Y6643721D01*
X16984295Y6633023D01*
X16990441Y6621778D01*
X16996901Y6609984D01*
X17003676Y6597643D01*
X17010765Y6584755D01*
X17018170Y6571319D01*
X17025889Y6557335D01*
X17095254Y6433504D01*
X17100134Y6424531D01*
X17105297Y6414685D01*
X17110767Y6404118D01*
X17115908Y6394119D01*
X17121728Y6382747D01*
X17126539Y6373316D01*
X17128227Y6370000D01*
X17117977Y6370178D01*
X17108172Y6370344D01*
X17094298Y6370572D01*
X17081425Y6370773D01*
X17069552Y6370949D01*
X17058679Y6371100D01*
X17048806Y6371224D01*
X17037199Y6371350D01*
X17027370Y6371430D01*
X17017585Y6371466D01*
X17006059Y6371430D01*
X16995077Y6371350D01*
X16982531Y6371224D01*
X16972095Y6371100D01*
X16960778Y6370949D01*
X16948582Y6370773D01*
X16935505Y6370572D01*
X16921548Y6370344D01*
X16911754Y6370178D01*
X16901570Y6370000D01*
X16825366Y6557335D01*
X16820233Y6568268D01*
X16814848Y6579698D01*
X16810644Y6588596D01*
X16806299Y6597773D01*
X16801811Y6607229D01*
X16797183Y6616964D01*
X16792412Y6626979D01*
X16787500Y6637272D01*
X16782446Y6647844D01*
X16777250Y6658696D01*
X16694207Y6829666D01*
X16689201Y6839483D01*
X16684518Y6848950D01*
X16679370Y6859585D01*
X16674916Y6868935D01*
X16670165Y6879033D01*
X16665116Y6889879D01*
X16659769Y6901473D01*
X16671123Y6897809D01*
X16682224Y6894634D01*
X16693074Y6891947D01*
X16703672Y6889749D01*
X16714018Y6888040D01*
X16724112Y6886818D01*
X16733954Y6886086D01*
X16743545Y6885841D01*
X16754535Y6886007D01*
X16765340Y6886503D01*
X16775961Y6887329D01*
X16786398Y6888486D01*
X16796649Y6889974D01*
X16806717Y6891792D01*
X16816599Y6893941D01*
X16826297Y6896420D01*
X16835810Y6899230D01*
X16845139Y6902371D01*
X16851256Y6904648D01*
X16863113Y6909670D01*
X16874260Y6915334D01*
X16884698Y6921638D01*
X16894426Y6928584D01*
X16903443Y6936171D01*
X16911752Y6944399D01*
X16919350Y6953268D01*
X16926238Y6962778D01*
X16932363Y6972777D01*
X16937672Y6982989D01*
X16942164Y6993415D01*
X16945839Y7004055D01*
X16948697Y7014908D01*
X16950739Y7025976D01*
X16951964Y7037257D01*
X16952372Y7048751D01*
X16951969Y7059230D01*
X16950758Y7069417D01*
X16948740Y7079311D01*
X16945915Y7088914D01*
X16942283Y7098225D01*
X16940893Y7101264D01*
X16936130Y7110074D01*
X16930268Y7118368D01*
X16923307Y7126148D01*
X16915247Y7133412D01*
X16906088Y7140161D01*
X16902791Y7142296D01*
X16894215Y7147265D01*
X16885126Y7151637D01*
X16875525Y7155413D01*
X16865410Y7158592D01*
X16854783Y7161175D01*
X16843643Y7163162D01*
X16839043Y7163790D01*
X16827442Y7165197D01*
X16815840Y7166366D01*
X16804239Y7167296D01*
X16792637Y7167988D01*
X16781036Y7168441D01*
X16769434Y7168656D01*
X16764794Y7168675D01*
X16753589Y7168629D01*
X16742232Y7168514D01*
X16731344Y7168359D01*
X16721458Y7168191D01*
X16710832Y7167987D01*
X16708618Y7167942D01*
X16697069Y7167731D01*
X16687246Y7167588D01*
X16676903Y7167467D01*
X16666042Y7167370D01*
X16654662Y7167296D01*
X16642763Y7167244D01*
X16630345Y7167216D01*
X16620690Y7167209D01*
X16608234Y6885109D01*
X16595289Y6370000D01*
X16488799Y6371466D01*
X16477410Y6371414D01*
X16465073Y6371293D01*
X16453340Y6371144D01*
X16443453Y6371002D01*
X16432635Y6370835D01*
X16420884Y6370642D01*
X16408203Y6370423D01*
X16394589Y6370178D01*
X16384996Y6370000D01*
G37*
G36*
X17469434Y6370000D02*
G01*
X17484577Y6571501D01*
X17499720Y6871675D01*
X17509246Y7167209D01*
X17461130Y7167209D01*
X17416678Y7167209D01*
X17373935Y7167209D01*
X17215422Y7167209D01*
X17216104Y7178607D01*
X17216746Y7189657D01*
X17217348Y7200359D01*
X17217910Y7210715D01*
X17218432Y7220723D01*
X17219139Y7235084D01*
X17219757Y7248664D01*
X17220284Y7261463D01*
X17220722Y7273480D01*
X17221069Y7284715D01*
X17221325Y7295170D01*
X17221528Y7307893D01*
X17233911Y7307818D01*
X17246330Y7307745D01*
X17258785Y7307675D01*
X17271277Y7307607D01*
X17283805Y7307541D01*
X17296369Y7307478D01*
X17308970Y7307417D01*
X17321606Y7307359D01*
X17334279Y7307303D01*
X17346988Y7307249D01*
X17359734Y7307198D01*
X17372516Y7307149D01*
X17385334Y7307102D01*
X17398188Y7307058D01*
X17411078Y7307016D01*
X17424005Y7306977D01*
X17436968Y7306940D01*
X17449967Y7306906D01*
X17463003Y7306873D01*
X17476075Y7306844D01*
X17489183Y7306816D01*
X17502327Y7306791D01*
X17515507Y7306768D01*
X17528724Y7306748D01*
X17541977Y7306730D01*
X17555267Y7306715D01*
X17568592Y7306702D01*
X17581954Y7306691D01*
X17595352Y7306683D01*
X17608786Y7306677D01*
X17622257Y7306673D01*
X17635764Y7306672D01*
X17882449Y7307160D01*
X18014340Y7307893D01*
X18013512Y7296639D01*
X18012737Y7285713D01*
X18012016Y7275115D01*
X18011348Y7264845D01*
X18010734Y7254904D01*
X18009912Y7240607D01*
X18009211Y7227049D01*
X18008630Y7214229D01*
X18008169Y7202147D01*
X18007828Y7190804D01*
X18007608Y7180200D01*
X18007508Y7170334D01*
X18007501Y7167209D01*
X17992001Y7167209D01*
X17976582Y7167209D01*
X17961242Y7167209D01*
X17945983Y7167209D01*
X17930803Y7167209D01*
X17915704Y7167209D01*
X17900685Y7167209D01*
X17885746Y7167209D01*
X17870887Y7167209D01*
X17856109Y7167209D01*
X17841410Y7167209D01*
X17826792Y7167209D01*
X17812254Y7167209D01*
X17797796Y7167209D01*
X17783418Y7167209D01*
X17769120Y7167209D01*
X17716120Y7167209D01*
X17707815Y7041180D01*
X17687787Y6556114D01*
X17686566Y6474781D01*
X17686394Y6462137D01*
X17686246Y6449364D01*
X17686120Y6436461D01*
X17686017Y6423429D01*
X17685954Y6413569D01*
X17685905Y6403636D01*
X17685868Y6393631D01*
X17685845Y6383552D01*
X17685834Y6373401D01*
X17685833Y6370000D01*
X17581297Y6371466D01*
X17570101Y6371396D01*
X17557552Y6371260D01*
X17544783Y6371100D01*
X17533613Y6370949D01*
X17521078Y6370773D01*
X17507178Y6370572D01*
X17497152Y6370423D01*
X17486520Y6370262D01*
X17475281Y6370091D01*
X17469434Y6370000D01*
G37*
D14*
G36*
X39482065Y6569756D02*
G01*
X39483112Y6585070D01*
X39484146Y6600391D01*
X39485167Y6615717D01*
X39486175Y6631050D01*
X39487171Y6646389D01*
X39488153Y6661734D01*
X39489123Y6677085D01*
X39490079Y6692442D01*
X39491023Y6707806D01*
X39491954Y6723176D01*
X39492872Y6738552D01*
X39493777Y6753934D01*
X39494670Y6769323D01*
X39495549Y6784718D01*
X39496416Y6800119D01*
X39497269Y6815526D01*
X39498110Y6830939D01*
X39498938Y6846358D01*
X39499753Y6861784D01*
X39500555Y6877216D01*
X39501344Y6892654D01*
X39502121Y6908098D01*
X39502884Y6923549D01*
X39503635Y6939006D01*
X39504373Y6954469D01*
X39505097Y6969938D01*
X39505809Y6985413D01*
X39506508Y7000894D01*
X39507195Y7016382D01*
X39507868Y7031876D01*
X39508528Y7047376D01*
X39509176Y7062883D01*
X39509807Y7078293D01*
X39510418Y7093473D01*
X39511009Y7108424D01*
X39511580Y7123146D01*
X39512131Y7137638D01*
X39512662Y7151900D01*
X39513173Y7165934D01*
X39513664Y7179738D01*
X39514135Y7193312D01*
X39514586Y7206657D01*
X39515016Y7219772D01*
X39515427Y7232658D01*
X39515818Y7245315D01*
X39516188Y7257742D01*
X39516539Y7269939D01*
X39516870Y7281907D01*
X39517180Y7293646D01*
X39517471Y7305155D01*
X39517741Y7316435D01*
X39517992Y7327485D01*
X39518222Y7338306D01*
X39518432Y7348898D01*
X39518623Y7359260D01*
X39518793Y7369392D01*
X39518943Y7379295D01*
X39519184Y7398413D01*
X39519344Y7416613D01*
X39519424Y7433895D01*
X39519434Y7442192D01*
X39518946Y7523525D01*
X39641556Y7522059D01*
X39652226Y7522166D01*
X39664895Y7522341D01*
X39674712Y7522487D01*
X39686190Y7522662D01*
X39699330Y7522867D01*
X39714131Y7523103D01*
X39724921Y7523276D01*
X39736450Y7523463D01*
X39748718Y7523664D01*
X39755129Y7523769D01*
X39753333Y7500448D01*
X39751579Y7476709D01*
X39749868Y7452552D01*
X39748198Y7427976D01*
X39746571Y7402982D01*
X39744985Y7377569D01*
X39743441Y7351739D01*
X39741939Y7325489D01*
X39740480Y7298822D01*
X39739062Y7271736D01*
X39737686Y7244232D01*
X39736352Y7216309D01*
X39735061Y7187968D01*
X39733811Y7159209D01*
X39732603Y7130031D01*
X39731437Y7100435D01*
X39730313Y7070420D01*
X39729231Y7039988D01*
X39728191Y7009136D01*
X39727193Y6977867D01*
X39726237Y6946179D01*
X39725323Y6914073D01*
X39724451Y6881548D01*
X39723621Y6848605D01*
X39722833Y6815244D01*
X39722087Y6781464D01*
X39721383Y6747266D01*
X39720721Y6712650D01*
X39720101Y6677615D01*
X39719523Y6642162D01*
X39718986Y6606290D01*
X39718492Y6570000D01*
X39609804Y6571466D01*
X39599988Y6571424D01*
X39589430Y6571331D01*
X39576468Y6571184D01*
X39565169Y6571039D01*
X39552517Y6570863D01*
X39538513Y6570658D01*
X39528425Y6570504D01*
X39517737Y6570337D01*
X39506447Y6570157D01*
X39494557Y6569963D01*
X39482065Y6569756D01*
G37*
G36*
X39877250Y6570000D02*
G01*
X39878024Y6580163D01*
X39878780Y6591176D01*
X39879422Y6602398D01*
X39879842Y6613076D01*
X39879937Y6619582D01*
X39884333Y6722164D01*
X39895287Y6732027D01*
X39906105Y6741833D01*
X39916788Y6751582D01*
X39927335Y6761273D01*
X39937747Y6770907D01*
X39948023Y6780484D01*
X39958164Y6790004D01*
X39968169Y6799467D01*
X39978039Y6808872D01*
X39987774Y6818220D01*
X39997373Y6827511D01*
X40006836Y6836744D01*
X40016164Y6845920D01*
X40025357Y6855040D01*
X40034414Y6864101D01*
X40043335Y6873106D01*
X40052230Y6882122D01*
X40061146Y6891218D01*
X40070083Y6900394D01*
X40079040Y6909651D01*
X40088019Y6918987D01*
X40097019Y6928404D01*
X40106040Y6937901D01*
X40115081Y6947478D01*
X40124144Y6957135D01*
X40133228Y6966872D01*
X40142333Y6976690D01*
X40151458Y6986587D01*
X40160605Y6996565D01*
X40169773Y7006623D01*
X40178961Y7016761D01*
X40188171Y7026979D01*
X40197281Y7037112D01*
X40206108Y7046995D01*
X40214652Y7056629D01*
X40222915Y7066012D01*
X40230895Y7075145D01*
X40238592Y7084029D01*
X40246007Y7092662D01*
X40253140Y7101046D01*
X40259990Y7109179D01*
X40266558Y7117062D01*
X40272843Y7124696D01*
X40281742Y7135678D01*
X40290005Y7146097D01*
X40297633Y7155954D01*
X40300034Y7159114D01*
X40307343Y7168808D01*
X40314002Y7177860D01*
X40320013Y7186271D01*
X40326614Y7195883D01*
X40332201Y7204494D01*
X40337568Y7213504D01*
X40340334Y7218710D01*
X40344914Y7228189D01*
X40349044Y7237868D01*
X40352364Y7247400D01*
X40353524Y7251682D01*
X40355458Y7261608D01*
X40356500Y7271603D01*
X40356699Y7278305D01*
X40356186Y7288833D01*
X40354647Y7298741D01*
X40351448Y7309812D01*
X40346771Y7319990D01*
X40340617Y7329275D01*
X40335694Y7334969D01*
X40327225Y7342895D01*
X40319262Y7349014D01*
X40310476Y7354692D01*
X40300867Y7359928D01*
X40290435Y7364724D01*
X40279181Y7369078D01*
X40276831Y7369896D01*
X40267161Y7372930D01*
X40257078Y7375559D01*
X40246583Y7377784D01*
X40235676Y7379604D01*
X40224357Y7381020D01*
X40212626Y7382032D01*
X40200483Y7382638D01*
X40187927Y7382841D01*
X40175948Y7382684D01*
X40163701Y7382215D01*
X40151187Y7381432D01*
X40138407Y7380337D01*
X40128646Y7379310D01*
X40118735Y7378108D01*
X40108673Y7376729D01*
X40098462Y7375174D01*
X40088100Y7373443D01*
X40084612Y7372827D01*
X40073778Y7370771D01*
X40062158Y7368359D01*
X40049752Y7365590D01*
X40036561Y7362465D01*
X40022584Y7358984D01*
X40012830Y7356466D01*
X40002726Y7353788D01*
X39992273Y7350953D01*
X39981471Y7347959D01*
X39970320Y7344807D01*
X39958820Y7341496D01*
X39946970Y7338027D01*
X39934771Y7334400D01*
X39928541Y7332527D01*
X39943684Y7416058D01*
X39945413Y7426983D01*
X39947116Y7438225D01*
X39948650Y7448619D01*
X39950337Y7460257D01*
X39952176Y7473139D01*
X39953656Y7483617D01*
X39955222Y7494794D01*
X39956873Y7506672D01*
X39967175Y7508670D01*
X39977441Y7510605D01*
X39987672Y7512477D01*
X39997868Y7514285D01*
X40008028Y7516030D01*
X40018153Y7517711D01*
X40028243Y7519329D01*
X40038298Y7520884D01*
X40048317Y7522375D01*
X40058301Y7523802D01*
X40068249Y7525166D01*
X40078163Y7526467D01*
X40088041Y7527704D01*
X40097883Y7528878D01*
X40107691Y7529988D01*
X40117463Y7531035D01*
X40127200Y7532018D01*
X40146567Y7533795D01*
X40165794Y7535318D01*
X40184879Y7536587D01*
X40203823Y7537602D01*
X40222626Y7538363D01*
X40241288Y7538871D01*
X40259808Y7539124D01*
X40269016Y7539156D01*
X40281614Y7539042D01*
X40294132Y7538701D01*
X40306567Y7538132D01*
X40318921Y7537336D01*
X40331194Y7536312D01*
X40343385Y7535060D01*
X40355494Y7533581D01*
X40367522Y7531875D01*
X40379468Y7529940D01*
X40391333Y7527779D01*
X40399197Y7526211D01*
X40410896Y7523667D01*
X40422364Y7520796D01*
X40433599Y7517599D01*
X40444603Y7514075D01*
X40455375Y7510226D01*
X40465915Y7506050D01*
X40476224Y7501547D01*
X40486300Y7496719D01*
X40496145Y7491564D01*
X40505757Y7486083D01*
X40512037Y7482248D01*
X40521189Y7476291D01*
X40529869Y7470146D01*
X40538076Y7463812D01*
X40545811Y7457289D01*
X40553074Y7450577D01*
X40562023Y7441334D01*
X40570133Y7431755D01*
X40577403Y7421840D01*
X40583834Y7411590D01*
X40585310Y7408975D01*
X40590806Y7398472D01*
X40595568Y7387848D01*
X40599598Y7377101D01*
X40602896Y7366232D01*
X40605460Y7355241D01*
X40607292Y7344128D01*
X40608391Y7332893D01*
X40608757Y7321536D01*
X40608568Y7311552D01*
X40608002Y7301569D01*
X40607057Y7291585D01*
X40605735Y7281602D01*
X40604035Y7271619D01*
X40603384Y7268291D01*
X40601280Y7258562D01*
X40598370Y7247624D01*
X40594969Y7237131D01*
X40591077Y7227081D01*
X40587997Y7220175D01*
X40583139Y7209421D01*
X40577967Y7198651D01*
X40572483Y7187866D01*
X40566687Y7177066D01*
X40560577Y7166251D01*
X40554154Y7155420D01*
X40547418Y7144574D01*
X40540369Y7133713D01*
X40534726Y7125310D01*
X40528511Y7116405D01*
X40521726Y7106998D01*
X40514369Y7097088D01*
X40506441Y7086676D01*
X40497943Y7075762D01*
X40488873Y7064345D01*
X40482509Y7056455D01*
X40475892Y7048341D01*
X40469021Y7040005D01*
X40461896Y7031445D01*
X40454517Y7022661D01*
X40450732Y7018186D01*
X40443057Y7009196D01*
X40435295Y7000177D01*
X40427448Y6991130D01*
X40419515Y6982053D01*
X40411496Y6972949D01*
X40403391Y6963815D01*
X40395200Y6954653D01*
X40386924Y6945463D01*
X40378561Y6936244D01*
X40370113Y6926996D01*
X40361579Y6917719D01*
X40352959Y6908414D01*
X40344253Y6899081D01*
X40335461Y6889718D01*
X40326583Y6880327D01*
X40317620Y6870908D01*
X40308636Y6861499D01*
X40299637Y6852139D01*
X40290623Y6842829D01*
X40281594Y6833569D01*
X40272549Y6824358D01*
X40263490Y6815197D01*
X40254414Y6806086D01*
X40245324Y6797024D01*
X40236218Y6788012D01*
X40227097Y6779049D01*
X40217961Y6770137D01*
X40208810Y6761273D01*
X40199643Y6752459D01*
X40190461Y6743695D01*
X40181264Y6734981D01*
X40172051Y6726316D01*
X40214794Y6726316D01*
X40367934Y6727537D01*
X40381820Y6727563D01*
X40394993Y6727640D01*
X40407454Y6727769D01*
X40419202Y6727949D01*
X40430237Y6728181D01*
X40440560Y6728464D01*
X40453215Y6728922D01*
X40464603Y6729472D01*
X40474723Y6730113D01*
X40479309Y6730468D01*
X40490966Y6731621D01*
X40501142Y6732776D01*
X40512074Y6734136D01*
X40523762Y6735703D01*
X40536205Y6737475D01*
X40546033Y6738940D01*
X40556286Y6740521D01*
X40566964Y6742217D01*
X40574319Y6743413D01*
X40573608Y6733096D01*
X40572850Y6722600D01*
X40572044Y6711925D01*
X40571190Y6701071D01*
X40570288Y6690038D01*
X40569339Y6678827D01*
X40568946Y6674292D01*
X40567988Y6662150D01*
X40567162Y6651329D01*
X40566282Y6639524D01*
X40565349Y6626733D01*
X40564614Y6616494D01*
X40563849Y6605702D01*
X40563054Y6594355D01*
X40562229Y6582455D01*
X40561374Y6570000D01*
X40551172Y6570091D01*
X40540960Y6570178D01*
X40530738Y6570262D01*
X40520506Y6570344D01*
X40510263Y6570423D01*
X40500011Y6570499D01*
X40489749Y6570572D01*
X40479477Y6570642D01*
X40469194Y6570709D01*
X40458902Y6570773D01*
X40448600Y6570835D01*
X40438287Y6570894D01*
X40427965Y6570949D01*
X40417633Y6571002D01*
X40407290Y6571052D01*
X40396938Y6571100D01*
X40386575Y6571144D01*
X40376203Y6571185D01*
X40365820Y6571224D01*
X40355428Y6571260D01*
X40345025Y6571293D01*
X40334613Y6571323D01*
X40324190Y6571350D01*
X40313758Y6571374D01*
X40303315Y6571396D01*
X40292863Y6571414D01*
X40282400Y6571430D01*
X40271927Y6571443D01*
X40261445Y6571453D01*
X40250952Y6571460D01*
X40240449Y6571465D01*
X40229937Y6571466D01*
X40217111Y6571465D01*
X40204402Y6571460D01*
X40191809Y6571453D01*
X40179333Y6571443D01*
X40166973Y6571430D01*
X40154729Y6571414D01*
X40142602Y6571396D01*
X40130591Y6571374D01*
X40118696Y6571350D01*
X40106918Y6571323D01*
X40095257Y6571293D01*
X40083712Y6571260D01*
X40072283Y6571224D01*
X40060970Y6571185D01*
X40049774Y6571144D01*
X40038695Y6571100D01*
X40027731Y6571052D01*
X40016884Y6571002D01*
X40006154Y6570949D01*
X39995540Y6570894D01*
X39985042Y6570835D01*
X39974661Y6570773D01*
X39964396Y6570709D01*
X39954248Y6570642D01*
X39944215Y6570572D01*
X39934300Y6570499D01*
X39924501Y6570423D01*
X39905251Y6570262D01*
X39886467Y6570091D01*
X39877250Y6570000D01*
G37*
G36*
X41531263Y6760021D02*
G01*
X41529146Y6748985D01*
X41527072Y6737979D01*
X41525040Y6727003D01*
X41523050Y6716058D01*
X41521102Y6705143D01*
X41519195Y6694259D01*
X41517331Y6683406D01*
X41515509Y6672582D01*
X41513729Y6661790D01*
X41511990Y6651028D01*
X41510294Y6640297D01*
X41508640Y6629596D01*
X41507027Y6618925D01*
X41505457Y6608286D01*
X41503928Y6597676D01*
X41502442Y6587097D01*
X41491981Y6584793D01*
X41481666Y6582583D01*
X41471496Y6580466D01*
X41461470Y6578442D01*
X41451590Y6576512D01*
X41441854Y6574675D01*
X41427523Y6572096D01*
X41413518Y6569727D01*
X41399840Y6567568D01*
X41386488Y6565619D01*
X41373462Y6563881D01*
X41360762Y6562354D01*
X41352477Y6561452D01*
X41340365Y6560186D01*
X41328574Y6559045D01*
X41317106Y6558028D01*
X41305960Y6557136D01*
X41295136Y6556368D01*
X41284634Y6555725D01*
X41274453Y6555206D01*
X41264595Y6554812D01*
X41251952Y6554480D01*
X41239881Y6554369D01*
X41226881Y6554482D01*
X41213953Y6554823D01*
X41201098Y6555391D01*
X41188315Y6556186D01*
X41175605Y6557207D01*
X41162967Y6558456D01*
X41150402Y6559932D01*
X41137909Y6561635D01*
X41125489Y6563565D01*
X41113142Y6565722D01*
X41100867Y6568107D01*
X41088664Y6570718D01*
X41076534Y6573556D01*
X41064476Y6576622D01*
X41052491Y6579914D01*
X41040579Y6583434D01*
X41028774Y6587230D01*
X41017112Y6591292D01*
X41005594Y6595618D01*
X40994218Y6600210D01*
X40982986Y6605067D01*
X40971897Y6610190D01*
X40960951Y6615578D01*
X40950148Y6621230D01*
X40939488Y6627149D01*
X40928971Y6633332D01*
X40918598Y6639780D01*
X40908367Y6646494D01*
X40898280Y6653473D01*
X40888335Y6660718D01*
X40878534Y6668227D01*
X40868876Y6676002D01*
X40859455Y6684014D01*
X40850363Y6692236D01*
X40841602Y6700669D01*
X40833171Y6709311D01*
X40825070Y6718162D01*
X40817299Y6727224D01*
X40809858Y6736496D01*
X40802747Y6745977D01*
X40795967Y6755669D01*
X40789516Y6765570D01*
X40783396Y6775682D01*
X40777605Y6786003D01*
X40772145Y6796534D01*
X40767015Y6807275D01*
X40762215Y6818226D01*
X40757745Y6829386D01*
X40753605Y6840715D01*
X40749731Y6852170D01*
X40746125Y6863750D01*
X40742786Y6875457D01*
X40739713Y6887289D01*
X40736909Y6899247D01*
X40734371Y6911332D01*
X40732100Y6923542D01*
X40730096Y6935878D01*
X40728360Y6948340D01*
X40726891Y6960928D01*
X40725689Y6973642D01*
X40724754Y6986482D01*
X40724086Y6999448D01*
X40723685Y7012540D01*
X40723551Y7025758D01*
X40723712Y7040131D01*
X40724193Y7054368D01*
X40724994Y7068471D01*
X40726116Y7082437D01*
X40727559Y7096268D01*
X40729322Y7109964D01*
X40731405Y7123524D01*
X40733810Y7136949D01*
X40736535Y7150239D01*
X40739580Y7163392D01*
X40742946Y7176411D01*
X40746632Y7189294D01*
X40750640Y7202041D01*
X40754967Y7214653D01*
X40759615Y7227129D01*
X40764584Y7239470D01*
X40769884Y7251624D01*
X40775465Y7263540D01*
X40781325Y7275216D01*
X40787467Y7286655D01*
X40793889Y7297855D01*
X40800591Y7308816D01*
X40807574Y7319539D01*
X40814837Y7330023D01*
X40822381Y7340269D01*
X40830205Y7350276D01*
X40838310Y7360045D01*
X40846696Y7369575D01*
X40855362Y7378867D01*
X40864308Y7387920D01*
X40873535Y7396735D01*
X40883042Y7405311D01*
X40892828Y7413662D01*
X40902830Y7421740D01*
X40913047Y7429545D01*
X40923480Y7437078D01*
X40934128Y7444337D01*
X40944992Y7451324D01*
X40956072Y7458038D01*
X40967367Y7464479D01*
X40978878Y7470647D01*
X40990604Y7476542D01*
X41002546Y7482165D01*
X41014704Y7487514D01*
X41027078Y7492591D01*
X41039667Y7497394D01*
X41052471Y7501925D01*
X41065491Y7506183D01*
X41078654Y7510176D01*
X41091885Y7513911D01*
X41105185Y7517389D01*
X41118553Y7520609D01*
X41131990Y7523571D01*
X41145496Y7526276D01*
X41159071Y7528723D01*
X41172714Y7530913D01*
X41186426Y7532845D01*
X41200207Y7534519D01*
X41214056Y7535936D01*
X41227974Y7537095D01*
X41241961Y7537997D01*
X41256016Y7538641D01*
X41270140Y7539027D01*
X41284333Y7539156D01*
X41298479Y7539027D01*
X41312829Y7538641D01*
X41327384Y7537997D01*
X41342142Y7537095D01*
X41357105Y7535936D01*
X41372272Y7534519D01*
X41387643Y7532845D01*
X41403218Y7530913D01*
X41418998Y7528723D01*
X41434981Y7526276D01*
X41451169Y7523571D01*
X41467561Y7520609D01*
X41484157Y7517389D01*
X41500957Y7513911D01*
X41517962Y7510176D01*
X41535170Y7506183D01*
X41535583Y7494310D01*
X41535995Y7483145D01*
X41536407Y7472689D01*
X41536956Y7459849D01*
X41537506Y7448268D01*
X41538056Y7437947D01*
X41538743Y7426817D01*
X41539567Y7416058D01*
X41544940Y7333748D01*
X41534123Y7336228D01*
X41523592Y7338602D01*
X41513347Y7340869D01*
X41503388Y7343029D01*
X41493716Y7345082D01*
X41479744Y7347962D01*
X41466416Y7350601D01*
X41453732Y7352999D01*
X41441692Y7355157D01*
X41430296Y7357075D01*
X41419544Y7358752D01*
X41409436Y7360189D01*
X41406210Y7360615D01*
X41393525Y7362160D01*
X41380992Y7363500D01*
X41368612Y7364633D01*
X41356385Y7365561D01*
X41344310Y7366282D01*
X41332388Y7366797D01*
X41320618Y7367106D01*
X41309002Y7367209D01*
X41295498Y7367022D01*
X41282097Y7366462D01*
X41268799Y7365528D01*
X41255604Y7364221D01*
X41242512Y7362540D01*
X41229523Y7360486D01*
X41216638Y7358058D01*
X41203855Y7355257D01*
X41191175Y7352082D01*
X41178599Y7348533D01*
X41170272Y7345960D01*
X41157998Y7341755D01*
X41146000Y7337107D01*
X41134276Y7332017D01*
X41122827Y7326485D01*
X41111653Y7320511D01*
X41100754Y7314095D01*
X41090129Y7307236D01*
X41079780Y7299936D01*
X41069705Y7292192D01*
X41059904Y7284007D01*
X41053524Y7278305D01*
X41044291Y7269434D01*
X41035463Y7260224D01*
X41027038Y7250675D01*
X41019017Y7240787D01*
X41011399Y7230559D01*
X41004185Y7219993D01*
X40997374Y7209087D01*
X40990967Y7197842D01*
X40984963Y7186258D01*
X40979363Y7174335D01*
X40975854Y7166197D01*
X40971009Y7153827D01*
X40966641Y7141353D01*
X40962749Y7128777D01*
X40959334Y7116097D01*
X40956395Y7103314D01*
X40953933Y7090429D01*
X40951947Y7077440D01*
X40950438Y7064348D01*
X40949405Y7051153D01*
X40948849Y7037855D01*
X40948743Y7028933D01*
X40948873Y7018378D01*
X40949262Y7007962D01*
X40949911Y6997686D01*
X40950819Y6987549D01*
X40951987Y6977551D01*
X40953415Y6967693D01*
X40955101Y6957974D01*
X40957048Y6948394D01*
X40960454Y6934285D01*
X40964444Y6920490D01*
X40969017Y6907008D01*
X40974175Y6893840D01*
X40979917Y6880985D01*
X40981960Y6876770D01*
X40988591Y6864443D01*
X40995934Y6852558D01*
X41003990Y6841116D01*
X41012758Y6830115D01*
X41022239Y6819557D01*
X41032433Y6809441D01*
X41043339Y6799768D01*
X41051006Y6793565D01*
X41058990Y6787558D01*
X41067290Y6781747D01*
X41075908Y6776134D01*
X41084842Y6770716D01*
X41089427Y6768081D01*
X41098818Y6763024D01*
X41108490Y6758293D01*
X41118442Y6753888D01*
X41128674Y6749809D01*
X41139187Y6746057D01*
X41149980Y6742631D01*
X41161054Y6739531D01*
X41172409Y6736757D01*
X41184044Y6734310D01*
X41195959Y6732189D01*
X41208155Y6730395D01*
X41220631Y6728926D01*
X41233388Y6727784D01*
X41246426Y6726969D01*
X41259744Y6726479D01*
X41273342Y6726316D01*
X41286428Y6726448D01*
X41299919Y6726843D01*
X41313814Y6727501D01*
X41328114Y6728423D01*
X41342818Y6729607D01*
X41357926Y6731056D01*
X41373440Y6732767D01*
X41389357Y6734742D01*
X41405680Y6736981D01*
X41422407Y6739482D01*
X41439538Y6742247D01*
X41457074Y6745275D01*
X41475014Y6748567D01*
X41493359Y6752122D01*
X41512109Y6755940D01*
X41531263Y6760021D01*
G37*
D15*
%TO.C,X2*%
X34600000Y19900000D02*
X36900000Y19900000D01*
X36900000Y19900000D02*
X36900000Y22600000D01*
%TO.C,X1*%
X28700000Y8450000D02*
X28700000Y10050000D01*
X26300000Y8450000D02*
X28700000Y8450000D01*
X28700000Y10050000D02*
X26300000Y10050000D01*
%TO.C,U3*%
X33610000Y18610000D02*
X33135000Y18610000D01*
X26390000Y18135000D02*
X26390000Y18610000D01*
X26390000Y11865000D02*
X26390000Y11390000D01*
X33610000Y18135000D02*
X33610000Y18610000D01*
X33610000Y11390000D02*
X33135000Y11390000D01*
X26390000Y18610000D02*
X26865000Y18610000D01*
X33610000Y11865000D02*
X33610000Y11390000D01*
%TO.C,U2*%
X10840000Y10462500D02*
X10840000Y11262500D01*
X13960000Y10462500D02*
X13960000Y12262500D01*
X13960000Y10462500D02*
X13960000Y9662500D01*
X10840000Y10462500D02*
X10840000Y9662500D01*
%TO.C,U1*%
X13310000Y18662500D02*
X13310000Y17862500D01*
X10190000Y18662500D02*
X10190000Y19462500D01*
X13310000Y18662500D02*
X13310000Y19462500D01*
X10190000Y18662500D02*
X10190000Y16862500D01*
%TO.C,SW1*%
X21990000Y4250000D02*
X28110000Y4250000D01*
X21990000Y550000D02*
X21990000Y4250000D01*
X28110000Y4250000D02*
X28110000Y550000D01*
X28110000Y550000D02*
X21990000Y550000D01*
%TO.C,R9*%
X30570000Y2553641D02*
X30570000Y2246359D01*
X31330000Y2553641D02*
X31330000Y2246359D01*
%TO.C,R8*%
X31743641Y4480000D02*
X31436359Y4480000D01*
X31743641Y3720000D02*
X31436359Y3720000D01*
%TO.C,R7*%
X37620000Y12196359D02*
X37620000Y12503641D01*
X38380000Y12196359D02*
X38380000Y12503641D01*
%TO.C,R6*%
X33870000Y9086359D02*
X33870000Y9393641D01*
X34630000Y9086359D02*
X34630000Y9393641D01*
%TO.C,R5*%
X33630000Y9096359D02*
X33630000Y9403641D01*
X32870000Y9096359D02*
X32870000Y9403641D01*
%TO.C,R4*%
X36330000Y12503641D02*
X36330000Y12196359D01*
X35570000Y12503641D02*
X35570000Y12196359D01*
%TO.C,R3*%
X17580000Y8673641D02*
X17580000Y8366359D01*
X18340000Y8673641D02*
X18340000Y8366359D01*
%TO.C,R2*%
X4346359Y19230000D02*
X4653641Y19230000D01*
X4346359Y18470000D02*
X4653641Y18470000D01*
%TO.C,R1*%
X4653641Y6370000D02*
X4346359Y6370000D01*
X4653641Y7130000D02*
X4346359Y7130000D01*
%TO.C,L2*%
X29600378Y23060000D02*
X30399622Y23060000D01*
X29600378Y21940000D02*
X30399622Y21940000D01*
%TO.C,J5*%
X43915000Y17010000D02*
X43285000Y17010000D01*
X43915000Y17650000D02*
X43915000Y17010000D01*
X46635000Y17600000D02*
X46635000Y14900000D01*
X43915000Y14850000D02*
X43915000Y15490000D01*
%TO.C,J4*%
X35960000Y5860000D02*
X35960000Y6160000D01*
X36250000Y6450000D02*
X35750000Y6450000D01*
X40790000Y5860000D02*
X40790000Y6160000D01*
X41860000Y6160000D02*
X41860000Y440000D01*
X41860000Y440000D02*
X38375000Y440000D01*
X40790000Y6160000D02*
X41860000Y6160000D01*
X36250000Y6150000D02*
X36250000Y6450000D01*
X34890000Y440000D02*
X38375000Y440000D01*
X34890000Y6160000D02*
X34890000Y440000D01*
X38375000Y5860000D02*
X40790000Y5860000D01*
X35960000Y6160000D02*
X34890000Y6160000D01*
X38375000Y5860000D02*
X35960000Y5860000D01*
%TO.C,J3*%
X14250000Y5810000D02*
X11835000Y5810000D01*
X11835000Y6110000D02*
X10765000Y6110000D01*
X14250000Y5810000D02*
X16665000Y5810000D01*
X10765000Y6110000D02*
X10765000Y390000D01*
X10765000Y390000D02*
X14250000Y390000D01*
X12125000Y6100000D02*
X12125000Y6400000D01*
X16665000Y6110000D02*
X17735000Y6110000D01*
X17735000Y390000D02*
X14250000Y390000D01*
X17735000Y6110000D02*
X17735000Y390000D01*
X16665000Y5810000D02*
X16665000Y6110000D01*
X12125000Y6400000D02*
X11625000Y6400000D01*
X11835000Y5810000D02*
X11835000Y6110000D01*
%TO.C,J2*%
X17730000Y16905000D02*
X18365000Y16905000D01*
X17730000Y16270000D02*
X17730000Y16905000D01*
%TO.C,J1*%
X3950000Y17470000D02*
X5650000Y17470000D01*
X3950000Y8130000D02*
X5650000Y8130000D01*
D16*
%TO.C,FLT1*%
X40592500Y16647500D02*
X42442500Y16647500D01*
X40592500Y16377500D02*
X40592500Y16647500D01*
X40602500Y15807500D02*
X40602500Y16077500D01*
X42442500Y16647500D02*
X42442500Y15807500D01*
X42442500Y15807500D02*
X40602500Y15807500D01*
X40637221Y16227500D02*
G75*
G03*
X40637221Y16227500I-44721J0D01*
G01*
%TO.C,D1*%
X16950000Y8495000D02*
G75*
G03*
X16950000Y8495000I-50000J0D01*
G01*
D15*
%TO.C,C19*%
X31790000Y2527836D02*
X31790000Y2312164D01*
X32510000Y2527836D02*
X32510000Y2312164D01*
%TO.C,C18*%
X25140000Y9357836D02*
X25140000Y9142164D01*
X25860000Y9357836D02*
X25860000Y9142164D01*
%TO.C,C17*%
X29140000Y9357836D02*
X29140000Y9142164D01*
X29860000Y9357836D02*
X29860000Y9142164D01*
%TO.C,C16*%
X39655000Y15877836D02*
X39655000Y15662164D01*
X40375000Y15877836D02*
X40375000Y15662164D01*
%TO.C,C15*%
X36655000Y15877836D02*
X36655000Y15662164D01*
X37375000Y15877836D02*
X37375000Y15662164D01*
%TO.C,C14*%
X30609420Y19990000D02*
X30890580Y19990000D01*
X30609420Y21010000D02*
X30890580Y21010000D01*
%TO.C,C13*%
X22807836Y6990000D02*
X22592164Y6990000D01*
X22807836Y7710000D02*
X22592164Y7710000D01*
%TO.C,C12*%
X34640000Y17607836D02*
X34640000Y17392164D01*
X35360000Y17607836D02*
X35360000Y17392164D01*
%TO.C,C11*%
X27377836Y21360000D02*
X27162164Y21360000D01*
X27377836Y20640000D02*
X27162164Y20640000D01*
%TO.C,C10*%
X26640580Y23010000D02*
X26359420Y23010000D01*
X26640580Y21990000D02*
X26359420Y21990000D01*
%TO.C,C9*%
X25360000Y11892164D02*
X25360000Y12107836D01*
X24640000Y11892164D02*
X24640000Y12107836D01*
%TO.C,C8*%
X35392164Y15140000D02*
X35607836Y15140000D01*
X35392164Y15860000D02*
X35607836Y15860000D01*
%TO.C,C7*%
X27377836Y20360000D02*
X27162164Y20360000D01*
X27377836Y19640000D02*
X27162164Y19640000D01*
%TO.C,C6*%
X24360000Y11892164D02*
X24360000Y12107836D01*
X23640000Y11892164D02*
X23640000Y12107836D01*
%TO.C,C5*%
X31642164Y9390000D02*
X31857836Y9390000D01*
X31642164Y10110000D02*
X31857836Y10110000D01*
%TO.C,C4*%
X24707836Y16610000D02*
X24492164Y16610000D01*
X24707836Y15890000D02*
X24492164Y15890000D01*
%TO.C,C3*%
X24510000Y9640580D02*
X24510000Y9359420D01*
X23490000Y9640580D02*
X23490000Y9359420D01*
%TO.C,C2*%
X11415580Y7090000D02*
X11134420Y7090000D01*
X11415580Y8110000D02*
X11134420Y8110000D01*
%TO.C,C1*%
X12765580Y13860000D02*
X12484420Y13860000D01*
X12765580Y12840000D02*
X12484420Y12840000D01*
%TD*%
M02*
