M48
; DRILL file {KiCad 7.0.9} date Thu Mar  7 22:07:25 2024
; FORMAT={-:-/ absolute / metric / decimal}
; #@! TF.CreationDate,2024-03-07T22:07:25-08:00
; #@! TF.GenerationSoftware,Kicad,Pcbnew,7.0.9
; #@! TF.FileFunction,Plated,1,4,PTH
FMAT,2
METRIC
; #@! TA.AperFunction,Plated,PTH,ViaDrill
T1C0.300
; #@! TA.AperFunction,Plated,PTH,ViaDrill
T2C0.400
; #@! TA.AperFunction,Plated,PTH,ComponentDrill
T3C0.400
; #@! TA.AperFunction,Plated,PTH,ComponentDrill
T4C0.500
; #@! TA.AperFunction,Plated,PTH,ComponentDrill
T5C0.600
; #@! TA.AperFunction,Plated,PTH,ComponentDrill
T6C2.200
%
G90
G05
T1
X3.98Y5.995
X5.745Y18.84
X8.55Y16.0
X8.6Y9.6
X9.625Y8.2
X9.625Y6.9
X10.8Y13.8
X10.8Y12.9
X11.75Y16.3
X12.4Y10.45
X12.925Y8.05
X12.925Y7.05
X15.6Y10.05
X17.95Y9.755
X18.1Y18.9
X19.85Y2.4
X21.515Y7.35
X23.0Y10.8
X23.0Y9.85
X23.0Y8.7
X24.0Y13.25
X24.1Y16.985
X24.85Y22.5
X25.0Y13.235
X25.1Y15.515
X25.5Y8.015
X26.1Y21.05
X26.1Y20.0
X26.75Y23.65
X27.7Y23.65
X27.85Y17.15
X27.9Y14.9
X27.95Y12.9
X28.8Y16.1
X28.9Y13.85
X29.5Y8.015
X29.5Y7.1
X29.95Y17.2
X30.05Y12.9
X30.34Y4.1
X30.45Y7.75
X30.95Y19.6
X31.2Y13.85
X31.25Y9.0
X31.3Y16.1
X32.1Y19.6
X32.1Y14.95
X32.1Y5.25
X32.15Y12.95
X32.16Y1.27
X32.2Y17.2
X32.25Y9.015
X35.05Y14.75
X35.2Y19.45
X35.72Y18.0
X35.735Y17.05
X35.8Y9.4
X35.95Y11.065
X35.98Y14.745
X36.3Y22.8
X37.0Y14.565
X38.0Y11.115
X40.0Y14.565
X41.6Y17.2
X41.6Y15.3
X44.15Y19.0
X44.3Y13.6
X45.2Y19.0
X45.3Y13.6
X46.25Y19.0
X46.35Y13.6
T2
X1.0Y20.0
X1.0Y18.0
X1.0Y16.0
X1.0Y14.0
X1.0Y12.0
X1.0Y10.0
X1.0Y8.0
X2.0Y5.0
X3.0Y24.0
X3.0Y22.0
X3.0Y20.0
X4.0Y5.0
X4.0Y3.0
X4.0Y1.0
X5.0Y24.0
X8.0Y7.0
X9.0Y24.0
X9.0Y1.0
X10.0Y22.0
X10.0Y5.0
X10.0Y3.0
X11.0Y24.0
X11.0Y1.0
X12.0Y3.0
X13.0Y24.0
X13.0Y1.0
X14.0Y3.0
X14.8Y8.4
X15.0Y24.0
X15.0Y1.0
X16.0Y22.0
X16.0Y3.0
X17.0Y24.0
X17.0Y1.0
X18.0Y22.0
X19.0Y24.0
X19.0Y5.0
X19.0Y3.0
X19.0Y1.0
X19.2Y19.6
X20.0Y22.0
X21.0Y24.0
X21.0Y1.0
X21.5Y11.0
X22.0Y22.0
X23.0Y24.0
X23.0Y1.0
X25.0Y24.0
X25.0Y1.0
X27.0Y1.0
X29.0Y1.0
X30.0Y24.0
X32.0Y24.0
X33.0Y1.0
X34.0Y24.0
X35.0Y1.0
X36.0Y24.0
X37.0Y8.0
X37.0Y1.0
X38.0Y24.0
X39.0Y22.0
X39.0Y1.0
X39.8Y10.0
X40.0Y24.0
X41.0Y1.0
X43.0Y10.0
X43.0Y8.0
X43.0Y6.0
X43.0Y1.0
X45.0Y10.0
X45.0Y8.0
X45.0Y6.0
X47.0Y12.0
X47.0Y10.0
X47.0Y8.0
X47.0Y6.0
T3
X5.2Y21.833
X5.2Y3.1
X5.683Y23.0
X5.683Y20.667
X5.683Y4.267
X5.683Y1.933
X6.85Y23.483
X6.85Y20.183
X6.85Y4.75
X6.85Y1.45
X8.017Y23.0
X8.017Y20.667
X8.017Y4.267
X8.017Y1.933
X8.5Y21.833
X8.5Y3.1
X43.25Y3.083
X43.433Y22.1
X43.733Y4.25
X43.733Y1.917
X43.917Y23.267
X43.917Y20.933
X44.9Y4.733
X44.9Y1.433
X45.083Y23.75
X45.083Y20.45
X46.067Y4.25
X46.067Y1.917
X46.25Y23.267
X46.25Y20.933
X46.55Y3.083
X46.733Y22.1
T4
X12.375Y4.95
X13.625Y4.95
X14.875Y4.95
X16.125Y4.95
X36.5Y5.0
X37.75Y5.0
X39.0Y5.0
X40.25Y5.0
T6
X6.85Y21.833
X6.85Y3.1
X44.9Y3.083
X45.083Y22.1
T5
G00X3.175Y17.12
M15
G01X2.375Y17.12
M16
G05
G00X3.175Y8.48
M15
G01X2.375Y8.48
M16
G05
G00X7.505Y17.12
M15
G01X6.405Y17.12
M16
G05
G00X7.505Y8.48
M15
G01X6.405Y8.48
M16
G05
T0
M30
