%TF.GenerationSoftware,KiCad,Pcbnew,7.0.9*%
%TF.CreationDate,2024-03-07T22:07:38-08:00*%
%TF.ProjectId,stm32mc,73746d33-326d-4632-9e6b-696361645f70,rev?*%
%TF.SameCoordinates,PX2625a00PY510ff40*%
%TF.FileFunction,Copper,L3,Inr*%
%TF.FilePolarity,Positive*%
%FSLAX46Y46*%
G04 Gerber Fmt 4.6, Leading zero omitted, Abs format (unit mm)*
G04 Created by KiCad (PCBNEW 7.0.9) date 2024-03-07 22:07:38*
%MOMM*%
%LPD*%
G01*
G04 APERTURE LIST*
G04 Aperture macros list*
%AMRoundRect*
0 Rectangle with rounded corners*
0 $1 Rounding radius*
0 $2 $3 $4 $5 $6 $7 $8 $9 X,Y pos of 4 corners*
0 Add a 4 corners polygon primitive as box body*
4,1,4,$2,$3,$4,$5,$6,$7,$8,$9,$2,$3,0*
0 Add four circle primitives for the rounded corners*
1,1,$1+$1,$2,$3*
1,1,$1+$1,$4,$5*
1,1,$1+$1,$6,$7*
1,1,$1+$1,$8,$9*
0 Add four rect primitives between the rounded corners*
20,1,$1+$1,$2,$3,$4,$5,0*
20,1,$1+$1,$4,$5,$6,$7,0*
20,1,$1+$1,$6,$7,$8,$9,0*
20,1,$1+$1,$8,$9,$2,$3,0*%
G04 Aperture macros list end*
%TA.AperFunction,ComponentPad*%
%ADD10C,0.700000*%
%TD*%
%TA.AperFunction,ComponentPad*%
%ADD11C,4.400000*%
%TD*%
%TA.AperFunction,ComponentPad*%
%ADD12RoundRect,0.200000X-0.200000X-0.450000X0.200000X-0.450000X0.200000X0.450000X-0.200000X0.450000X0*%
%TD*%
%TA.AperFunction,ComponentPad*%
%ADD13O,2.100000X1.000000*%
%TD*%
%TA.AperFunction,ComponentPad*%
%ADD14O,1.800000X1.000000*%
%TD*%
%TA.AperFunction,ViaPad*%
%ADD15C,0.900000*%
%TD*%
%TA.AperFunction,ViaPad*%
%ADD16C,0.700000*%
%TD*%
G04 APERTURE END LIST*
D10*
%TO.N,GND*%
%TO.C,H4*%
X46066726Y1916548D03*
X44900000Y4733274D03*
X43733274Y4250000D03*
X43250000Y3083274D03*
X46066726Y4250000D03*
X43733274Y1916548D03*
X44900000Y1433274D03*
D11*
X44900000Y3083274D03*
D10*
X46550000Y3083274D03*
%TD*%
%TO.N,GND*%
%TO.C,H3*%
X8016726Y1933274D03*
X6850000Y4750000D03*
X5683274Y4266726D03*
X5200000Y3100000D03*
X8016726Y4266726D03*
X5683274Y1933274D03*
X6850000Y1450000D03*
D11*
X6850000Y3100000D03*
D10*
X8500000Y3100000D03*
%TD*%
%TO.N,GND*%
%TO.C,H2*%
X8016726Y20666548D03*
X6850000Y23483274D03*
X5683274Y23000000D03*
X5200000Y21833274D03*
X8016726Y23000000D03*
X5683274Y20666548D03*
X6850000Y20183274D03*
D11*
X6850000Y21833274D03*
D10*
X8500000Y21833274D03*
%TD*%
%TO.N,GND*%
%TO.C,H1*%
X46733274Y22100000D03*
D11*
X45083274Y22100000D03*
D10*
X45083274Y20450000D03*
X43916548Y20933274D03*
X46250000Y23266726D03*
X43433274Y22100000D03*
X43916548Y23266726D03*
X45083274Y23750000D03*
X46250000Y20933274D03*
%TD*%
D12*
%TO.N,GND*%
%TO.C,J4*%
X36500000Y5000000D03*
%TD*%
%TO.N,GND*%
%TO.C,J3*%
X12375000Y4950000D03*
%TD*%
D13*
%TO.N,GND*%
%TO.C,J1*%
X6955000Y17120000D03*
D14*
X2775000Y17120000D03*
D13*
X6955000Y8480000D03*
D14*
X2775000Y8480000D03*
%TD*%
D15*
%TO.N,GND*%
X14800000Y8400000D03*
X39800000Y10000000D03*
X19200000Y19600000D03*
X19000000Y5000000D03*
X19000000Y3000000D03*
X21500000Y11000000D03*
X37000000Y8000000D03*
X8000000Y7000000D03*
X10000000Y5000000D03*
X10000000Y3000000D03*
X12000000Y3000000D03*
X14000000Y3000000D03*
X16000000Y3000000D03*
X10000000Y22000000D03*
X22000000Y22000000D03*
X20000000Y22000000D03*
X18000000Y22000000D03*
X16000000Y22000000D03*
X5000000Y24000000D03*
X3000000Y24000000D03*
X3000000Y22000000D03*
X3000000Y20000000D03*
X1000000Y20000000D03*
X1000000Y18000000D03*
X1000000Y16000000D03*
X1000000Y14000000D03*
X1000000Y12000000D03*
X1000000Y10000000D03*
X1000000Y8000000D03*
X2000000Y5000000D03*
X4000000Y5000000D03*
X4000000Y3000000D03*
X4000000Y1000000D03*
X9000000Y1000000D03*
X11000000Y1000000D03*
X13000000Y1000000D03*
X15000000Y1000000D03*
X17000000Y1000000D03*
X19000000Y1000000D03*
X21000000Y1000000D03*
X23000000Y1000000D03*
X25000000Y1000000D03*
X27000000Y1000000D03*
X29000000Y1000000D03*
X33000000Y1000000D03*
X35000000Y1000000D03*
X37000000Y1000000D03*
X39000000Y1000000D03*
X41000000Y1000000D03*
X43000000Y1000000D03*
X43000000Y6000000D03*
X43000000Y8000000D03*
X43000000Y10000000D03*
X45000000Y10000000D03*
X45000000Y8000000D03*
X45000000Y6000000D03*
X47000000Y6000000D03*
X47000000Y8000000D03*
X47000000Y10000000D03*
X47000000Y12000000D03*
X39000000Y22000000D03*
X40000000Y24000000D03*
X38000000Y24000000D03*
X36000000Y24000000D03*
X34000000Y24000000D03*
X32000000Y24000000D03*
X30000000Y24000000D03*
X25000000Y24000000D03*
X23000000Y24000000D03*
X21000000Y24000000D03*
X19000000Y24000000D03*
X17000000Y24000000D03*
X15000000Y24000000D03*
X13000000Y24000000D03*
X11000000Y24000000D03*
X9000000Y24000000D03*
D16*
X29500000Y7100000D03*
X46350000Y13600000D03*
X44300000Y13600000D03*
X44150000Y19000000D03*
X46250000Y19000000D03*
X8550000Y16000000D03*
X8600000Y9600000D03*
X11750000Y16300000D03*
X36300000Y22800000D03*
X35200000Y19450000D03*
X28900000Y13850000D03*
X31200000Y13850000D03*
X30050000Y12900000D03*
X31300000Y16100000D03*
X28800000Y16100000D03*
X32100000Y14950000D03*
X32150000Y12950000D03*
X27950000Y12900000D03*
X27900000Y14900000D03*
X27850000Y17150000D03*
X32200000Y17200000D03*
X29950000Y17200000D03*
X32100000Y19600000D03*
X30950000Y19600000D03*
X30340000Y4100000D03*
X32160000Y1270000D03*
X9625000Y6900000D03*
X9625000Y8200000D03*
X10800000Y12900000D03*
X10800000Y13800000D03*
X12400000Y10450000D03*
X23000000Y8700000D03*
X45300000Y13600000D03*
X45200000Y19000000D03*
X41600000Y17200000D03*
X41600000Y15300000D03*
X24850000Y22500000D03*
X35980000Y14745000D03*
X3980000Y5995000D03*
X5745000Y18840000D03*
X17950000Y9755000D03*
X21515000Y7350000D03*
X24100000Y16985000D03*
X26100000Y20000000D03*
X26100000Y21050000D03*
X35735000Y17050000D03*
X40000000Y14565000D03*
X37000000Y14565000D03*
X29500000Y8015000D03*
X32250000Y9015000D03*
X25500000Y8015000D03*
X25000000Y13235000D03*
X24000000Y13250000D03*
%TD*%
%TA.AperFunction,Conductor*%
%TO.N,GND*%
G36*
X47001806Y24699322D02*
G01*
X47025514Y24696987D01*
X47129217Y24686773D01*
X47143435Y24683945D01*
X47260717Y24648369D01*
X47274112Y24642820D01*
X47382193Y24585049D01*
X47394254Y24576990D01*
X47488986Y24499245D01*
X47499244Y24488987D01*
X47576989Y24394255D01*
X47585048Y24382194D01*
X47642817Y24274117D01*
X47648369Y24260714D01*
X47683943Y24143441D01*
X47686773Y24129214D01*
X47699322Y24001808D01*
X47699500Y23998179D01*
X47699500Y1001822D01*
X47699322Y998193D01*
X47686773Y870787D01*
X47683943Y856560D01*
X47648369Y739287D01*
X47642817Y725884D01*
X47585048Y617807D01*
X47576989Y605746D01*
X47499244Y511014D01*
X47488986Y500756D01*
X47394254Y423011D01*
X47382193Y414952D01*
X47274116Y357183D01*
X47260713Y351631D01*
X47143440Y316057D01*
X47129213Y313227D01*
X47001807Y300678D01*
X46998178Y300500D01*
X1001821Y300500D01*
X998192Y300678D01*
X870786Y313227D01*
X856559Y316057D01*
X739284Y351632D01*
X725882Y357184D01*
X617808Y414951D01*
X605746Y423010D01*
X511013Y500756D01*
X500755Y511014D01*
X423009Y605747D01*
X414950Y617809D01*
X357183Y725883D01*
X351631Y739285D01*
X351630Y739287D01*
X316055Y856565D01*
X313227Y870783D01*
X300678Y998193D01*
X300500Y1001821D01*
X300500Y2400000D01*
X19344353Y2400000D01*
X19364834Y2257546D01*
X19424623Y2126627D01*
X19518868Y2017861D01*
X19518869Y2017860D01*
X19518872Y2017857D01*
X19639947Y1940047D01*
X19746403Y1908789D01*
X19778035Y1899501D01*
X19778037Y1899500D01*
X19778039Y1899500D01*
X19921963Y1899500D01*
X19921964Y1899501D01*
X20060053Y1940047D01*
X20181128Y2017857D01*
X20275377Y2126627D01*
X20335165Y2257543D01*
X20355647Y2400000D01*
X20335165Y2542457D01*
X20275377Y2673373D01*
X20181128Y2782143D01*
X20124182Y2818740D01*
X20060054Y2859953D01*
X20060050Y2859954D01*
X19921964Y2900500D01*
X19921961Y2900500D01*
X19778039Y2900500D01*
X19778036Y2900500D01*
X19639949Y2859954D01*
X19639945Y2859953D01*
X19518875Y2782145D01*
X19518868Y2782140D01*
X19424623Y2673374D01*
X19364834Y2542455D01*
X19344353Y2400000D01*
X300500Y2400000D01*
X300500Y4456939D01*
X11625000Y4456939D01*
X11635614Y4368557D01*
X11691077Y4227908D01*
X11782435Y4107436D01*
X11902907Y4016078D01*
X12043556Y3960615D01*
X12131939Y3950000D01*
X12225000Y3950000D01*
X12225000Y4749555D01*
X12277455Y4714505D01*
X12350376Y4700000D01*
X12399624Y4700000D01*
X12472545Y4714505D01*
X12525000Y4749555D01*
X12525000Y3950000D01*
X12618061Y3950000D01*
X12706443Y3960615D01*
X12847092Y4016078D01*
X12967564Y4107436D01*
X13058922Y4227908D01*
X13114385Y4368557D01*
X13122688Y4437694D01*
X13145548Y4482857D01*
X13192090Y4502759D01*
X13240537Y4488088D01*
X13241208Y4487579D01*
X13281140Y4456939D01*
X13322159Y4425464D01*
X13468238Y4364956D01*
X13585639Y4349500D01*
X13585641Y4349500D01*
X13664359Y4349500D01*
X13664361Y4349500D01*
X13781762Y4364956D01*
X13927841Y4425464D01*
X14053282Y4521718D01*
X14149536Y4647159D01*
X14181633Y4724649D01*
X14215831Y4761968D01*
X14266016Y4768575D01*
X14308708Y4741377D01*
X14318367Y4724648D01*
X14350464Y4647159D01*
X14446715Y4521721D01*
X14446720Y4521716D01*
X14530345Y4457549D01*
X14572159Y4425464D01*
X14718238Y4364956D01*
X14835639Y4349500D01*
X14835641Y4349500D01*
X14914359Y4349500D01*
X14914361Y4349500D01*
X15031762Y4364956D01*
X15177841Y4425464D01*
X15303282Y4521718D01*
X15399536Y4647159D01*
X15431633Y4724649D01*
X15465831Y4761968D01*
X15516016Y4768575D01*
X15558708Y4741377D01*
X15568367Y4724648D01*
X15600464Y4647159D01*
X15696715Y4521721D01*
X15696720Y4521716D01*
X15780345Y4457549D01*
X15822159Y4425464D01*
X15968238Y4364956D01*
X16085639Y4349500D01*
X16085641Y4349500D01*
X16164359Y4349500D01*
X16164361Y4349500D01*
X16281762Y4364956D01*
X16427841Y4425464D01*
X16534022Y4506939D01*
X35750000Y4506939D01*
X35760614Y4418557D01*
X35816077Y4277908D01*
X35907435Y4157436D01*
X36027907Y4066078D01*
X36168556Y4010615D01*
X36256939Y4000000D01*
X36350000Y4000000D01*
X36350000Y4799555D01*
X36402455Y4764505D01*
X36475376Y4750000D01*
X36524624Y4750000D01*
X36597545Y4764505D01*
X36650000Y4799555D01*
X36650000Y4000000D01*
X36743061Y4000000D01*
X36831443Y4010615D01*
X36972092Y4066078D01*
X37092564Y4157436D01*
X37183922Y4277908D01*
X37239385Y4418557D01*
X37247688Y4487694D01*
X37270548Y4532857D01*
X37317090Y4552759D01*
X37365537Y4538088D01*
X37366208Y4537579D01*
X37406140Y4506939D01*
X37447159Y4475464D01*
X37593238Y4414956D01*
X37710639Y4399500D01*
X37710641Y4399500D01*
X37789359Y4399500D01*
X37789361Y4399500D01*
X37906762Y4414956D01*
X38052841Y4475464D01*
X38178282Y4571718D01*
X38274536Y4697159D01*
X38306633Y4774649D01*
X38340831Y4811968D01*
X38391016Y4818575D01*
X38433708Y4791377D01*
X38443366Y4774649D01*
X38447568Y4764505D01*
X38475464Y4697159D01*
X38571715Y4571721D01*
X38571720Y4571716D01*
X38636879Y4521718D01*
X38697159Y4475464D01*
X38843238Y4414956D01*
X38960639Y4399500D01*
X38960641Y4399500D01*
X39039359Y4399500D01*
X39039361Y4399500D01*
X39156762Y4414956D01*
X39302841Y4475464D01*
X39428282Y4571718D01*
X39524536Y4697159D01*
X39556633Y4774649D01*
X39590831Y4811968D01*
X39641016Y4818575D01*
X39683708Y4791377D01*
X39693366Y4774649D01*
X39697568Y4764505D01*
X39725464Y4697159D01*
X39821715Y4571721D01*
X39821720Y4571716D01*
X39886879Y4521718D01*
X39947159Y4475464D01*
X40093238Y4414956D01*
X40210639Y4399500D01*
X40210641Y4399500D01*
X40289359Y4399500D01*
X40289361Y4399500D01*
X40406762Y4414956D01*
X40552841Y4475464D01*
X40678282Y4571718D01*
X40774536Y4697159D01*
X40835044Y4843238D01*
X40855682Y5000000D01*
X40835044Y5156762D01*
X40774536Y5302841D01*
X40705773Y5392455D01*
X40678284Y5428280D01*
X40678279Y5428285D01*
X40552841Y5524536D01*
X40406761Y5585045D01*
X40316675Y5596905D01*
X40289361Y5600500D01*
X40210639Y5600500D01*
X40186171Y5597279D01*
X40093238Y5585045D01*
X39947158Y5524536D01*
X39821720Y5428285D01*
X39821715Y5428280D01*
X39725464Y5302842D01*
X39693367Y5225353D01*
X39659169Y5188033D01*
X39608983Y5181426D01*
X39566292Y5208624D01*
X39556633Y5225353D01*
X39544248Y5255252D01*
X39524536Y5302841D01*
X39455773Y5392455D01*
X39428284Y5428280D01*
X39428279Y5428285D01*
X39302841Y5524536D01*
X39156761Y5585045D01*
X39066675Y5596905D01*
X39039361Y5600500D01*
X38960639Y5600500D01*
X38936171Y5597279D01*
X38843238Y5585045D01*
X38697158Y5524536D01*
X38571720Y5428285D01*
X38571715Y5428280D01*
X38475464Y5302842D01*
X38443367Y5225353D01*
X38409169Y5188033D01*
X38358983Y5181426D01*
X38316292Y5208624D01*
X38306633Y5225353D01*
X38294248Y5255252D01*
X38274536Y5302841D01*
X38205773Y5392455D01*
X38178284Y5428280D01*
X38178279Y5428285D01*
X38052841Y5524536D01*
X37906761Y5585045D01*
X37816675Y5596905D01*
X37789361Y5600500D01*
X37710639Y5600500D01*
X37686171Y5597279D01*
X37593238Y5585045D01*
X37447160Y5524537D01*
X37366208Y5462421D01*
X37317931Y5447200D01*
X37271166Y5466572D01*
X37247793Y5511472D01*
X37247688Y5512307D01*
X37239385Y5581444D01*
X37183922Y5722093D01*
X37092564Y5842565D01*
X36972092Y5933923D01*
X36831443Y5989386D01*
X36743061Y6000000D01*
X36650000Y6000000D01*
X36650000Y5200446D01*
X36597545Y5235495D01*
X36524624Y5250000D01*
X36475376Y5250000D01*
X36402455Y5235495D01*
X36350000Y5200446D01*
X36350000Y6000000D01*
X36256939Y6000000D01*
X36168556Y5989386D01*
X36027907Y5933923D01*
X35907435Y5842565D01*
X35816077Y5722093D01*
X35760614Y5581444D01*
X35750000Y5493062D01*
X35750000Y5150000D01*
X36299554Y5150000D01*
X36264505Y5097545D01*
X36245102Y5000000D01*
X36264505Y4902455D01*
X36299554Y4850000D01*
X35750000Y4850000D01*
X35750000Y4506939D01*
X16534022Y4506939D01*
X16553282Y4521718D01*
X16649536Y4647159D01*
X16710044Y4793238D01*
X16730682Y4950000D01*
X16710044Y5106762D01*
X16650713Y5250000D01*
X31594353Y5250000D01*
X31614834Y5107546D01*
X31614834Y5107545D01*
X31614835Y5107543D01*
X31663949Y5000000D01*
X31674623Y4976627D01*
X31768868Y4867861D01*
X31768869Y4867860D01*
X31768872Y4867857D01*
X31855837Y4811968D01*
X31884981Y4793238D01*
X31889947Y4790047D01*
X31996403Y4758789D01*
X32028035Y4749501D01*
X32028037Y4749500D01*
X32028039Y4749500D01*
X32171963Y4749500D01*
X32171964Y4749501D01*
X32310053Y4790047D01*
X32431128Y4867857D01*
X32525377Y4976627D01*
X32585165Y5107543D01*
X32605647Y5250000D01*
X32585165Y5392457D01*
X32525377Y5523373D01*
X32431128Y5632143D01*
X32374182Y5668740D01*
X32310054Y5709953D01*
X32310050Y5709954D01*
X32171964Y5750500D01*
X32171961Y5750500D01*
X32028039Y5750500D01*
X32028036Y5750500D01*
X31889949Y5709954D01*
X31889945Y5709953D01*
X31768875Y5632145D01*
X31768868Y5632140D01*
X31674623Y5523374D01*
X31614834Y5392455D01*
X31594353Y5250000D01*
X16650713Y5250000D01*
X16649536Y5252841D01*
X16553282Y5378282D01*
X16553279Y5378285D01*
X16427841Y5474536D01*
X16281761Y5535045D01*
X16191675Y5546905D01*
X16164361Y5550500D01*
X16085639Y5550500D01*
X16061171Y5547279D01*
X15968238Y5535045D01*
X15822158Y5474536D01*
X15696720Y5378285D01*
X15696715Y5378280D01*
X15600464Y5252842D01*
X15568367Y5175353D01*
X15534169Y5138033D01*
X15483983Y5131426D01*
X15441292Y5158624D01*
X15431633Y5175353D01*
X15406721Y5235495D01*
X15399536Y5252841D01*
X15303282Y5378282D01*
X15303279Y5378285D01*
X15177841Y5474536D01*
X15031761Y5535045D01*
X14941675Y5546905D01*
X14914361Y5550500D01*
X14835639Y5550500D01*
X14811171Y5547279D01*
X14718238Y5535045D01*
X14572158Y5474536D01*
X14446720Y5378285D01*
X14446715Y5378280D01*
X14350464Y5252842D01*
X14318367Y5175353D01*
X14284169Y5138033D01*
X14233983Y5131426D01*
X14191292Y5158624D01*
X14181633Y5175353D01*
X14156721Y5235495D01*
X14149536Y5252841D01*
X14053282Y5378282D01*
X14053279Y5378285D01*
X13927841Y5474536D01*
X13781761Y5535045D01*
X13691675Y5546905D01*
X13664361Y5550500D01*
X13585639Y5550500D01*
X13561171Y5547279D01*
X13468238Y5535045D01*
X13322160Y5474537D01*
X13241208Y5412421D01*
X13192931Y5397200D01*
X13146166Y5416572D01*
X13122793Y5461472D01*
X13122688Y5462307D01*
X13114385Y5531444D01*
X13058922Y5672093D01*
X12967564Y5792565D01*
X12847092Y5883923D01*
X12706443Y5939386D01*
X12618061Y5950000D01*
X12525000Y5950000D01*
X12525000Y5150446D01*
X12472545Y5185495D01*
X12399624Y5200000D01*
X12350376Y5200000D01*
X12277455Y5185495D01*
X12225000Y5150446D01*
X12225000Y5950000D01*
X12131939Y5950000D01*
X12043556Y5939386D01*
X11902907Y5883923D01*
X11782435Y5792565D01*
X11691077Y5672093D01*
X11635614Y5531444D01*
X11625000Y5443062D01*
X11625000Y5100000D01*
X12174554Y5100000D01*
X12139505Y5047545D01*
X12120102Y4950000D01*
X12139505Y4852455D01*
X12174554Y4800000D01*
X11625000Y4800000D01*
X11625000Y4456939D01*
X300500Y4456939D01*
X300500Y7050000D01*
X12419353Y7050000D01*
X12439834Y6907546D01*
X12499623Y6776627D01*
X12593868Y6667861D01*
X12593869Y6667860D01*
X12593872Y6667857D01*
X12714947Y6590047D01*
X12821403Y6558789D01*
X12853035Y6549501D01*
X12853037Y6549500D01*
X12853039Y6549500D01*
X12996963Y6549500D01*
X12996964Y6549501D01*
X13135053Y6590047D01*
X13256128Y6667857D01*
X13350377Y6776627D01*
X13410165Y6907543D01*
X13430647Y7050000D01*
X13410165Y7192457D01*
X13350377Y7323373D01*
X13256128Y7432143D01*
X13169605Y7487748D01*
X13138950Y7528028D01*
X13141359Y7578589D01*
X13169606Y7612253D01*
X13256128Y7667857D01*
X13327305Y7750000D01*
X29944353Y7750000D01*
X29964834Y7607546D01*
X29964834Y7607545D01*
X29964835Y7607543D01*
X30001149Y7528028D01*
X30024623Y7476627D01*
X30118868Y7367861D01*
X30118869Y7367860D01*
X30118872Y7367857D01*
X30239947Y7290047D01*
X30346403Y7258789D01*
X30378035Y7249501D01*
X30378037Y7249500D01*
X30378039Y7249500D01*
X30521963Y7249500D01*
X30521964Y7249501D01*
X30660053Y7290047D01*
X30781128Y7367857D01*
X30875377Y7476627D01*
X30935165Y7607543D01*
X30955647Y7750000D01*
X30935165Y7892457D01*
X30875377Y8023373D01*
X30781128Y8132143D01*
X30706661Y8180000D01*
X30660054Y8209953D01*
X30660050Y8209954D01*
X30521964Y8250500D01*
X30521961Y8250500D01*
X30378039Y8250500D01*
X30378036Y8250500D01*
X30239949Y8209954D01*
X30239945Y8209953D01*
X30118875Y8132145D01*
X30118868Y8132140D01*
X30024623Y8023374D01*
X29964834Y7892455D01*
X29944353Y7750000D01*
X13327305Y7750000D01*
X13350377Y7776627D01*
X13410165Y7907543D01*
X13430647Y8050000D01*
X13410165Y8192457D01*
X13350377Y8323373D01*
X13256128Y8432143D01*
X13199182Y8468740D01*
X13135054Y8509953D01*
X13135050Y8509954D01*
X12996964Y8550500D01*
X12996961Y8550500D01*
X12853039Y8550500D01*
X12853036Y8550500D01*
X12714949Y8509954D01*
X12714945Y8509953D01*
X12593875Y8432145D01*
X12593868Y8432140D01*
X12499623Y8323374D01*
X12439834Y8192455D01*
X12419353Y8050000D01*
X12439834Y7907546D01*
X12499623Y7776627D01*
X12593868Y7667861D01*
X12593869Y7667860D01*
X12593872Y7667857D01*
X12652779Y7630000D01*
X12680394Y7612253D01*
X12711049Y7571972D01*
X12708640Y7521410D01*
X12680394Y7487747D01*
X12593872Y7432143D01*
X12593868Y7432140D01*
X12499623Y7323374D01*
X12439834Y7192455D01*
X12419353Y7050000D01*
X300500Y7050000D01*
X300500Y8330000D01*
X1534493Y8330000D01*
X1580715Y8163526D01*
X1667315Y8000179D01*
X1667316Y8000178D01*
X1787005Y7859268D01*
X1934193Y7747379D01*
X2101990Y7669747D01*
X2101995Y7669746D01*
X2282558Y7630001D01*
X2282562Y7630000D01*
X2625000Y7630000D01*
X2625000Y8180000D01*
X2925000Y8180000D01*
X2925000Y7630000D01*
X3221075Y7630000D01*
X3221097Y7630002D01*
X3358796Y7644978D01*
X3358807Y7644981D01*
X3534010Y7704013D01*
X3534012Y7704013D01*
X3692427Y7799329D01*
X3692429Y7799330D01*
X3826656Y7926476D01*
X3930413Y8079506D01*
X3998846Y8251260D01*
X3998847Y8251262D01*
X4011756Y8330000D01*
X5564493Y8330000D01*
X5610715Y8163526D01*
X5697315Y8000179D01*
X5697316Y8000178D01*
X5817005Y7859268D01*
X5964193Y7747379D01*
X6131990Y7669747D01*
X6131995Y7669746D01*
X6312558Y7630001D01*
X6312562Y7630000D01*
X6805000Y7630000D01*
X6805000Y8180000D01*
X7105000Y8180000D01*
X7105000Y7630000D01*
X7551075Y7630000D01*
X7551097Y7630002D01*
X7688796Y7644978D01*
X7688807Y7644981D01*
X7864010Y7704013D01*
X7864012Y7704013D01*
X8022427Y7799329D01*
X8022429Y7799330D01*
X8156656Y7926476D01*
X8260413Y8079506D01*
X8328846Y8251260D01*
X8328847Y8251262D01*
X8341756Y8330000D01*
X7767657Y8330000D01*
X7778201Y8343962D01*
X7808895Y8451840D01*
X7798546Y8563521D01*
X7765443Y8630000D01*
X8345507Y8630000D01*
X8299284Y8796475D01*
X8212684Y8959822D01*
X8212683Y8959823D01*
X8178557Y9000000D01*
X30744353Y9000000D01*
X30764834Y8857546D01*
X30824623Y8726627D01*
X30918868Y8617861D01*
X30918869Y8617860D01*
X30918872Y8617857D01*
X31039947Y8540047D01*
X31142436Y8509954D01*
X31178035Y8499501D01*
X31178037Y8499500D01*
X31178039Y8499500D01*
X31321963Y8499500D01*
X31321964Y8499501D01*
X31460053Y8540047D01*
X31581128Y8617857D01*
X31675377Y8726627D01*
X31735165Y8857543D01*
X31755647Y9000000D01*
X31735165Y9142457D01*
X31675377Y9273373D01*
X31593437Y9367938D01*
X31581131Y9382140D01*
X31581129Y9382141D01*
X31581128Y9382143D01*
X31553342Y9400000D01*
X35294353Y9400000D01*
X35314834Y9257546D01*
X35314834Y9257545D01*
X35314835Y9257543D01*
X35367394Y9142457D01*
X35374623Y9126627D01*
X35468868Y9017861D01*
X35468869Y9017860D01*
X35468872Y9017857D01*
X35589947Y8940047D01*
X35696403Y8908789D01*
X35728035Y8899501D01*
X35728037Y8899500D01*
X35728039Y8899500D01*
X35871963Y8899500D01*
X35871964Y8899501D01*
X36010053Y8940047D01*
X36131128Y9017857D01*
X36225377Y9126627D01*
X36285165Y9257543D01*
X36305647Y9400000D01*
X36285165Y9542457D01*
X36225377Y9673373D01*
X36131128Y9782143D01*
X36074182Y9818740D01*
X36010054Y9859953D01*
X36010050Y9859954D01*
X35871964Y9900500D01*
X35871961Y9900500D01*
X35728039Y9900500D01*
X35728036Y9900500D01*
X35589949Y9859954D01*
X35589945Y9859953D01*
X35468875Y9782145D01*
X35468868Y9782140D01*
X35374623Y9673374D01*
X35314834Y9542455D01*
X35294353Y9400000D01*
X31553342Y9400000D01*
X31510299Y9427662D01*
X31460054Y9459953D01*
X31460050Y9459954D01*
X31321964Y9500500D01*
X31321961Y9500500D01*
X31178039Y9500500D01*
X31178036Y9500500D01*
X31039949Y9459954D01*
X31039945Y9459953D01*
X30918875Y9382145D01*
X30918868Y9382140D01*
X30824623Y9273374D01*
X30764834Y9142455D01*
X30744353Y9000000D01*
X8178557Y9000000D01*
X8092994Y9100733D01*
X7945806Y9212622D01*
X7778009Y9290254D01*
X7778004Y9290255D01*
X7597441Y9330000D01*
X7105000Y9330000D01*
X7105000Y8780000D01*
X6805000Y8780000D01*
X6805000Y9330000D01*
X6802109Y9332891D01*
X6780717Y9378767D01*
X6793818Y9427662D01*
X6809382Y9443922D01*
X6872583Y9492417D01*
X6966433Y9614724D01*
X7025429Y9757154D01*
X7045552Y9910000D01*
X7027120Y10050000D01*
X15094353Y10050000D01*
X15114834Y9907546D01*
X15114834Y9907545D01*
X15114835Y9907543D01*
X15172103Y9782145D01*
X15174623Y9776627D01*
X15268868Y9667861D01*
X15268869Y9667860D01*
X15268872Y9667857D01*
X15389947Y9590047D01*
X15496403Y9558789D01*
X15528035Y9549501D01*
X15528037Y9549500D01*
X15528039Y9549500D01*
X15671963Y9549500D01*
X15671964Y9549501D01*
X15810053Y9590047D01*
X15931128Y9667857D01*
X16025377Y9776627D01*
X16058886Y9850000D01*
X22494353Y9850000D01*
X22514834Y9707546D01*
X22514834Y9707545D01*
X22514835Y9707543D01*
X22568494Y9590048D01*
X22574623Y9576627D01*
X22668868Y9467861D01*
X22668869Y9467860D01*
X22668872Y9467857D01*
X22731417Y9427662D01*
X22776689Y9398567D01*
X22789947Y9390047D01*
X22896403Y9358789D01*
X22928035Y9349501D01*
X22928037Y9349500D01*
X22928039Y9349500D01*
X23071963Y9349500D01*
X23071964Y9349501D01*
X23210053Y9390047D01*
X23331128Y9467857D01*
X23425377Y9576627D01*
X23485165Y9707543D01*
X23505647Y9850000D01*
X23485165Y9992457D01*
X23425377Y10123373D01*
X23331128Y10232143D01*
X23283504Y10262749D01*
X23252850Y10303027D01*
X23255259Y10353589D01*
X23283504Y10387252D01*
X23331128Y10417857D01*
X23425377Y10526627D01*
X23485165Y10657543D01*
X23505647Y10800000D01*
X23485165Y10942457D01*
X23429201Y11065000D01*
X35444353Y11065000D01*
X35464834Y10922546D01*
X35524623Y10791627D01*
X35618868Y10682861D01*
X35618869Y10682860D01*
X35618872Y10682857D01*
X35739947Y10605047D01*
X35846403Y10573789D01*
X35878035Y10564501D01*
X35878037Y10564500D01*
X35878039Y10564500D01*
X36021963Y10564500D01*
X36021964Y10564501D01*
X36160053Y10605047D01*
X36281128Y10682857D01*
X36375377Y10791627D01*
X36435165Y10922543D01*
X36455647Y11065000D01*
X36448458Y11115000D01*
X37494353Y11115000D01*
X37514834Y10972546D01*
X37514834Y10972545D01*
X37514835Y10972543D01*
X37574623Y10841627D01*
X37668868Y10732861D01*
X37668869Y10732860D01*
X37668872Y10732857D01*
X37789947Y10655047D01*
X37896403Y10623789D01*
X37928035Y10614501D01*
X37928037Y10614500D01*
X37928039Y10614500D01*
X38071963Y10614500D01*
X38071964Y10614501D01*
X38210053Y10655047D01*
X38331128Y10732857D01*
X38425377Y10841627D01*
X38485165Y10972543D01*
X38505647Y11115000D01*
X38485165Y11257457D01*
X38425377Y11388373D01*
X38331128Y11497143D01*
X38274182Y11533740D01*
X38210054Y11574953D01*
X38210050Y11574954D01*
X38071964Y11615500D01*
X38071961Y11615500D01*
X37928039Y11615500D01*
X37928036Y11615500D01*
X37789949Y11574954D01*
X37789945Y11574953D01*
X37668875Y11497145D01*
X37668868Y11497140D01*
X37574623Y11388374D01*
X37514834Y11257455D01*
X37494353Y11115000D01*
X36448458Y11115000D01*
X36435165Y11207457D01*
X36375377Y11338373D01*
X36281128Y11447143D01*
X36203331Y11497140D01*
X36160054Y11524953D01*
X36160050Y11524954D01*
X36021964Y11565500D01*
X36021961Y11565500D01*
X35878039Y11565500D01*
X35878036Y11565500D01*
X35739949Y11524954D01*
X35739945Y11524953D01*
X35618875Y11447145D01*
X35618868Y11447140D01*
X35524623Y11338374D01*
X35464834Y11207455D01*
X35444353Y11065000D01*
X23429201Y11065000D01*
X23425377Y11073373D01*
X23331128Y11182143D01*
X23274182Y11218740D01*
X23210054Y11259953D01*
X23210050Y11259954D01*
X23071964Y11300500D01*
X23071961Y11300500D01*
X22928039Y11300500D01*
X22928036Y11300500D01*
X22789949Y11259954D01*
X22789945Y11259953D01*
X22668875Y11182145D01*
X22668868Y11182140D01*
X22574623Y11073374D01*
X22514834Y10942455D01*
X22494353Y10800000D01*
X22514834Y10657546D01*
X22514834Y10657545D01*
X22514835Y10657543D01*
X22574623Y10526627D01*
X22668868Y10417861D01*
X22668870Y10417860D01*
X22668872Y10417857D01*
X22668874Y10417856D01*
X22668875Y10417855D01*
X22716493Y10387253D01*
X22747149Y10346972D01*
X22744740Y10296410D01*
X22716493Y10262747D01*
X22668875Y10232146D01*
X22668868Y10232140D01*
X22574623Y10123374D01*
X22514834Y9992455D01*
X22494353Y9850000D01*
X16058886Y9850000D01*
X16085165Y9907543D01*
X16105647Y10050000D01*
X16085165Y10192457D01*
X16025377Y10323373D01*
X15943507Y10417857D01*
X15931131Y10432140D01*
X15931129Y10432141D01*
X15931128Y10432143D01*
X15874182Y10468740D01*
X15810054Y10509953D01*
X15810050Y10509954D01*
X15671964Y10550500D01*
X15671961Y10550500D01*
X15528039Y10550500D01*
X15528036Y10550500D01*
X15389949Y10509954D01*
X15389945Y10509953D01*
X15268875Y10432145D01*
X15268868Y10432140D01*
X15174623Y10323374D01*
X15114834Y10192455D01*
X15094353Y10050000D01*
X7027120Y10050000D01*
X7025429Y10062846D01*
X6966433Y10205276D01*
X6872583Y10327583D01*
X6754938Y10417856D01*
X6750275Y10421434D01*
X6607845Y10480430D01*
X6520006Y10491994D01*
X6493373Y10495500D01*
X6416627Y10495500D01*
X6392769Y10492359D01*
X6302154Y10480430D01*
X6159724Y10421434D01*
X6037417Y10327583D01*
X5943566Y10205276D01*
X5884570Y10062846D01*
X5864448Y9910000D01*
X5884570Y9757155D01*
X5943566Y9614725D01*
X5943567Y9614724D01*
X6037417Y9492417D01*
X6144004Y9410629D01*
X6171201Y9367938D01*
X6164594Y9317752D01*
X6127273Y9283555D01*
X6122584Y9281796D01*
X6045987Y9255987D01*
X5887572Y9160672D01*
X5887570Y9160671D01*
X5753343Y9033525D01*
X5649586Y8880495D01*
X5581153Y8708741D01*
X5581152Y8708739D01*
X5568243Y8630001D01*
X5568244Y8630000D01*
X6142343Y8630000D01*
X6131799Y8616038D01*
X6101105Y8508160D01*
X6111454Y8396479D01*
X6144557Y8330000D01*
X5564493Y8330000D01*
X4011756Y8330000D01*
X3437657Y8330000D01*
X3448201Y8343962D01*
X3478895Y8451840D01*
X3468546Y8563521D01*
X3435443Y8630000D01*
X4015507Y8630000D01*
X3969284Y8796475D01*
X3882684Y8959822D01*
X3882683Y8959823D01*
X3762994Y9100733D01*
X3615806Y9212622D01*
X3448009Y9290254D01*
X3448004Y9290255D01*
X3267441Y9330000D01*
X2925000Y9330000D01*
X2925000Y8780000D01*
X2625000Y8780000D01*
X2625000Y9330000D01*
X2328925Y9330000D01*
X2328902Y9329999D01*
X2191203Y9315023D01*
X2191192Y9315020D01*
X2015989Y9255988D01*
X2015987Y9255988D01*
X1857572Y9160672D01*
X1857570Y9160671D01*
X1723343Y9033525D01*
X1619586Y8880495D01*
X1551153Y8708741D01*
X1551152Y8708739D01*
X1538243Y8630001D01*
X1538244Y8630000D01*
X2112343Y8630000D01*
X2101799Y8616038D01*
X2071105Y8508160D01*
X2081454Y8396479D01*
X2114557Y8330000D01*
X1534493Y8330000D01*
X300500Y8330000D01*
X300500Y12415754D01*
X17224342Y12415754D01*
X17255023Y12241759D01*
X17325001Y12079529D01*
X17325002Y12079528D01*
X17430509Y11937808D01*
X17430515Y11937803D01*
X17565849Y11824243D01*
X17565852Y11824242D01*
X17565854Y11824240D01*
X17723741Y11744946D01*
X17895660Y11704200D01*
X18028019Y11704200D01*
X18159486Y11719566D01*
X18325511Y11779995D01*
X18473126Y11877082D01*
X18594372Y12005595D01*
X18682712Y12158605D01*
X18733385Y12327863D01*
X18738504Y12415754D01*
X19256342Y12415754D01*
X19287023Y12241759D01*
X19357001Y12079529D01*
X19357002Y12079528D01*
X19462509Y11937808D01*
X19462515Y11937803D01*
X19597849Y11824243D01*
X19597852Y11824242D01*
X19597854Y11824240D01*
X19755741Y11744946D01*
X19927660Y11704200D01*
X20060019Y11704200D01*
X20191486Y11719566D01*
X20357511Y11779995D01*
X20505126Y11877082D01*
X20626372Y12005595D01*
X20714712Y12158605D01*
X20765385Y12327863D01*
X20775658Y12504245D01*
X20744977Y12678241D01*
X20674998Y12840472D01*
X20569491Y12982192D01*
X20569484Y12982198D01*
X20434150Y13095758D01*
X20276260Y13175054D01*
X20276256Y13175055D01*
X20104340Y13215800D01*
X19971981Y13215800D01*
X19840511Y13200434D01*
X19674487Y13140005D01*
X19674486Y13140005D01*
X19526874Y13042918D01*
X19405626Y12914403D01*
X19317288Y12761396D01*
X19317287Y12761394D01*
X19266615Y12592140D01*
X19266615Y12592137D01*
X19256342Y12415754D01*
X18738504Y12415754D01*
X18743658Y12504245D01*
X18712977Y12678241D01*
X18642998Y12840472D01*
X18537491Y12982192D01*
X18537484Y12982198D01*
X18402150Y13095758D01*
X18244260Y13175054D01*
X18244256Y13175055D01*
X18072340Y13215800D01*
X17939981Y13215800D01*
X17808511Y13200434D01*
X17642487Y13140005D01*
X17642486Y13140005D01*
X17494874Y13042918D01*
X17373626Y12914403D01*
X17285288Y12761396D01*
X17285287Y12761394D01*
X17234615Y12592140D01*
X17234615Y12592137D01*
X17224342Y12415754D01*
X300500Y12415754D01*
X300500Y14245019D01*
X15012050Y14245019D01*
X15038413Y14087035D01*
X15051546Y14008335D01*
X15129462Y13781371D01*
X15200456Y13650185D01*
X15243671Y13570332D01*
X15391058Y13380969D01*
X15567603Y13218448D01*
X15668046Y13152825D01*
X15768491Y13087201D01*
X15988231Y12990814D01*
X15988236Y12990813D01*
X15988240Y12990811D01*
X16220859Y12931904D01*
X16355490Y12920749D01*
X16400114Y12917050D01*
X16400118Y12917050D01*
X16519886Y12917050D01*
X16561895Y12920532D01*
X16699141Y12931904D01*
X16931760Y12990811D01*
X16931765Y12990814D01*
X16931768Y12990814D01*
X17151508Y13087201D01*
X17151510Y13087202D01*
X17352397Y13218448D01*
X17528942Y13380969D01*
X17676329Y13570332D01*
X17790538Y13781372D01*
X17868453Y14008331D01*
X17907950Y14245019D01*
X20092050Y14245019D01*
X20118413Y14087035D01*
X20131546Y14008335D01*
X20209462Y13781371D01*
X20280456Y13650185D01*
X20323671Y13570332D01*
X20471058Y13380969D01*
X20647603Y13218448D01*
X20748046Y13152825D01*
X20848491Y13087201D01*
X21068231Y12990814D01*
X21068236Y12990813D01*
X21068240Y12990811D01*
X21300859Y12931904D01*
X21435490Y12920749D01*
X21480114Y12917050D01*
X21480118Y12917050D01*
X21599886Y12917050D01*
X21641895Y12920532D01*
X21779141Y12931904D01*
X22011760Y12990811D01*
X22011765Y12990814D01*
X22011768Y12990814D01*
X22231508Y13087201D01*
X22231510Y13087202D01*
X22432397Y13218448D01*
X22608942Y13380969D01*
X22756329Y13570332D01*
X22870538Y13781372D01*
X22948453Y14008331D01*
X22987950Y14245019D01*
X22987950Y14484981D01*
X22948453Y14721669D01*
X22938727Y14750000D01*
X34544353Y14750000D01*
X34564834Y14607546D01*
X34624623Y14476627D01*
X34718868Y14367861D01*
X34718869Y14367860D01*
X34718872Y14367857D01*
X34839947Y14290047D01*
X34946403Y14258789D01*
X34978035Y14249501D01*
X34978037Y14249500D01*
X34978039Y14249500D01*
X35121963Y14249500D01*
X35121964Y14249501D01*
X35260053Y14290047D01*
X35381128Y14367857D01*
X35475377Y14476627D01*
X35535165Y14607543D01*
X35555647Y14750000D01*
X35535165Y14892457D01*
X35475377Y15023373D01*
X35381128Y15132143D01*
X35308891Y15178567D01*
X35260054Y15209953D01*
X35260050Y15209954D01*
X35121964Y15250500D01*
X35121961Y15250500D01*
X34978039Y15250500D01*
X34978036Y15250500D01*
X34839949Y15209954D01*
X34839945Y15209953D01*
X34718875Y15132145D01*
X34718868Y15132140D01*
X34624623Y15023374D01*
X34564834Y14892455D01*
X34544353Y14750000D01*
X22938727Y14750000D01*
X22870538Y14948628D01*
X22756329Y15159668D01*
X22608942Y15349031D01*
X22432397Y15511552D01*
X22427119Y15515000D01*
X24594353Y15515000D01*
X24614834Y15372546D01*
X24674623Y15241627D01*
X24768868Y15132861D01*
X24768869Y15132860D01*
X24768872Y15132857D01*
X24889947Y15055047D01*
X24996403Y15023789D01*
X25028035Y15014501D01*
X25028037Y15014500D01*
X25028039Y15014500D01*
X25171963Y15014500D01*
X25171964Y15014501D01*
X25310053Y15055047D01*
X25431128Y15132857D01*
X25525377Y15241627D01*
X25585165Y15372543D01*
X25605647Y15515000D01*
X25585165Y15657457D01*
X25525377Y15788373D01*
X25431128Y15897143D01*
X25374182Y15933740D01*
X25310054Y15974953D01*
X25310050Y15974954D01*
X25171964Y16015500D01*
X25171961Y16015500D01*
X25028039Y16015500D01*
X25028036Y16015500D01*
X24889949Y15974954D01*
X24889945Y15974953D01*
X24768875Y15897145D01*
X24768868Y15897140D01*
X24674623Y15788374D01*
X24614834Y15657455D01*
X24594353Y15515000D01*
X22427119Y15515000D01*
X22393209Y15537155D01*
X22231508Y15642800D01*
X22011768Y15739187D01*
X21817532Y15788374D01*
X21779141Y15798096D01*
X21743289Y15801067D01*
X21599886Y15812950D01*
X21599882Y15812950D01*
X21480118Y15812950D01*
X21480114Y15812950D01*
X21300859Y15798096D01*
X21068231Y15739187D01*
X20848491Y15642800D01*
X20647602Y15511552D01*
X20471059Y15349033D01*
X20323669Y15159665D01*
X20323667Y15159661D01*
X20209462Y14948630D01*
X20141273Y14750000D01*
X20131547Y14721669D01*
X20092050Y14484981D01*
X20092050Y14245019D01*
X17907950Y14245019D01*
X17907950Y14484981D01*
X17868453Y14721669D01*
X17790538Y14948628D01*
X17676329Y15159668D01*
X17528942Y15349031D01*
X17352397Y15511552D01*
X17313209Y15537155D01*
X17151508Y15642800D01*
X16931768Y15739187D01*
X16737532Y15788374D01*
X16699141Y15798096D01*
X16663289Y15801067D01*
X16519886Y15812950D01*
X16519882Y15812950D01*
X16400118Y15812950D01*
X16400114Y15812950D01*
X16220859Y15798096D01*
X15988231Y15739187D01*
X15768491Y15642800D01*
X15567602Y15511552D01*
X15391059Y15349033D01*
X15243669Y15159665D01*
X15243667Y15159661D01*
X15129462Y14948630D01*
X15061273Y14750000D01*
X15051547Y14721669D01*
X15012050Y14484981D01*
X15012050Y14245019D01*
X300500Y14245019D01*
X300500Y16970000D01*
X1534493Y16970000D01*
X1580715Y16803526D01*
X1667315Y16640179D01*
X1667316Y16640178D01*
X1787005Y16499268D01*
X1934193Y16387379D01*
X2101990Y16309747D01*
X2101995Y16309746D01*
X2282558Y16270001D01*
X2282562Y16270000D01*
X2625000Y16270000D01*
X2625000Y16820000D01*
X2925000Y16820000D01*
X2925000Y16270000D01*
X3221075Y16270000D01*
X3221097Y16270002D01*
X3358796Y16284978D01*
X3358807Y16284981D01*
X3534010Y16344013D01*
X3534012Y16344013D01*
X3692427Y16439329D01*
X3692429Y16439330D01*
X3826656Y16566476D01*
X3930413Y16719506D01*
X3998846Y16891260D01*
X3998847Y16891262D01*
X4011756Y16970000D01*
X5564493Y16970000D01*
X5610715Y16803526D01*
X5697315Y16640179D01*
X5697316Y16640178D01*
X5817005Y16499268D01*
X5964193Y16387379D01*
X6126299Y16312380D01*
X6162199Y16276694D01*
X6166763Y16226281D01*
X6140276Y16186512D01*
X6037421Y16107587D01*
X6037418Y16107584D01*
X5943566Y15985276D01*
X5884570Y15842846D01*
X5864448Y15690000D01*
X5884570Y15537155D01*
X5943566Y15394725D01*
X5943567Y15394724D01*
X6037417Y15272417D01*
X6159724Y15178567D01*
X6302154Y15119571D01*
X6416627Y15104500D01*
X6416629Y15104500D01*
X6493371Y15104500D01*
X6493373Y15104500D01*
X6607846Y15119571D01*
X6750276Y15178567D01*
X6872583Y15272417D01*
X6966433Y15394724D01*
X7025429Y15537154D01*
X7045552Y15690000D01*
X7025429Y15842846D01*
X6966433Y15985276D01*
X6872583Y16107583D01*
X6809385Y16156077D01*
X6782189Y16198768D01*
X6788797Y16248954D01*
X6802110Y16267111D01*
X6805000Y16270001D01*
X6805000Y16820000D01*
X7105000Y16820000D01*
X7105000Y16270000D01*
X7551075Y16270000D01*
X7551097Y16270002D01*
X7688796Y16284978D01*
X7688807Y16284981D01*
X7864010Y16344013D01*
X7864012Y16344013D01*
X8022427Y16439329D01*
X8022429Y16439330D01*
X8156656Y16566476D01*
X8260413Y16719506D01*
X8328846Y16891260D01*
X8328847Y16891262D01*
X8341756Y16970000D01*
X7767657Y16970000D01*
X7778201Y16983962D01*
X7808895Y17091840D01*
X7798546Y17203521D01*
X7765443Y17270000D01*
X8345507Y17270000D01*
X8303853Y17420019D01*
X15012050Y17420019D01*
X15051547Y17183331D01*
X15059719Y17159528D01*
X15129462Y16956371D01*
X15194922Y16835412D01*
X15243671Y16745332D01*
X15391058Y16555969D01*
X15567603Y16393448D01*
X15643269Y16344013D01*
X15768491Y16262201D01*
X15988231Y16165814D01*
X15988236Y16165813D01*
X15988240Y16165811D01*
X16220859Y16106904D01*
X16355490Y16095749D01*
X16400114Y16092050D01*
X16400118Y16092050D01*
X16519886Y16092050D01*
X16561895Y16095532D01*
X16699141Y16106904D01*
X16931760Y16165811D01*
X16931765Y16165814D01*
X16931768Y16165814D01*
X17151508Y16262201D01*
X17151510Y16262202D01*
X17352397Y16393448D01*
X17528942Y16555969D01*
X17676329Y16745332D01*
X17790538Y16956372D01*
X17868453Y17183331D01*
X17907950Y17420019D01*
X17907950Y17495754D01*
X18240342Y17495754D01*
X18271023Y17321759D01*
X18341001Y17159529D01*
X18341002Y17159528D01*
X18446509Y17017808D01*
X18446515Y17017803D01*
X18581849Y16904243D01*
X18581852Y16904242D01*
X18581854Y16904240D01*
X18739741Y16824946D01*
X18911660Y16784200D01*
X19044019Y16784200D01*
X19175486Y16799566D01*
X19341511Y16859995D01*
X19342304Y16860516D01*
X19365109Y16875516D01*
X19489126Y16957082D01*
X19610372Y17085595D01*
X19698712Y17238605D01*
X19749385Y17407863D01*
X19750093Y17420019D01*
X20092050Y17420019D01*
X20131547Y17183331D01*
X20139719Y17159528D01*
X20209462Y16956371D01*
X20274922Y16835412D01*
X20323671Y16745332D01*
X20471058Y16555969D01*
X20647603Y16393448D01*
X20723269Y16344013D01*
X20848491Y16262201D01*
X21068231Y16165814D01*
X21068236Y16165813D01*
X21068240Y16165811D01*
X21300859Y16106904D01*
X21435490Y16095749D01*
X21480114Y16092050D01*
X21480118Y16092050D01*
X21599886Y16092050D01*
X21641895Y16095532D01*
X21779141Y16106904D01*
X22011760Y16165811D01*
X22011765Y16165814D01*
X22011768Y16165814D01*
X22231508Y16262201D01*
X22231510Y16262202D01*
X22432397Y16393448D01*
X22608942Y16555969D01*
X22756329Y16745332D01*
X22870538Y16956372D01*
X22948453Y17183331D01*
X22987950Y17420019D01*
X22987950Y17659981D01*
X22948453Y17896669D01*
X22912979Y18000000D01*
X35214353Y18000000D01*
X35234834Y17857546D01*
X35234834Y17857545D01*
X35234835Y17857543D01*
X35260808Y17800671D01*
X35294623Y17726627D01*
X35388868Y17617861D01*
X35388869Y17617860D01*
X35388872Y17617857D01*
X35509947Y17540047D01*
X35616403Y17508789D01*
X35648035Y17499501D01*
X35648037Y17499500D01*
X35648039Y17499500D01*
X35791963Y17499500D01*
X35791964Y17499501D01*
X35930053Y17540047D01*
X36051128Y17617857D01*
X36145377Y17726627D01*
X36205165Y17857543D01*
X36225647Y18000000D01*
X36205165Y18142457D01*
X36145377Y18273373D01*
X36051128Y18382143D01*
X35994182Y18418740D01*
X35930054Y18459953D01*
X35930050Y18459954D01*
X35791964Y18500500D01*
X35791961Y18500500D01*
X35648039Y18500500D01*
X35648036Y18500500D01*
X35509949Y18459954D01*
X35509945Y18459953D01*
X35388875Y18382145D01*
X35388868Y18382140D01*
X35294623Y18273374D01*
X35234834Y18142455D01*
X35214353Y18000000D01*
X22912979Y18000000D01*
X22870538Y18123628D01*
X22756329Y18334668D01*
X22608942Y18524031D01*
X22432397Y18686552D01*
X22231508Y18817800D01*
X22011768Y18914187D01*
X21990205Y18919648D01*
X21779141Y18973096D01*
X21743289Y18976067D01*
X21599886Y18987950D01*
X21599882Y18987950D01*
X21480118Y18987950D01*
X21480114Y18987950D01*
X21300859Y18973096D01*
X21068231Y18914187D01*
X20848491Y18817800D01*
X20647602Y18686552D01*
X20471059Y18524033D01*
X20323669Y18334665D01*
X20323667Y18334661D01*
X20209462Y18123630D01*
X20131546Y17896666D01*
X20122323Y17841396D01*
X20092050Y17659981D01*
X20092050Y17420019D01*
X19750093Y17420019D01*
X19759658Y17584245D01*
X19728977Y17758241D01*
X19658998Y17920472D01*
X19553491Y18062192D01*
X19553484Y18062198D01*
X19418150Y18175758D01*
X19260260Y18255054D01*
X19260256Y18255055D01*
X19088340Y18295800D01*
X18955981Y18295800D01*
X18824511Y18280434D01*
X18658487Y18220005D01*
X18658486Y18220005D01*
X18510874Y18122918D01*
X18389626Y17994403D01*
X18301288Y17841396D01*
X18301287Y17841394D01*
X18250615Y17672140D01*
X18250615Y17672137D01*
X18240342Y17495754D01*
X17907950Y17495754D01*
X17907950Y17659981D01*
X17868453Y17896669D01*
X17790538Y18123628D01*
X17676329Y18334668D01*
X17528942Y18524031D01*
X17352397Y18686552D01*
X17151508Y18817800D01*
X16964111Y18900000D01*
X17594353Y18900000D01*
X17614834Y18757546D01*
X17674623Y18626627D01*
X17768868Y18517861D01*
X17768869Y18517860D01*
X17768872Y18517857D01*
X17889947Y18440047D01*
X17996403Y18408789D01*
X18028035Y18399501D01*
X18028037Y18399500D01*
X18028039Y18399500D01*
X18171963Y18399500D01*
X18171964Y18399501D01*
X18310053Y18440047D01*
X18431128Y18517857D01*
X18525377Y18626627D01*
X18585165Y18757543D01*
X18605647Y18900000D01*
X18585165Y19042457D01*
X18525377Y19173373D01*
X18431128Y19282143D01*
X18374182Y19318740D01*
X18310054Y19359953D01*
X18310050Y19359954D01*
X18171964Y19400500D01*
X18171961Y19400500D01*
X18028039Y19400500D01*
X18028036Y19400500D01*
X17889949Y19359954D01*
X17889945Y19359953D01*
X17768875Y19282145D01*
X17768868Y19282140D01*
X17674623Y19173374D01*
X17614834Y19042455D01*
X17594353Y18900000D01*
X16964111Y18900000D01*
X16931768Y18914187D01*
X16910205Y18919648D01*
X16699141Y18973096D01*
X16663289Y18976067D01*
X16519886Y18987950D01*
X16519882Y18987950D01*
X16400118Y18987950D01*
X16400114Y18987950D01*
X16220859Y18973096D01*
X15988231Y18914187D01*
X15768491Y18817800D01*
X15567602Y18686552D01*
X15391059Y18524033D01*
X15243669Y18334665D01*
X15243667Y18334661D01*
X15129462Y18123630D01*
X15051546Y17896666D01*
X15042323Y17841396D01*
X15012050Y17659981D01*
X15012050Y17420019D01*
X8303853Y17420019D01*
X8299284Y17436475D01*
X8212684Y17599822D01*
X8212683Y17599823D01*
X8092994Y17740733D01*
X7945806Y17852622D01*
X7778009Y17930254D01*
X7778004Y17930255D01*
X7597441Y17970000D01*
X7105000Y17970000D01*
X7105000Y17420000D01*
X6805000Y17420000D01*
X6805000Y17970000D01*
X6358925Y17970000D01*
X6358902Y17969999D01*
X6221203Y17955023D01*
X6221192Y17955020D01*
X6045989Y17895988D01*
X6045987Y17895988D01*
X5887572Y17800672D01*
X5887570Y17800671D01*
X5753343Y17673525D01*
X5649586Y17520495D01*
X5581153Y17348741D01*
X5581152Y17348739D01*
X5568243Y17270001D01*
X5568244Y17270000D01*
X6142343Y17270000D01*
X6131799Y17256038D01*
X6101105Y17148160D01*
X6111454Y17036479D01*
X6144557Y16970000D01*
X5564493Y16970000D01*
X4011756Y16970000D01*
X3437657Y16970000D01*
X3448201Y16983962D01*
X3478895Y17091840D01*
X3468546Y17203521D01*
X3435443Y17270000D01*
X4015507Y17270000D01*
X3969284Y17436475D01*
X3882684Y17599822D01*
X3882683Y17599823D01*
X3762994Y17740733D01*
X3615806Y17852622D01*
X3448009Y17930254D01*
X3448004Y17930255D01*
X3267441Y17970000D01*
X2925000Y17970000D01*
X2925000Y17420000D01*
X2625000Y17420000D01*
X2625000Y17970000D01*
X2328925Y17970000D01*
X2328902Y17969999D01*
X2191203Y17955023D01*
X2191192Y17955020D01*
X2015989Y17895988D01*
X2015987Y17895988D01*
X1857572Y17800672D01*
X1857570Y17800671D01*
X1723343Y17673525D01*
X1619586Y17520495D01*
X1551153Y17348741D01*
X1551152Y17348739D01*
X1538243Y17270001D01*
X1538244Y17270000D01*
X2112343Y17270000D01*
X2101799Y17256038D01*
X2071105Y17148160D01*
X2081454Y17036479D01*
X2114557Y16970000D01*
X1534493Y16970000D01*
X300500Y16970000D01*
X300500Y23650000D01*
X26244353Y23650000D01*
X26264834Y23507546D01*
X26324623Y23376627D01*
X26418868Y23267861D01*
X26418869Y23267860D01*
X26418872Y23267857D01*
X26539947Y23190047D01*
X26646403Y23158789D01*
X26678035Y23149501D01*
X26678037Y23149500D01*
X26678039Y23149500D01*
X26821963Y23149500D01*
X26821964Y23149501D01*
X26960053Y23190047D01*
X27081128Y23267857D01*
X27169075Y23369356D01*
X27213307Y23393965D01*
X27263012Y23384386D01*
X27280922Y23369357D01*
X27337417Y23304158D01*
X27368868Y23267861D01*
X27368869Y23267860D01*
X27368872Y23267857D01*
X27489947Y23190047D01*
X27596403Y23158789D01*
X27628035Y23149501D01*
X27628037Y23149500D01*
X27628039Y23149500D01*
X27771963Y23149500D01*
X27771964Y23149501D01*
X27910053Y23190047D01*
X28031128Y23267857D01*
X28125377Y23376627D01*
X28185165Y23507543D01*
X28205647Y23650000D01*
X28185165Y23792457D01*
X28125377Y23923373D01*
X28031128Y24032143D01*
X27974182Y24068740D01*
X27910054Y24109953D01*
X27910050Y24109954D01*
X27771964Y24150500D01*
X27771961Y24150500D01*
X27628039Y24150500D01*
X27628036Y24150500D01*
X27489949Y24109954D01*
X27489945Y24109953D01*
X27368875Y24032145D01*
X27368868Y24032140D01*
X27280926Y23930647D01*
X27236692Y23906036D01*
X27186988Y23915615D01*
X27169074Y23930647D01*
X27081131Y24032140D01*
X27081129Y24032141D01*
X27081128Y24032143D01*
X27024182Y24068740D01*
X26960054Y24109953D01*
X26960050Y24109954D01*
X26821964Y24150500D01*
X26821961Y24150500D01*
X26678039Y24150500D01*
X26678036Y24150500D01*
X26539949Y24109954D01*
X26539945Y24109953D01*
X26418875Y24032145D01*
X26418868Y24032140D01*
X26324623Y23923374D01*
X26264834Y23792455D01*
X26244353Y23650000D01*
X300500Y23650000D01*
X300500Y23998179D01*
X300678Y24001807D01*
X303242Y24027844D01*
X313227Y24129220D01*
X316054Y24143434D01*
X351632Y24260722D01*
X357178Y24274110D01*
X414954Y24382200D01*
X423006Y24394251D01*
X500756Y24488989D01*
X511013Y24499245D01*
X605749Y24576994D01*
X617800Y24585046D01*
X725890Y24642822D01*
X739278Y24648368D01*
X856566Y24683946D01*
X870780Y24686773D01*
X977605Y24697295D01*
X998194Y24699322D01*
X1001822Y24699500D01*
X1047595Y24699500D01*
X27943827Y24699500D01*
X46952405Y24699500D01*
X46998178Y24699500D01*
X47001806Y24699322D01*
G37*
%TD.AperFunction*%
%TD*%
M02*
